<?xml version="1.0" encoding="utf-8"?>
<!-- Generator: Adobe Illustrator 24.0.1, SVG Export Plug-In . SVG Version: 6.00 Build 0)  -->
<svg version="1.1" id="Layer_1" xmlns="http://www.w3.org/2000/svg" xmlns:xlink="http://www.w3.org/1999/xlink" x="0px" y="0px"
	 viewBox="0 0 450 232.9" style="enable-background:new 0 0 450 232.9;" xml:space="preserve">
<style type="text/css">
	.st0{fill-rule:evenodd;clip-rule:evenodd;fill:#BFBFBF;}
	.st1{fill-rule:evenodd;clip-rule:evenodd;fill:#333333;}
	.st2{fill-rule:evenodd;clip-rule:evenodd;fill:#D32F2F;}
	.st3{fill:#D32F2F;}
	.st4{fill:#333333;}
	.st5{fill-rule:evenodd;clip-rule:evenodd;fill:#B71C1C;}
	.st6{fill-rule:evenodd;clip-rule:evenodd;fill:#EF9A9A;}
</style>
<g>
	<g>
		<path class="st0" d="M19.1,93.9c-3.1,0-4.4,1.2-4.4,4.1l0,47.4c0,2.9,1.4,6.6,5,7.7l17.5,5.3c5.3,1.6,5.7-1.8,5.7-5.5v-49.3
			c0-5.8-4.1-7.6-7.3-7.9L19.1,93.9z M19.5,86L38,87.2c10.3,0.7,14.3,8,14.3,16.1v52.5c0,9.1-8.7,13.8-16.4,11l-20.6-7.5
			c-6-2.2-7.8-8.5-7.8-16.4V96.4C7.5,89.9,12.1,85.9,19.5,86L19.5,86z"/>
		<path class="st1" d="M126.1,80.2c0-15.2-6-22.4-21.9-22.1l-65.8,1.3c-8.1,0.2-12.9,5.2-12.9,13v14l6.9,0.4c0.1-5-0.1-10.6,0-14.3
			c0.1-4.1,3.5-5.5,6.8-5.4l30.7,0.7l36.7,0.6c5.4,0.1,8.5,3.4,8.5,11.1v68.7c0,5.2-2.3,7-7.5,5.9l-55.3-12.5v7.3l34,9.7l17.5,5
			c11,3.1,22.3,0.9,22.3-15.1V80.2z"/>
		<path class="st2" d="M177.3,13.6L68.9,26.1c-8.6,1-12.2,7.7-12.2,14.6V59l8.2-0.2V41.7c0-3.4,1.8-6.8,5.7-7.2l108.2-9.1
			c4.7-0.4,6.3,3,6.3,7.2l0.1,95.6c0,12-4.4,11.8-14,10.2l-45.1-7.1v9.2l41.2,8.8c21,4.5,30.5,1.8,30.5-21.8V32.6
			C197.8,18.2,191.8,11.9,177.3,13.6z"/>
	</g>
	<g>
		<path class="st3" d="M251.5,81.5c-1.4-2.4-3.2-4.3-5.3-5.9s-4.5-2.8-7.2-3.6c-2.7-0.8-5.6-1.2-8.7-1.2c-3.4,0-6.5,0.5-9.2,1.4
			c-2.8,0.9-5.2,2.2-7.4,3.8c-2.2,1.6-4.1,3.6-5.6,5.8c-1.6,2.2-2.9,4.7-4,7.3c-1,2.6-1.8,5.4-2.3,8.4c-0.5,2.9-0.8,5.9-0.8,9
			c0,5,0.6,9.7,1.7,14.1c1.1,4.4,2.9,8.3,5.3,11.6c2.4,3.3,5.5,6,9.2,7.9c3.7,1.9,8.1,2.9,13.2,2.9c3.8,0,7.2-0.6,10.2-1.9
			s5.5-3.1,7.6-5.3c2.1-2.3,3.7-4.9,4.9-8c1.2-3.1,1.9-6.5,2.1-10.1h12.4c-0.5,5.7-1.8,10.7-3.7,15.2c-1.9,4.4-4.5,8.2-7.7,11.3
			c-3.2,3.1-7.1,5.4-11.6,7c-4.5,1.6-9.6,2.4-15.3,2.4c-6.8,0-12.8-1.2-18-3.6c-5.1-2.4-9.4-5.6-12.8-9.8c-3.4-4.1-6-9-7.7-14.6
			c-1.7-5.6-2.5-11.7-2.5-18.2c0-4.4,0.4-8.6,1.2-12.6c0.8-4,2-7.8,3.6-11.3c1.6-3.5,3.6-6.7,5.9-9.5c2.4-2.9,5.1-5.3,8.2-7.3
			c3.1-2,6.6-3.6,10.4-4.7c3.8-1.1,8-1.7,12.6-1.7c4.7,0,9.1,0.6,13.2,1.9c4.1,1.3,7.8,3.2,11,5.7c3.2,2.5,5.9,5.6,8,9.2
			c2.1,3.7,3.6,7.9,4.4,12.6h-12.6C253.9,86.6,252.9,83.8,251.5,81.5z"/>
		<path class="st3" d="M292.2,62.4v33.1c1-1.5,2.2-2.9,3.8-4.2c1.6-1.3,3.3-2.3,5.1-3.2c1.8-0.9,3.7-1.6,5.6-2.1
			c1.9-0.5,3.8-0.8,5.4-0.8c4.3,0,7.9,0.6,10.8,1.8c2.8,1.2,5.1,2.8,6.8,5c1.7,2.1,2.9,4.6,3.5,7.5c0.7,2.9,1,6.1,1,9.5v42.6h-11.3
			V108c0-3.9-1.1-7-3.2-9.3c-2.1-2.2-5.2-3.4-9.2-3.4c-3.1,0-5.7,0.5-8,1.5c-2.3,1-4.2,2.4-5.7,4.2c-1.5,1.8-2.7,3.8-3.4,6.2
			c-0.8,2.4-1.1,4.9-1.1,7.6v36.8h-11.3V62.4H292.2z"/>
		<path class="st3" d="M407.1,151c-1,0.7-2.2,1.3-3.4,1.6c-1.3,0.4-2.8,0.6-4.4,0.6c-1.3,0-2.6-0.2-3.7-0.6c-1.1-0.4-2.1-1-2.9-1.9
			c-0.8-0.8-1.5-1.9-2-3.1c-0.5-1.3-0.7-2.7-0.7-4.4c-1.3,1.7-2.7,3.2-4.3,4.4c-1.6,1.3-3.4,2.3-5.3,3.1c-1.9,0.8-3.9,1.5-6,1.9
			c-2.1,0.4-4.2,0.6-6.3,0.6c-2.9,0-5.7-0.3-8.3-1c-2.6-0.7-4.9-1.7-6.8-3.2c-2-1.5-3.5-3.4-4.6-5.7c-1.1-2.3-1.7-5.1-1.7-8.4
			c0-2.5,0.3-4.7,0.8-6.5c0.6-1.8,1.3-3.4,2.3-4.8c1-1.3,2.2-2.5,3.5-3.4c1.4-0.9,2.8-1.7,4.4-2.3c1.6-0.6,3.2-1.2,5-1.6
			c1.8-0.4,3.5-0.8,5.4-1.2c1.3-0.3,2.7-0.5,4.3-0.8c1.6-0.2,3.1-0.5,4.7-0.8c1.6-0.3,3.1-0.6,4.6-1c1.5-0.4,2.8-0.9,3.9-1.5
			c1.1-0.6,2-1.3,2.7-2.2c0.7-0.9,1-1.9,1-3.1c0-2.2-0.4-4-1.2-5.4c-0.8-1.4-1.9-2.4-3.2-3.2c-1.3-0.7-2.8-1.2-4.4-1.5
			c-1.7-0.3-3.3-0.4-4.9-0.4c-2.1,0-4.1,0.2-5.9,0.6c-1.8,0.4-3.4,1-4.7,1.9c-1.3,0.9-2.4,2.2-3.2,3.8c-0.8,1.6-1.2,3.6-1.3,6h-11.3
			c0.1-4.1,0.9-7.6,2.5-10.4c1.5-2.8,3.5-5.2,6-6.9c2.5-1.8,5.4-3,8.6-3.8c3.2-0.8,6.7-1.2,10.3-1.2c1.9,0,3.8,0.1,5.8,0.3
			c2,0.2,3.8,0.5,5.6,1c1.8,0.5,3.5,1.2,5,2c1.5,0.9,2.9,2,4.1,3.3c1.2,1.3,2.1,3,2.7,4.8c0.7,1.9,1,4.1,1,6.7v32.9
			c0,1.2,0,2.2,0,3.1c0,0.8,0.1,1.5,0.3,2.1c0.2,0.6,0.4,1,0.8,1.2c0.4,0.3,1,0.4,1.8,0.4c0.4,0,0.9-0.1,1.5-0.2s1.3-0.4,2.2-0.7
			V151z M370.3,143.1c3.4,0,6.3-0.5,8.7-1.4c2.4-0.9,4.3-2.1,5.8-3.5c1.5-1.4,2.6-2.9,3.3-4.6c0.7-1.7,1-3.2,1-4.7v-10.6
			c-0.9,0.6-2.1,1.1-3.4,1.5c-1.4,0.4-2.9,0.8-4.5,1c-1.6,0.3-3.3,0.6-5.1,0.8c-1.8,0.3-3.5,0.6-5.2,1c-1.7,0.4-3.3,0.8-4.9,1.4
			c-1.5,0.6-2.9,1.3-4.1,2.1c-1.2,0.9-2.1,1.9-2.8,3.2c-0.7,1.3-1,2.8-1,4.6c0,1.7,0.3,3.1,1,4.2c0.7,1.1,1.5,2,2.7,2.7
			c1.1,0.7,2.4,1.2,3.9,1.5C367.2,142.9,368.7,143.1,370.3,143.1z"/>
		<path class="st3" d="M444.2,86.7V97h-12.6v39.3c0,1.2,0.1,2.1,0.4,2.8c0.2,0.7,0.6,1.2,1.2,1.6c0.6,0.4,1.3,0.6,2.3,0.7
			c1,0.1,2.2,0.2,3.6,0.2h5.1v10H436c-2.8,0-5.2-0.2-7.1-0.6c-2-0.4-3.6-1.1-4.8-2.1c-1.3-1-2.2-2.5-2.7-4.4
			c-0.6-1.9-0.8-4.2-0.8-7.2V97h-10.6V86.7h10.6V67.5h11.2v19.2H444.2z"/>
	</g>
	<g>
		<path class="st4" d="M142.6,164.5c-0.7-1.4-1.5-2.5-2.6-3.3c-1.1-0.9-2.4-1.5-3.8-1.9s-3.1-0.6-4.9-0.6c-1.4,0-2.8,0.1-4.2,0.4
			c-1.4,0.3-2.6,0.8-3.7,1.5c-1.1,0.7-2,1.6-2.6,2.7c-0.7,1.1-1,2.5-1,4.2c0,1.4,0.4,2.5,1.1,3.5c0.7,0.9,1.7,1.7,2.9,2.4
			c1.2,0.6,2.7,1.2,4.3,1.6c1.6,0.4,3.4,0.8,5.2,1.2c1.6,0.3,3.1,0.7,4.7,1.1c1.6,0.4,3.1,0.8,4.6,1.3c1.5,0.5,2.9,1.2,4.1,1.9
			c1.3,0.7,2.4,1.6,3.4,2.7c0.9,1.1,1.7,2.4,2.2,3.8c0.5,1.5,0.8,3.2,0.8,5.2c0,1.9-0.3,3.6-0.9,5.2c-0.6,1.5-1.3,2.9-2.3,4.1
			c-1,1.2-2.1,2.2-3.5,3c-1.3,0.8-2.8,1.5-4.3,2c-1.5,0.5-3.1,0.9-4.8,1.2c-1.7,0.2-3.3,0.4-4.9,0.4c-3,0-5.8-0.4-8.5-1.1
			c-2.6-0.7-4.9-1.8-6.9-3.4c-2-1.5-3.5-3.5-4.7-5.9c-1.1-2.4-1.7-5.3-1.7-8.6h7c0,2.3,0.4,4.2,1.2,5.8c0.8,1.6,1.9,2.9,3.2,4
			c1.4,1,3,1.8,4.8,2.3c1.8,0.5,3.7,0.7,5.7,0.7c1,0,2.1-0.1,3.2-0.2c1.1-0.1,2.1-0.3,3-0.6c1-0.3,1.9-0.6,2.7-1.1
			c0.8-0.5,1.6-1,2.2-1.7c0.6-0.7,1.1-1.5,1.5-2.5c0.4-0.9,0.5-2.1,0.5-3.3c0-1.6-0.4-3-1.2-4c-0.8-1.1-1.9-1.9-3.2-2.7
			s-2.9-1.3-4.7-1.7c-1.8-0.4-3.6-0.9-5.6-1.3c-1.5-0.3-3-0.7-4.6-1.1c-1.5-0.4-3-0.8-4.4-1.3c-1.4-0.5-2.7-1.1-3.9-1.8
			c-1.2-0.7-2.2-1.5-3.1-2.5s-1.6-2.1-2.1-3.4c-0.5-1.3-0.8-2.8-0.8-4.6c0-1.8,0.2-3.4,0.7-4.9s1.2-2.8,2.1-4c0.9-1.2,1.9-2.2,3.1-3
			c1.2-0.9,2.5-1.6,3.9-2.1c1.4-0.6,2.9-1,4.5-1.3c1.6-0.3,3.2-0.4,4.8-0.4c2.7,0,5.2,0.3,7.6,1c2.3,0.7,4.3,1.7,6,3.1
			c1.7,1.4,3.1,3.2,4.1,5.3c1,2.2,1.6,4.7,1.7,7.7h-7.1C143.7,167.5,143.2,165.9,142.6,164.5z"/>
		<path class="st4" d="M167.3,153.6v31l17.1-16.5h8.8l-15.4,14.2l16.4,24.6h-8.5l-13-19.7l-5.5,5v14.7h-6.7v-53.2H167.3z"/>
		<path class="st4" d="M214,211.9c-0.7,1.8-1.4,3.4-2.2,4.7c-0.8,1.3-1.6,2.4-2.5,3.2c-0.9,0.8-1.9,1.4-2.9,1.8s-2.3,0.6-3.6,0.6
			c-0.9,0-1.7-0.1-2.5-0.2c-0.8-0.1-1.5-0.3-2.2-0.6v-6.2c0.7,0.3,1.4,0.5,2.1,0.7c0.7,0.2,1.3,0.2,1.8,0.2c1.2,0,2.2-0.3,3-0.8
			c0.9-0.5,1.5-1.4,2-2.5l2.5-6.4l-15.1-38.2h7.5l11.1,30.8l10.4-30.8h7.1L214,211.9z"/>
		<path class="st4" d="M240.9,197.9c0.6,0.9,1.3,1.7,2.2,2.3c0.9,0.6,1.9,1,3.1,1.2c1.2,0.2,2.4,0.4,3.7,0.4c1,0,2-0.1,3-0.2
			c1-0.1,2-0.4,2.8-0.8c0.9-0.4,1.6-1,2.1-1.7c0.6-0.7,0.8-1.6,0.8-2.8c0-1.1-0.3-1.9-0.9-2.6c-0.6-0.7-1.3-1.3-2.3-1.7
			c-0.9-0.5-2-0.8-3.3-1.2c-1.2-0.3-2.5-0.6-3.9-0.9c-1.1-0.2-2.3-0.5-3.4-0.8c-1.2-0.3-2.3-0.6-3.3-1c-1.1-0.4-2.1-0.9-3-1.4
			c-0.9-0.6-1.8-1.2-2.5-2c-0.7-0.8-1.3-1.7-1.7-2.7c-0.4-1-0.6-2.2-0.6-3.6c0-2,0.4-3.7,1.3-5.1c0.9-1.4,2-2.6,3.3-3.4
			c1.4-0.9,2.9-1.6,4.7-2c1.7-0.4,3.5-0.6,5.2-0.6c2.1,0,4.1,0.2,5.9,0.6c1.9,0.4,3.5,1.1,4.9,2c1.4,1,2.5,2.2,3.4,3.8
			c0.9,1.6,1.4,3.6,1.5,6h-6.8c-0.1-1.2-0.4-2.3-0.9-3.1c-0.5-0.8-1.2-1.5-2-2c-0.8-0.5-1.7-0.9-2.7-1.1c-1-0.2-2-0.3-3-0.3
			c-0.9,0-1.8,0.1-2.7,0.2c-0.9,0.1-1.8,0.4-2.5,0.7c-0.8,0.4-1.4,0.8-1.9,1.5s-0.7,1.4-0.7,2.3c0,0.9,0.3,1.6,0.8,2.2
			c0.5,0.6,1.2,1.1,2.1,1.5c0.9,0.4,1.9,0.8,3,1.1s2.3,0.6,3.6,0.9l2.7,0.6c1.7,0.4,3.3,0.9,4.9,1.5c1.5,0.6,2.8,1.2,4,2.1
			c1.1,0.8,2,1.8,2.7,3c0.7,1.2,1,2.7,1,4.4c0,1.6-0.2,3-0.7,4.2c-0.4,1.2-1,2.3-1.8,3.2c-0.8,0.9-1.7,1.7-2.7,2.3
			c-1,0.6-2.2,1.1-3.4,1.5c-1.2,0.4-2.5,0.6-3.8,0.8c-1.3,0.2-2.6,0.3-3.9,0.3c-2.2,0-4.3-0.2-6.2-0.7c-1.9-0.5-3.6-1.2-5.1-2.3
			c-1.5-1.1-2.6-2.4-3.5-4.1c-0.9-1.7-1.4-3.8-1.5-6.2h6.8C240.1,195.8,240.4,197,240.9,197.9z"/>
		<path class="st4" d="M303.8,206.9l-7.8-29.6l-7.4,29.6h-7.2L269,168.1h7.6l8.4,30.5l7.5-30.5h7.2l8,30.7l8.3-30.7h7.1l-12.3,38.7
			H303.8z"/>
		<path class="st4" d="M326.7,187.6c0-2.9,0.4-5.5,1.2-8c0.8-2.5,2-4.6,3.5-6.4c1.6-1.8,3.5-3.2,5.8-4.3c2.3-1,5-1.6,8.1-1.6
			c3.1,0,5.7,0.5,8.1,1.6c2.3,1,4.3,2.5,5.8,4.3c1.6,1.8,2.8,4,3.6,6.4c0.8,2.5,1.2,5.1,1.2,8c0,2.8-0.4,5.4-1.2,7.9
			c-0.8,2.5-2,4.6-3.6,6.4c-1.6,1.8-3.5,3.3-5.8,4.3c-2.3,1-5,1.6-8.1,1.6c-3.1,0-5.8-0.5-8.1-1.6c-2.3-1-4.3-2.5-5.8-4.3
			c-1.6-1.8-2.7-4-3.5-6.4C327.1,193,326.7,190.4,326.7,187.6z M333.7,187.6c0,2.3,0.3,4.4,0.9,6.2c0.6,1.8,1.4,3.2,2.5,4.4
			c1,1.2,2.3,2.1,3.7,2.7c1.4,0.6,3,0.9,4.6,0.9c1.5,0,3-0.3,4.4-0.9c1.4-0.6,2.6-1.5,3.7-2.7c1.1-1.2,1.9-2.7,2.5-4.4
			s0.9-3.8,0.9-6.2c0-2.3-0.3-4.3-0.9-6c-0.6-1.8-1.5-3.3-2.5-4.5c-1.1-1.2-2.3-2.2-3.7-2.8c-1.4-0.6-2.9-1-4.4-1
			c-1.6,0-3.2,0.3-4.6,1c-1.4,0.6-2.7,1.6-3.7,2.8c-1,1.2-1.9,2.7-2.5,4.5C334,183.3,333.7,185.3,333.7,187.6z"/>
		<path class="st4" d="M377.5,168.1l0.1,7.3c0.8-1.4,1.6-2.7,2.5-3.7c0.9-1,1.9-1.9,3-2.6c1.1-0.7,2.4-1.2,3.7-1.5
			c1.4-0.3,2.9-0.5,4.6-0.4v7.1c-2.6,0-4.7,0.3-6.4,1c-1.7,0.7-3.1,1.7-4.2,3c-1.1,1.3-1.8,2.9-2.3,4.8c-0.5,1.9-0.7,4-0.7,6.4v17.2
			h-6.7v-38.7H377.5z"/>
		<path class="st4" d="M424,206.9l-0.1-4.7c-0.6,0.9-1.3,1.7-2.2,2.3c-0.9,0.7-1.8,1.3-2.8,1.8c-1,0.5-2.1,0.8-3.3,1.1
			c-1.2,0.2-2.4,0.4-3.6,0.4c-2,0-3.8-0.2-5.4-0.7c-1.6-0.5-3.1-1.2-4.4-2.1c-1.3-0.9-2.5-2-3.4-3.2c-1-1.3-1.8-2.6-2.4-4.2
			c-0.6-1.5-1.1-3.1-1.5-4.8c-0.3-1.7-0.5-3.5-0.5-5.3c0-2.7,0.4-5.3,1.1-7.8c0.7-2.4,1.8-4.6,3.3-6.4c1.4-1.8,3.3-3.3,5.4-4.3
			c2.2-1.1,4.7-1.6,7.7-1.6c1.1,0,2.2,0.1,3.3,0.3c1.1,0.2,2.2,0.5,3.3,1c1.1,0.4,2.1,1,3.1,1.8c1,0.7,1.8,1.7,2.5,2.7v-19.4h6.8
			v53.2H424z M401.3,187.9c0,1.7,0.2,3.4,0.7,5.1c0.5,1.7,1.1,3.1,2.1,4.4c0.9,1.3,2.1,2.3,3.6,3.1s3.2,1.2,5.2,1.2
			c1.4,0,2.7-0.2,3.8-0.6c1.1-0.4,2.1-0.9,2.9-1.6c0.8-0.7,1.6-1.5,2.1-2.4c0.6-0.9,1.1-1.9,1.5-2.9c0.4-1,0.7-2.1,0.8-3.3
			c0.2-1.1,0.3-2.3,0.3-3.5c0-1.2-0.1-2.5-0.3-3.6c-0.2-1.2-0.5-2.3-0.9-3.4c-0.4-1.1-0.9-2-1.5-2.9c-0.6-0.9-1.4-1.7-2.2-2.3
			c-0.9-0.6-1.9-1.2-3-1.5c-1.1-0.4-2.4-0.5-3.8-0.5c-2.1,0-3.9,0.4-5.3,1.2c-1.4,0.8-2.6,1.9-3.5,3.3c-0.9,1.4-1.5,2.9-1.9,4.7
			C401.5,184.2,401.3,186,401.3,187.9z"/>
	</g>
</g>
</svg>
