<?xml version="1.0" encoding="utf-8"?>
<!-- Generator: Adobe Illustrator 24.0.1, SVG Export Plug-In . SVG Version: 6.00 Build 0)  -->
<svg version="1.1" id="Layer_1" xmlns="http://www.w3.org/2000/svg" xmlns:xlink="http://www.w3.org/1999/xlink" x="0px" y="0px"
	 viewBox="0 0 100 100" style="enable-background:new 0 0 100 100;" xml:space="preserve">
<style type="text/css">
	.st0{fill:#F2F2F2;}
	.st1{fill:#D32F2F;}
	.st2{fill:#FFFFFF;}
	.st3{fill:#592B49;}
	.st4{fill:#291221;}
	.st5{fill:#DA2286;}
	.st6{fill:#5E3C16;}
	.st7{fill:#472E11;}
	.st8{fill:#DF871E;}
	.st9{fill:#2A4997;}
	.st10{fill:#263364;}
	.st11{fill:#76C8DA;}
	.st12{fill:#151F45;}
	.st13{fill:#C9E1F6;}
	.st14{fill:#41B783;}
	.st15{fill:#34495E;}
	.st16{fill:#E64C18;}
	.st17{fill:#F36518;}
	.st18{fill:#2196F3;}
	.st19{fill:#FAFAFA;}
	.st20{fill:#37474F;}
	.st21{fill:#FFC107;}
	.st22{fill:#02C58E;}
	.st23{fill:#304A5F;}
	.st24{fill:#FEFEFE;}
	.st25{fill:#414042;}
</style>
<g>
	<path class="st2" d="M85.6,59.9l-37-35.2l-35,34.9c0,0,0,10.8,0,23.7c0,13,23.3,12.4,23.3,12.4l0.2-22.8h25.6v22.8
		C88.2,96.1,85.6,84,85.6,84V59.9z"/>
	<path class="st2" d="M98,45.9C91.7,39.1,56.8,7.3,56.8,7.3s-8.8-6.8-16.2,0c-7.8,7.1-37,34.9-37,34.9s-8.9,7.5,1.1,15.6L48.5,15
		L94,57.9C94,57.9,104.2,52.6,98,45.9z"/>
</g>
</svg>
