<?xml version="1.0" encoding="utf-8"?>
<!-- Generator: Adobe Illustrator 24.0.1, SVG Export Plug-In . SVG Version: 6.00 Build 0)  -->
<svg version="1.1" id="Layer_1" xmlns="http://www.w3.org/2000/svg" xmlns:xlink="http://www.w3.org/1999/xlink" x="0px" y="0px"
	 viewBox="0 0 400 400" style="enable-background:new 0 0 400 400;" xml:space="preserve">
<style type="text/css">
	.st0{fill:#EBEBEB;}
	.st1{fill:#D6CED0;}
	.st2{fill:#3F3D56;}
	.st3{fill:#D32F2F;}
	.st4{fill:none;stroke:#3F3D56;stroke-width:0.4028;stroke-miterlimit:10;}
	.st5{fill:#FFB6B6;}
	.st6{fill:#2F2E41;}
	.st7{opacity:0.1;fill:#D32F2F;enable-background:new    ;}
	.st8{opacity:0.5;}
	.st9{fill:none;stroke:#535461;stroke-width:0.7767;stroke-miterlimit:10;}
	.st10{opacity:0.1;enable-background:new    ;}
	.st11{fill:#FFD037;}
	.st12{fill:#A8A8A8;}
	.st13{opacity:0.2;enable-background:new    ;}
	.st14{fill:#E6E6F0;}
	.st15{fill:#FDC2CC;}
	.st16{fill:#565171;}
	.st17{fill:#B45181;}
	.st18{opacity:0.1;}
	.st19{fill:#F569BC;}
	.st20{fill:#F7DF1E;}
	.st21{fill:url(#SVGID_1_);}
	.st22{fill:#4F4D59;}
	.st23{fill:#C48C96;}
	.st24{fill:#714B4F;}
	.st25{fill:#BA7855;}
	.st26{fill:#503F43;}
	.st27{fill:#E44D26;}
	.st28{fill:#F16529;}
	.st29{fill:#FFFFFF;}
	.st30{fill:url(#SVGID_2_);}
	.st31{opacity:5.000000e-02;enable-background:new    ;}
	.st32{fill:#264DE4;}
	.st33{fill:#2965F1;}
	.st34{fill:#47465A;}
	.st35{opacity:0.3;fill:#FFFFFF;enable-background:new    ;}
	.st36{fill:#E1A0A7;}
	.st37{fill:#8F5A6A;}
	.st38{opacity:5.000000e-02;}
	.st39{fill:#F2F2F2;}
	.st40{fill:#9F616A;}
	.st41{opacity:0.7;}
	.st42{fill:url(#SVGID_3_);}
	.st43{fill:#BDBDBD;}
	.st44{fill:#535461;}
	.st45{fill:url(#SVGID_4_);}
	.st46{fill:#E0E0E0;}
	.st47{fill:none;stroke:#D32F2F;stroke-width:0.8235;stroke-miterlimit:10;}
	.st48{fill:none;stroke:#FFFFFF;stroke-width:0.4118;stroke-miterlimit:10;}
	.st49{fill:url(#SVGID_5_);}
	.st50{opacity:0.6;fill:none;stroke:#535461;stroke-width:1.2353;stroke-miterlimit:10;enable-background:new    ;}
	.st51{fill:#4DB6AC;}
	.st52{opacity:0.3;fill:none;stroke:#535461;stroke-width:0.4118;stroke-miterlimit:10;enable-background:new    ;}
	.st53{fill:url(#SVGID_6_);}
	.st54{fill:#3AD29F;}
	.st55{fill:#4D8AF0;}
	.st56{fill:#F55F44;}
</style>
<circle class="st0" cx="200" cy="200" r="200"/>
<g>
	<ellipse class="st7" cx="316.4" cy="285.5" rx="82.1" ry="16"/>
	<g class="st8">
		<path class="st3" d="M246.1,98.5c-1.1,0.3-2.5,1.1-3.1,3.4c-1.3,4.4,1.7,7.4,0.7,12c-0.3,1.2-0.8,2.4-1.6,3.4
			c-1.2,1.7-2.6,2.4-3.8,3.6c-1.6,1.5-2.8,3.4-3.4,5.5c-0.6,2.4-0.7,4.8-0.2,7.2c0.5,2,1.2,3.4,1.9,5c0.8,2.1,1.5,4.2,2,6.4
			c0.3,1.1,0.4,2.1,0.4,3.2c0,1.4-0.1,2.9-0.4,4.3l-1.9,13c-0.3,1.7-0.5,3.4-0.5,5.1c0,1.7,0.2,3.4,0.6,5.1c0.7,3.4,1.4,7,2.9,8.8
			c1.5,1.8,4,1.2,5.6-2.5c1.5-3.5,1.5-8.2,2.8-12c2.1-5.9,6.2-6.7,8.5-12.4c2.2-5.4,1.5-12.1,2.6-18.3c0.8-4.4,2.5-8.5,3.5-12.8
			c1.4-6.3,1.3-12.8,0.1-17.7c-0.9-4-2.8-7.7-5.5-10.7c-1-1.1-2-2-3.2-2.1c-1.3-0.1-2.4,1.5-3.7,2C249,98.7,247.6,98.1,246.1,98.5z"
			/>
		<path class="st9" d="M253.1,96.4c0,0-2.2,56.1-11.4,89.1"/>
		<path class="st9" d="M242.9,102.1c0,0,9.8,9,8,26"/>
		<path class="st9" d="M234.6,127.6c0,0,16.2,3.3,15,12.9"/>
		<path class="st9" d="M263,108.8c0,0-6.5,5.7-12.4,21.9"/>
		<path class="st9" d="M256.6,157.8c0,0-4.5,3.5-8-8.7"/>
		<path class="st9" d="M237.3,164.9c0,0,9.1-1.2,9.9-6.9"/>
	</g>
	<path class="st3" d="M268.1,60.9c-2.3,0.3-5,1.4-6.1,4.6c-2.2,6.3,4.5,11.1,2.9,17.7c-0.5,1.8-1.4,3.5-2.8,4.8
		c-2.3,2.3-5,3.3-7.5,4.9c-2.5,1.6-5.1,4-6.3,7.8c-1.1,3.6-0.6,7.6,0.5,10.6c1.2,3,3,5.2,4.6,7.7c1.9,3,3.6,6.2,4.9,9.6
		c0.6,1.5,1.1,3.1,1.3,4.8c0.2,2-0.1,4.2-0.3,6.3l-2.3,18.9c-0.3,2.5-0.6,5.1-0.4,7.5c0.2,2.8,1,5.2,1.8,7.6
		c1.8,5.1,3.6,10.5,6.9,13.3c3.3,2.8,8.5,2.2,11.3-3c2.7-5,2.2-11.9,4.4-17.3c3.6-8.5,12-9.2,16-17.2c3.9-7.7,1.7-17.6,3.3-26.6
		c1.1-6.4,4.1-12.2,5.7-18.5c2.2-9.1,1.2-18.8-1.8-26c-3-7.3-7.6-12.4-12.7-16.4c-2.1-1.7-4.4-3.2-6.9-3.5c-2.7-0.3-4.8,2-7.4,2.5
		C274.2,61.5,271.1,60.4,268.1,60.9z"/>
	<path class="st9" d="M282.3,58.6c0,0,2.1,82.3-13,129.9"/>
	<path class="st9" d="M261.9,65.9c0,0,21.4,14.4,19.6,39.3"/>
	<path class="st9" d="M247.8,102.5c0,0,33.8,6.7,32.5,20.8"/>
	<path class="st9" d="M304.3,78c0,0-12.9,7.7-23,30.8"/>
	<path class="st9" d="M296.9,149.4c0,0-8.8,4.7-17.7-13.8"/>
	<path class="st9" d="M257.9,157.7c0,0,18.7-0.7,19.8-9"/>
	<path class="st3" d="M26.1,283c0,0,3.3,4.3-1.5,10.7c-4.8,6.4-8.7,11.9-7.1,15.9c0,0,7.2-11.9,13-12.1
		C36.4,297.2,32.5,290.1,26.1,283z"/>
	<path class="st10" d="M26.1,283c0.3,0.4,0.5,0.9,0.7,1.3c5.7,6.7,8.7,12.9,3.3,13.1c-5.1,0.1-11.2,9.3-12.7,11.6
		c0,0.2,0.1,0.4,0.2,0.5c0,0,7.2-11.9,13-12.1C36.4,297.2,32.5,290.1,26.1,283z"/>
	<path class="st11" d="M32.2,288.4c0,1.5-0.2,2.7-0.4,2.7c-0.2,0-0.4-1.2-0.4-2.7c0-1.5,0.2-0.8,0.4-0.8
		C32,287.6,32.2,286.9,32.2,288.4z"/>
	<path class="st11" d="M34.2,290.2c-1.3,0.7-2.5,1.2-2.6,1s0.9-0.9,2.2-1.6c1.3-0.7,0.8-0.2,0.9,0C34.9,289.7,35.6,289.5,34.2,290.2
		z"/>
	<path class="st3" d="M8.9,283c0,0-3.3,4.3,1.5,10.7c4.8,6.4,8.7,11.8,7.1,15.9c0,0-7.2-11.9-13-12.1S2.5,290.1,8.9,283z"/>
	<path class="st10" d="M8.9,283c-0.3,0.4-0.5,0.9-0.7,1.3C2.6,291-0.5,297.2,5,297.4c5.1,0.1,11.2,9.3,12.7,11.6
		c0,0.2-0.1,0.4-0.2,0.5c0,0-7.2-11.9-13-12.1C-1.3,297.2,2.5,290.1,8.9,283z"/>
	<path class="st11" d="M2.9,288.4c0,1.5,0.2,2.7,0.4,2.7c0.2,0,0.4-1.2,0.4-2.7c0-1.5-0.2-0.8-0.4-0.8S2.9,286.9,2.9,288.4z"/>
	<path class="st11" d="M0.8,290.2c1.3,0.7,2.5,1.2,2.6,1c0.1-0.2-0.9-0.9-2.2-1.6c-1.3-0.7-0.8-0.2-0.9,0
		C0.2,289.7-0.5,289.5,0.8,290.2z"/>
	<path class="st12" d="M3.9,308.9c0,0,9.1-0.3,11.8-2.2c2.7-2,14-4.3,14.7-1.2c0.7,3.1,13.7,15.6,3.4,15.7
		c-10.3,0.1-23.9-1.6-26.6-3.3S3.9,308.9,3.9,308.9z"/>
	<path class="st13" d="M34,320.1c-10.3,0.1-23.9-1.6-26.6-3.3c-2.1-1.3-2.9-5.8-3.2-7.9H3.9c0,0,0.6,7.3,3.3,9s16.3,3.4,26.6,3.3
		c3,0,4-1.1,3.9-2.6C37.4,319.5,36.2,320.1,34,320.1z"/>
	<path class="st3" d="M381.5,281.2c0.7-0.6,1.2-1.4,1.5-2.2c0.2-0.9-0.2-2-1-2.3c-1-0.4-2,0.3-2.7,1c-0.8,0.7-1.7,1.4-2.7,1.3
		c1.1-1,1.5-2.4,1.3-3.8c0-0.3-0.2-0.6-0.3-0.8c-0.5-0.6-1.5-0.3-2.1,0.1c-2,1.4-2.6,4.2-2.6,6.6c-0.2-0.9,0-1.8,0-2.7
		c0-0.9-0.3-1.9-1-2.4c-0.5-0.3-1-0.4-1.6-0.4c-0.9,0-1.9,0.1-2.5,0.7c-0.8,0.8-0.6,2.2,0.1,3.1c0.7,0.9,1.7,1.5,2.6,2.1
		c0.8,0.4,1.4,1.1,1.9,1.8c0.1,0.1,0.1,0.2,0.1,0.3h5.7C379.3,283,380.4,282.2,381.5,281.2z"/>
	<path class="st7" d="M57,244.8c12.4,15.7,7.6,38.7-0.3,57c-2.6,6.2-5.6,12.7-4.5,19.3c1.4,8.1,8.5,14,16.1,17.1
		c13.8,5.7,30.3,4.3,43-3.5c10.9-6.8,18.8-17.9,29.9-24.4c18.6-10.9,42.4-6.8,62.6,0.7c14.3,5.3,30,12.2,44.2,6.7
		c10-3.9,16.9-13.4,20.7-23.4c1.8-4.9,3.1-10.1,6.6-14c2.1-2.3,4.8-3.9,7.5-5.3c25.2-12.5,57.1-5.8,81.6-19.7
		c16.5-9.4,27.1-27,31.8-45.5s4.1-37.8,3-56.7c-0.8-13.5-2.4-27.9-11-38.3c-9.1-11-24.8-15.1-38.9-13c-14.1,2.1-27,9.6-38.2,18.4
		c-14.1,11-27.2,24.7-44.5,29.1c-11.8,3-24.2,1.4-36.3,0.8c-20.3-1-40.6,1.2-60.8,3.5c-19.3,2.2-38.8,4.7-57.3,11
		c-13,4.5-23.5,12.5-35.8,18.2c-8,3.7-16.8,4.7-24.4,9.4c-9.4,5.8-17.9,15.8-15.5,27.6C38.7,230.9,50.4,236.5,57,244.8z"/>
	<ellipse class="st7" cx="214.5" cy="228.8" rx="166.1" ry="16"/>
	<ellipse class="st7" cx="86.9" cy="320.9" rx="82.1" ry="16"/>
	<path class="st14" d="M170.8,223.9l-1.3,1.9c0,0,1.4,1.9,1.6,2.1s4.1-0.1,4.1-0.1l0.4-1.4l-0.6-1.7L170.8,223.9z"/>
	<polygon class="st15" points="127,222.8 124.4,223.3 126.1,226.5 127.8,227.4 129.5,228.6 130,227.3 128.8,224.8 	"/>
	<path class="st16" d="M169.6,192.1c0,0,13.8,3.3,16.4,7c0,0,2.4,2,0,5.7c-2.4,3.7-5.7,11.9-5.7,11.9s-2.4,8-3.3,8.6
		c-0.9,0.6-6.4,1.1-6.9-1.2c0,0,3.1-4.8,3.1-7.1s5.1-12.9,5.1-12.9s-11.6-1.3-15.2-0.5C159.4,204.5,164.7,190.8,169.6,192.1z"/>
	<path class="st10" d="M169.6,192.1c0,0,13.8,3.3,16.4,7c0,0,2.4,2,0,5.7c-2.4,3.7-5.7,11.9-5.7,11.9s-2.4,8-3.3,8.6
		c-0.9,0.6-6.4,1.1-6.9-1.2c0,0,3.1-4.8,3.1-7.1s5.1-12.9,5.1-12.9s-11.6-1.3-15.2-0.5C159.4,204.5,164.7,190.8,169.6,192.1z"/>
	<path class="st16" d="M166.7,195.3c0,0.7-0.1,1.5-0.2,2.3c-0.8,6-3.2,15-3.2,15s-2.5,5.3-3.2,8.7c-0.7,3.4-5.6,4.3-5.6,4.3
		s-13.2,1.6-16,0.9s-7,1.8-9.1,1.4c-2.1-0.4-3.4-5.3-3.4-5.3c3.7,0,7.3-0.7,10.6-2.2c5.4-2.5,13.2-1.3,13.2-1.3
		c1.2-0.3,2.2-1.2,2.7-2.2c0.8-1.8,0.8-12.5,0.6-13.2c-1.6-4.7-1.4-7.7-1-9.4c0.1-0.8,0.5-1.5,1-2.1L166.7,195.3z"/>
	<path class="st10" d="M166.7,195.3c0,0.7-0.1,1.5-0.2,2.3c-1.2,0.1-4.5,0.2-7-1.3c-2.3-1.4-5.7-1.9-7.2-2.1c0.1-0.8,0.5-1.5,1-2.1
		L166.7,195.3z"/>
	<path class="st14" d="M168.4,193.8c-0.6,1.6-1.4,3.4-1.4,3.4s-4.4,0.6-7.4-1.3c-3.1-1.9-8-2.1-8-2.1c0.8-0.5,1.3-2,1.7-3.3
		c0.2-0.7,0.3-1.5,0.4-2.3c0,0,14.5,3,15.1,3.4C169,191.8,168.7,192.7,168.4,193.8z"/>
	<path class="st15" d="M194.3,144l-17.6,10.6l-1.8,1.1v-5.2l1.2-0.6l14.9-7.1c0,0,0.7-12.9,2.6-10.9
		C195.5,133.9,194.3,144,194.3,144z"/>
	<path class="st10" d="M176.7,154.6l-1.8,1.1v-5.2l1.2-0.6C176.2,151.5,176.4,153,176.7,154.6z"/>
	<path class="st17" d="M163.1,156.5l12.6-7.3c0,0,0.2,7.1,1.7,8.2c0,0-5.2,1.6-7.2,4.8L163.1,156.5z"/>
	<path class="st10" d="M163.1,156.5l12.6-7.3c0,0,0.2,7.1,1.7,8.2c0,0-5.2,1.6-7.2,4.8L163.1,156.5z"/>
	<path class="st15" d="M194.2,162.7c0,0-6,2.6-10,3.6c-0.9,0.3-1.8,0.4-2.8,0.3c-2.7-0.5,0.7-3.9,0.7-3.9l1.4-0.2l7.7-1.2
		c0,0,0.8-11.8,2.2-10.9C194.9,151.4,194.2,162.7,194.2,162.7z"/>
	<path class="st15" d="M168.8,152.1c0,0-5.1,3.8-3.2,8.5c1.9,4.7-9.8-2.8-9.8-2.8s3.8-5.7,4.6-9.9
		C161.2,143.6,168.8,152.1,168.8,152.1z"/>
	<path class="st10" d="M168.4,193.8c-2.2-0.8-4.5-1.4-6.8-1.6c-3.4-0.4-6.5-1-8.4-1.8c0.2-0.7,0.3-1.5,0.4-2.3c0,0,14.5,3,15.1,3.4
		C169,191.8,168.7,192.7,168.4,193.8z"/>
	<path class="st10" d="M184.2,166.3c-0.9,0.3-1.8,0.4-2.8,0.3c-2.7-0.5,0.7-3.9,0.7-3.9l1.4-0.2
		C184.1,163.5,184.7,164.9,184.2,166.3z"/>
	<path class="st17" d="M160.5,154.2c0,0-4.6-0.1-6.3,1.8c-1.7,1.9-1.3,7-1.3,7s-0.3,10.2,2.2,15.9c0.1,0.2,0.1,0.4,0,0.6
		c0,0.1,0,0,0,0s-1.7,7.4-3.3,8.7c-1.7,1.3,3.5,2.8,9.7,3.5c6.2,0.7,8.6,2.5,8.6,2.5s1.1-1.2,1.2-3.8c0.1-2.6-1.6-21.6-1.6-21.6
		s6.5,1.7,10.4-0.4c0,0,1.8,0.9,3.4-1.7c1.7-2.6-1.2-5.4-1.2-5.4s-2.6,2.6-9.8-0.8C165.4,157.2,162.7,154.1,160.5,154.2z"/>
	<path class="st14" d="M125.1,223h-1.4v2l1.4,3.2c0,0,1.9,0.4,2,0.4s1.7-0.4,1.7-0.4l0.5-0.8C129.3,227.4,124.1,225.4,125.1,223z"/>
	<path class="st17" d="M169.6,224.9l-2.1,4.7l9,4.3l7.1,0.2c0,0,0.6-1.7-1.8-2.5l-1.9-0.4c0,0-2.5-4.5-2.7-6.6c0,0-2.4,0.5-2.7,2.2
		C174.4,226.9,171.1,228.6,169.6,224.9z"/>
	<path class="st17" d="M124.1,222.6l-0.7,0.6l-3.2,2.6l7.3,9.7c0,0,4.1,1.8,6,0c0,0,1.2-1.2-1.4-2.1c0,0-2,0.4-2-1.7
		c0-2,0.5-4.1,1.2-4.6c0,0-1.8-0.6-2.2-0.1c-0.4,0.4-0.7,0.8-0.9,1.3C128.1,228.3,123.8,226.6,124.1,222.6z"/>
	<path class="st10" d="M160.1,148.1c-0.1,0.6-0.3,1.2-0.5,1.8c1.3,3.1,4.8,4.6,7.9,3.4c0.3-0.3,0.6-0.6,1-0.9
		C168.5,152.3,161,143.8,160.1,148.1z"/>
	<path class="st10" d="M159.5,163.9c0,0,3.7,4.8,9,5"/>
	<g class="st18">
		<path d="M181.4,168.6c-0.1,0-0.1,0-0.2-0.1c-0.1,0.1-0.2,0.1-0.3,0.2C181,168.7,181.2,168.7,181.4,168.6z"/>
		<path d="M182.6,161.9c-0.1-0.2-0.3-0.3-0.4-0.5c0,0-0.8,0.8-2.7,0.9C180.6,162.5,181.7,162.3,182.6,161.9z"/>
		<path d="M170.8,168.9l0,0.3c1.6,0.3,3.1,0.4,4.7,0.4C173.9,169.5,172.3,169.3,170.8,168.9z"/>
		<path d="M162.6,191.8c-6.1-0.7-11.3-2.2-9.7-3.5s3.3-8.7,3.3-8.7s0,0,0,0c0.1-0.2,0.1-0.4,0-0.6c-2.6-5.7-2.2-15.9-2.2-15.9
			s-0.4-5.1,1.3-7c1.2-1.4,4.1-1.7,5.5-1.8c-0.1,0-0.3,0-0.4,0c0,0-4.6-0.1-6.3,1.8c-1.7,1.9-1.3,7-1.3,7s-0.3,10.2,2.2,15.9
			c0.1,0.2,0.1,0.4,0,0.6c0,0.1,0,0,0,0s-1.6,7.4-3.3,8.7c-1.7,1.3,3.5,2.8,9.7,3.5s8.6,2.5,8.6,2.5c0.1-0.1,0.2-0.3,0.3-0.5
			C169.2,193.3,166.7,192.3,162.6,191.8z"/>
	</g>
	<circle class="st15" cx="165.6" cy="147.3" r="6.1"/>
	<path class="st10" d="M174.3,144.5c-0.5,1.3-2,1.8-3.4,2.1c-1.9,0.5-4,0.9-5.8,0.2c-0.2-0.1-0.5-0.2-0.8-0.2
		c-0.2,0.1-0.4,0.2-0.5,0.4c-2,2.9-1.7,6.7-2.2,10.1c-0.2,1.1-0.4,2.2-1.2,3c-1.4,1.6-4.1,1.5-5.4,3.1c-0.9,1.1-0.9,2.6-0.9,4
		c0,1.5,0,3,0,4.4c0,1-0.1,2-0.5,2.8c-0.7,1.5-2.4,2.2-3.9,2.7c-1,0.4-1.9,0.7-3,0.6c-1-0.1-2.1-0.8-2.2-1.8
		c-0.2-1.4,1.3-2.4,2.2-3.4c1.6-1.6,2.2-3.9,2.3-6.2c0.1-0.9-0.1-1.8-0.4-2.7c-0.4-0.9-1-1.6-1.4-2.5c-1.2-2.7,0.3-5.8,2-8.1
		c1.8-2.3,3.9-4.6,4.3-7.5c0-0.6,0.1-1.3,0.3-1.9c0.3-0.8,0.9-3.2,1.6-3.7c1.1-0.9,2.5-1.4,3.9-1.6c1.1-0.2,2.2-0.1,3.3-0.3
		c1.3-0.2,2.4-0.8,3.7-1.1c2.7-0.5,5.7,2.7,6.9,5.2C173.8,143.2,174.6,143.7,174.3,144.5z"/>
	<path class="st19" d="M174.3,144.3c-0.5,1.3-2,1.8-3.4,2.1c-1.9,0.5-4,0.9-5.8,0.2c-0.2-0.1-0.5-0.2-0.8-0.2
		c-0.2,0.1-0.4,0.2-0.5,0.4c-2,2.9-1.7,6.7-2.2,10.1c-0.2,1.1-0.4,2.2-1.2,3c-1.4,1.6-4.1,1.5-5.4,3.1c-0.9,1.1-0.9,2.6-0.9,4
		c0,1.5,0,3,0,4.4c0,1-0.1,2-0.5,2.8c-0.7,1.5-2.4,2.2-3.9,2.7c-1,0.4-1.9,0.7-3,0.6c-1-0.1-2.1-0.8-2.2-1.8
		c-0.2-1.4,1.3-2.4,2.2-3.4c1.6-1.6,2.2-3.9,2.3-6.2c0.1-0.9-0.1-1.8-0.4-2.7c-0.4-0.9-1-1.6-1.4-2.5c-1.2-2.7,0.3-5.8,2-8.1
		c1.8-2.3,3.9-4.6,4.3-7.5c0-0.6,0.1-1.3,0.3-1.9c0.3-0.8,0.9-3.2,1.6-3.7c1.1-0.9,2.5-1.4,3.9-1.6c1.1-0.2,2.2-0.1,3.3-0.3
		c1.3-0.2,2.4-0.8,3.7-1.1c2.7-0.5,5.7,2.7,6.9,5.2C173.8,142.9,174.6,143.5,174.3,144.3z"/>
	<path class="st20" d="M194.2,132.5h102.2v102.2H194.2V132.5z"/>
	<path d="M221.1,217.9l7.8-4.7c1.5,2.7,2.9,4.9,6.2,4.9c3.2,0,5.1-1.2,5.1-6v-32.7h9.6v32.8c0,9.9-5.8,14.5-14.3,14.5
		C227.8,226.6,223.3,222.7,221.1,217.9 M255,216.8l7.8-4.5c2.1,3.4,4.7,5.8,9.5,5.8c4,0,6.5-2,6.5-4.7c0-3.3-2.6-4.5-7-6.4l-2.4-1
		c-6.9-2.9-11.5-6.7-11.5-14.5c0-7.2,5.5-12.7,14.1-12.7c6.1,0,10.5,2.1,13.7,7.7l-7.5,4.8c-1.6-3-3.4-4.1-6.2-4.1
		c-2.8,0-4.6,1.8-4.6,4.1c0,2.9,1.8,4,5.9,5.8l2.4,1c8.2,3.5,12.8,7.1,12.8,15.1c0,8.6-6.8,13.4-15.9,13.4
		C263.6,226.6,257.8,222.3,255,216.8"/>
	
		<linearGradient id="SVGID_1_" gradientUnits="userSpaceOnUse" x1="397.2793" y1="439.1321" x2="397.2793" y2="570.6064" gradientTransform="matrix(1 0 0 -1 -84.99 736.93)">
		<stop  offset="0" style="stop-color:#808080;stop-opacity:0.25"/>
		<stop  offset="0.54" style="stop-color:#808080;stop-opacity:0.12"/>
		<stop  offset="1" style="stop-color:#808080;stop-opacity:0.1"/>
	</linearGradient>
	<path class="st21" d="M341.2,291.4c0,0-4,0.3-6.5-4c-0.5-0.9-1-1.7-1.7-2.4c-0.8-1.3-1.2-2.8-1.2-4.3c0.1-3.2-3.2-20.5-3.2-20.5
		s0.4-6.6-2.9-10.7c-2.2-2.7-5.3-10.5-7.2-15.5c0.1,0.1,0.3,0.2,0.4,0.2l-0.1-0.4h0.1l-1-5.4c-1.4-1.6-2.6-3.4-3.6-5.4l0.2,0
		l2.9-0.6c0,0,4.7-6.7,5-10.1h0.4h0.5c4.4,0,8.8,0.2,13.1,0.7l0,0c0,0,0-0.1-0.1-0.2l0,0c-0.2-0.7-0.3-1.3-0.4-2h0.3l2.7-0.2
		c0,0,9.4-10.5,5.9-12.4c-3.4-1.9-7,8.7-7,8.7L337,207l-0.3,0.1c0,0,0.1-0.1,0.1-0.1c0,0-15.3-0.7-17.6-4.4c0,0-6.7-5.4-7-8.9
		c-0.1-1.5-1-2.8-2.4-3.4c-0.8-0.4-1.8-0.6-2.7-0.5l-3.2,0.2l0.2,0.4H304c-0.2-0.5-0.4-0.9-0.5-1.4h0.1c0-0.1,0-0.2-0.1-0.3
		c4-0.9,6.5-4.9,5.5-8.9c0-0.1,0-0.1-0.1-0.2c0.3,0,0.6,0,0.9,0c1.2-0.2,2-1.4,2-2.6c0-0.1,0-0.2,0-0.2c0,0,0,0,0,0
		c0-1.2-0.6-2.3-1.5-3.1c-0.6-0.5-1.4-0.9-1.9-1.5c-0.7-0.7-1.1-1.6-1.6-2.4c-0.9-1.4-2.2-2.4-3.7-2.9c-1.1-0.4-2.5-0.4-3.4,0.4
		c-0.5,0.4-0.7,1-1.2,1.4c-0.7,0.5-1.7,0.4-2.6,0.5c-1.6,0.3-3,1.3-3.7,2.8c-0.4,0.9-0.6,1.9-0.6,3c0,0.7,0.1,1.4,0.2,2.1
		c0.2,0.7,0.4,1.3,0.6,2c0.4,1.4,0.5,2.9,0.9,4.2c0.3,1,0.9,1.9,1.7,2.6l-0.1,0.6c-0.1,0-2.2,0.5-3.7,3.7c-1.2,2.6-5.1,5.2-6.9,6.2
		c-0.7,0.4-1.1,1.1-1.3,1.8c-0.2,0.8-0.2,1.5-0.2,2.3c0,1.7,0.3,4,1.6,6.9c3,6.6,5.2,9.5,5.2,9.5s0.2,2,0.2,4.2c0,1.6-0.1,3.2-0.5,4
		c-0.3,0.7-0.4,2.4-0.4,4.3c0,3.7,0.4,8.6,0.4,8.6s1.1,0.2,2.7,0.4l1,17.8c0.1,2.2-0.6,4.3-1.9,6c-0.7,0.9-1.5,1.7-2.4,2.3
		c-2.9,2.1-9.1,23.8-9.1,23.8s0.3,0,0.8,0.1l-1.9,5.3c0,0,7.6,5.8,12.2,4.2c0.5-0.2,1-0.2,1.6-0.2c0.9,0,2.9-0.7,1.8-1.7
		c-2.1-1.9-4.1-4-5.9-6.2c0.1,0.1,0.3,0.2,0.4,0.3v0l0.1,0c0,0,0-0.2,0.1-0.6l-0.1,0c0.1-1.4,0.6-5,1.5-5.5
		c1.1-0.6,9.2-16.6,9.2-16.6l8.1-20.9c0,0,6.5,11.1,12,13.1v4.7c0,0,3,13.8,4.1,15.3c1.1,1.5,0,7.6,0,7.6c0.2,0.2,0.5,0.5,0.7,0.7
		l-0.9,5c0,0,6.3-0.3,17.1,3C340.5,295.3,344.6,293.6,341.2,291.4z M315.9,219.4l-1.3,0.3l-0.3,0.1c0-0.2,0-0.3,0-0.3
		c-0.3,0.1-0.6,0.2-1,0.2c-0.5-1.5-0.7-3.1-0.8-4.6c-0.5-1.9-0.7-3.8-0.8-5.7c0-1,0.2-1.9,0.5-2.4l0.4,0l0.3,0.3l0,0l0.2,0.1l0,0
		l0.2,0.1l0,0l0.2,0.2l0,0l0.2,0.2l0,0l0.2,0.2l0,0l0.2,0.2l0,0l0.2,0.2l0.1,0l0.2,0.2l0.1,0l0.2,0.2l0,0l0.3,0.2l0.1,0l0.3,0.2h0
		l0.3,0.2l0.1,0l0.3,0.2l0.1,0l0.3,0.2l0.1,0l0.3,0.2l0.1,0l0.3,0.2h0l0.3,0.2l0.1,0l0.3,0.2l0.1,0l0.3,0.1l0.1,0l0.3,0.1l0.1,0
		l0.4,0.1l0,0C317,213.8,315.9,219.4,315.9,219.4z"/>
	<path class="st22" d="M282,284.7l-2.6,7.1c0,0,7,5.4,11.5,4.2c0.7-0.2,1.4-0.3,2.1-0.3c0.9-0.1,2.6-0.8,1.6-1.6
		c-3.2-2.8-7.5-8.1-7.5-8.1L282,284.7z"/>
	<path class="st22" d="M324.4,284l-1.2,6.9c0,0,6.2-0.3,16.7,3c0,0,4-1.7,0.7-3.9c0,0-3.9,0.3-6.3-3.9c-2.4-4.2-3.9-3.6-3.9-3.6
		L324.4,284z"/>
	<path class="st23" d="M292.4,234.3l1.2,20.8c0.1,2.2-0.6,4.4-2.1,6.1c-0.7,0.8-1.4,1.5-2.2,2.1c-2.8,2-8.9,23.2-8.9,23.2
		s6.9,0.4,8.7,1.7c0,0,0.4-5.4,1.5-5.9s9-16.3,9-16.3l7.9-20.4c0,0,6.3,10.9,11.7,12.8v4.6c0,0,3,13.4,4,14.9c1.1,1.5,0,7.4,0,7.4
		s3.1,3.9,10.2-0.3c0,0-2.3-2.6-2.1-5.6c0.1-3.1-3.1-20-3.1-20s0.4-6.4-2.8-10.5c-3.2-4-8.5-19.5-8.5-19.5l-3.7-8L292.4,234.3z"/>
	<g class="st18">
		<path d="M281.8,286.6c0,0,6-21.2,8.9-23.2c0.9-0.6,1.6-1.4,2.3-2.2c1.4-1.7,2.1-3.8,1.9-6l-1.2-20.8l19.8-12.2l-0.3-0.6
			l-20.7,12.8l1.2,20.8c0.1,2.2-0.6,4.3-1.9,6c-0.7,0.8-1.5,1.6-2.3,2.2c-2.8,2-8.9,23.2-8.9,23.2s6.9,0.4,8.7,1.7
			c0,0,0-0.2,0.1-0.5C286.7,286.9,281.8,286.6,281.8,286.6z"/>
		<path d="M324.6,285.4c0,0,1.1-5.9,0-7.4c-1.1-1.5-4-14.9-4-14.9v-4.6c-5.4-1.9-11.7-12.8-11.7-12.8l-0.5,1.2
			c1.8,2.9,6.7,10.1,10.9,11.5v4.6c0,0,3,13.4,4,14.9c1.1,1.5,0,7.4,0,7.4s1.5,1.9,4.8,1.6C325.7,286.8,324.6,285.4,324.6,285.4z"/>
	</g>
	<path class="st24" d="M338.6,211l-2.6,0.2l-1.4,0.1v-3.4l1.8-0.3l1.1-0.2c0,0,3.5-10.3,6.9-8.5C347.8,200.8,338.6,211,338.6,211z"
		/>
	<path class="st24" d="M296.3,183.3c0,0-1.7,6.7-2.3,10.9c-0.5,4.2,12.5,0.8,12.5,0.8s-5-6-2.1-9.3L296.3,183.3z"/>
	<path class="st14" d="M310.4,211.3l0.3,2.6l-4.2-0.3l-4.2-3.6l-4.2-11.7l-2.7-4.2l-2-2.6l0.8-3.1c0,0,0.4,0.3,1,0.8
		c2,1.6,6.8,4.8,10.3,3.9c0.2,0,0.3-0.1,0.5-0.2l5.2,9L310.4,211.3z"/>
	<path class="st10" d="M295.4,187.6c0,0-2.1,0.4-3.6,3.6c-1.1,2.5-5,5-6.7,6.1c-0.7,0.4-1.1,1.1-1.3,1.8c-0.3,1.5-0.5,4.4,1.4,8.5
		c3,6.4,5.1,9.3,5.1,9.3s0.5,6.4-0.3,8.3c-0.8,1.9,0,12.2,0,12.2s14.1,2.7,18.8,0c4.7-2.7,4-13,4-13s4.4,9.4,6,9.7l-0.9-5.2
		c0,0-5.2-5.6-5.5-12.9c0,0-1.6-6.6-0.3-8.3c0,0,22.7,1.9,24,0.3c0,0-14.9-0.7-17.2-4.3c0,0-6.6-5.2-6.9-8.7c-0.1-1.3-0.8-2.5-2-3.2
		c-0.9-0.5-2-0.8-3-0.7l-3,0.2c0,0,5.2,9.3,5,10.5c-0.3,1.2,0.3,11,0.3,11s-6.1-13-8.7-14.5c-2.7-1.5-5.8-7.5-5.8-7.5L295.4,187.6"
		/>
	<path class="st10" d="M310.4,211.3l0.3,2.6l-4.2-0.3l-4.2-3.6l-4.2-11.7l-2.7-4.2l-2-2.6l0.8-3.1c0,0,0.4,0.3,1,0.8l-0.2,1.1
		c0,0,3.1,6.1,5.8,7.5c2.7,1.5,8.7,14.5,8.7,14.5s-0.5-9.8-0.3-11c0.2-0.8-2.2-5.3-3.7-8.2c0.2,0,0.3-0.1,0.5-0.2l5.2,9L310.4,211.3
		z"/>
	<path class="st10" d="M336,211.2l-1.4,0.1v-3.4l1.8-0.3C335.8,208.4,335.8,209.9,336,211.2z"/>
	<path class="st23" d="M295.4,187.2c0,0-2.1,0.4-3.6,3.6c-1.1,2.5-5,5-6.7,6.1c-0.7,0.4-1.1,1.1-1.3,1.8c-0.3,1.5-0.5,4.4,1.4,8.5
		c3,6.4,5.1,9.3,5.1,9.3s0.5,6.4-0.3,8.3c-0.8,1.9,0,12.2,0,12.2s14.1,2.7,18.8,0c4.7-2.7,4-13,4-13s4.4,9.4,6,9.7l-0.9-5.2
		c0,0-5.2-5.6-5.5-12.9c0,0-1.6-6.6-0.3-8.3c0,0,5.2,5.6,11.1,5.5c4.3,0,8.6,0.2,12.9,0.7c0,0-1.3-4.3,0-5.9c0,0-14.9-0.7-17.2-4.3
		c0,0-6.6-5.2-6.9-8.7c-0.1-1.3-0.8-2.5-2-3.2c-0.9-0.5-2-0.8-3-0.7l-3,0.2c0,0,5.2,9.3,5,10.5c-0.3,1.2,0.3,11,0.3,11
		s-6.1-13-8.7-14.5c-2.7-1.5-5.8-7.5-5.8-7.5L295.4,187.2"/>
	<path class="st10" d="M292.4,201.3c0,0,3.2,10.9,5.1,12.2c1.9,1.3,13.3,8.2,16.7,6.6c0,0,0.8,4-0.4,5c0,0-12.5-0.5-12.6-0.5
		c0,0-8.2-1.1-9.5-5.1c-1.3-4-3-10.9-3-10.9L292.4,201.3z"/>
	<ellipse class="st25" cx="309.6" cy="212.9" rx="0.5" ry="0.7"/>
	<ellipse class="st25" cx="311" cy="217.6" rx="0.5" ry="0.7"/>
	<g class="st18">
		<path d="M291,236.9c0,0-0.8-10.3,0-12.2s0.3-8.3,0.3-8.3s-2.1-2.8-5.1-9.3c-1.9-4.1-1.7-7-1.4-8.5c0.2-0.8,0.6-1.4,1.3-1.8
			c1.7-1,5.5-3.6,6.7-6.1c0.8-1.8,1.9-2.7,2.6-3.2l0.1-0.3c0,0-2.1,0.4-3.6,3.6c-1.1,2.5-5,5-6.7,6.1c-0.7,0.4-1.1,1.1-1.3,1.8
			c-0.3,1.5-0.5,4.4,1.4,8.5c3,6.4,5.1,9.3,5.1,9.3s0.5,6.4-0.3,8.3c-0.8,1.9,0,12.2,0,12.2s10.1,1.9,16,0.9
			C300,238.6,291,236.9,291,236.9z"/>
		<path d="M309.1,201.3c-0.2,0.8,0,5.7,0.2,8.7c0.6,1.3,1.1,2.2,1.1,2.2s-0.5-9.8-0.3-11c0.3-1.2-4.5-9.6-4.9-10.4l-1,0.1
			C304.1,190.8,309.4,200.1,309.1,201.3z"/>
		<path d="M324.3,212.6c-5.9,0.1-11.1-5.5-11.1-5.5c-0.2,0.2-0.3,0.5-0.3,0.7c1.6,1.4,5.8,5,10.5,4.9c4.3,0,8.6,0.2,12.9,0.7
			c0,0,0-0.1-0.1-0.2C332.2,212.7,328.2,212.6,324.3,212.6z"/>
		<path d="M313.8,223.9c0,0,0.1,0.8,0,2.1c1.4,2.8,3.9,7.5,5.1,7.7l-0.2-1.1C316.7,230.1,313.8,223.9,313.8,223.9z"/>
	</g>
	<path class="st24" d="M317.5,222.5l-2.9,0.6l-2.3,0.5l1.2-3.4l0.8-0.2l1.3-0.3c0,0,1.9-9.4,5.6-8.7
		C325.2,211.6,317.5,222.5,317.5,222.5z"/>
	<path class="st10" d="M314.7,223.1l-2.3,0.5l1.2-3.4l0.8-0.2C314.7,221.1,314.8,222.1,314.7,223.1z"/>
	<path class="st23" d="M292.4,201c0,0,3.2,10.9,5.1,12.2c1.9,1.3,13.3,8.2,16.7,6.6c0,0,0.8,4-0.4,5c0,0-12.5-0.5-12.6-0.5
		c0,0-8.2-1.1-9.5-5.1c-1.3-4-3-10.9-3-10.9L292.4,201z"/>
	<path class="st10" d="M296.5,183.6c0,0-0.3,1.1-0.6,2.6c1.5,2.9,4.8,4.4,8,3.7c-0.3-1.4-0.3-2.8,0.7-3.9L296.5,183.6z"/>
	<circle class="st24" cx="302.1" cy="182.5" r="7.3"/>
	<path class="st10" d="M308.4,180.5c0.5,0.1,1.1,0.2,1.6,0.1c1.1-0.3,2-1.3,2-2.5c0-1.2-0.6-2.3-1.5-3c-0.6-0.5-1.3-0.9-1.9-1.4
		c-0.7-0.7-1-1.6-1.6-2.4c-0.9-1.3-2.1-2.3-3.6-2.8c-1.1-0.4-2.5-0.4-3.3,0.4c-0.4,0.4-0.7,1-1.2,1.4c-0.7,0.5-1.7,0.4-2.5,0.5
		c-1.6,0.2-3,1.3-3.7,2.7c-0.7,1.5-0.8,3.1-0.4,4.7c0.2,0.7,0.4,1.3,0.6,1.9c0.4,1.4,0.5,2.8,0.9,4.1c0.4,1.3,1.3,2.7,2.7,3.1
		c-0.1-1.5,0.2-3,0.9-4.4c0.1-0.3,0.3-0.5,0.6-0.7c0.2-0.1,0.5-0.1,0.7,0c1.7,0.3,3.4-0.1,4.9-1c0.5-0.3,1.3-1.4,1.9-1.5
		C306.2,179.5,307.7,180.3,308.4,180.5z"/>
	<path class="st26" d="M308.4,180.2c0.5,0.1,1.1,0.2,1.6,0.1c1.1-0.3,2-1.3,2-2.5c0-1.2-0.6-2.3-1.5-3c-0.6-0.5-1.3-0.9-1.9-1.4
		c-0.7-0.7-1-1.6-1.6-2.4c-0.9-1.3-2.1-2.3-3.6-2.8c-1.1-0.4-2.5-0.4-3.3,0.4c-0.4,0.4-0.7,1-1.2,1.4c-0.7,0.5-1.7,0.4-2.5,0.5
		c-1.6,0.2-3,1.3-3.7,2.7c-0.7,1.5-0.8,3.1-0.4,4.7c0.2,0.7,0.4,1.3,0.6,1.9c0.4,1.4,0.5,2.8,0.9,4.1c0.4,1.3,1.3,2.7,2.7,3.1
		c-0.1-1.5,0.2-3,0.9-4.4c0.1-0.3,0.3-0.5,0.6-0.7c0.2-0.1,0.5-0.1,0.7,0c1.7,0.3,3.4-0.1,4.9-1c0.5-0.3,1.3-1.4,1.9-1.5
		C306.2,179.2,307.7,180.1,308.4,180.2z"/>
	<path class="st27" d="M380.8,156.3l-5.9,66.3l-26.6,7.4l-26.5-7.4l-5.9-66.3H380.8z"/>
	<path class="st28" d="M348.3,224.3l21.5-6l5-56.7h-26.5V224.3z"/>
	<path class="st0" d="M336.8,178h11.5v-8.1h-20.4l0.2,2.2l2,22.4h18.2v-8.1h-10.8L336.8,178z M338.6,198.5h-8.2l1.1,12.8l16.6,4.6h0
		v-8.5h0l-9.1-2.4L338.6,198.5z"/>
	<path d="M321.9,138.3h4.1v4.1h3.8v-4.1h4.1v12.4h-4.1v-4.1H326v4.1h-4.1V138.3z M339.3,142.4h-3.6v-4.1h11.4v4.1h-3.6v8.3h-4.1
		L339.3,142.4L339.3,142.4L339.3,142.4z M348.9,138.3h4.3l2.7,4.3l2.6-4.3h4.3v12.4h-4.1v-6.1l-2.8,4.4h-0.1l-2.8-4.4v6.1h-4V138.3z
		 M364.9,138.3h4.1v8.3h5.8v4.1h-9.9L364.9,138.3L364.9,138.3z"/>
	<path class="st29" d="M348.3,194.4h10l-0.9,10.5l-9.1,2.4v8.5l16.7-4.6l0.1-1.4l1.9-21.4l0.2-2.2h-18.9V194.4L348.3,194.4z
		 M348.3,178L348.3,178l19.6,0l0.2-1.8l0.4-4.1l0.2-2.2h-20.4V178L348.3,178z"/>
	
		<linearGradient id="SVGID_2_" gradientUnits="userSpaceOnUse" x1="198.1985" y1="409.9292" x2="198.1985" y2="563.4037" gradientTransform="matrix(1 0 0 -1 -84.99 736.93)">
		<stop  offset="0" style="stop-color:#808080;stop-opacity:0.25"/>
		<stop  offset="0.54" style="stop-color:#808080;stop-opacity:0.12"/>
		<stop  offset="1" style="stop-color:#808080;stop-opacity:0.1"/>
	</linearGradient>
	<path class="st30" d="M142.4,205.2c-0.8-2.2-1.8-5-2.7-5.7c-0.1,0-0.1-0.1-0.2-0.1h-0.1v-2.7l-2,0.3c-0.3-1-0.6-2-0.7-3
		c0.4,0.4,1,0.5,1.5,0.3c0-0.1-0.1-0.1-0.1-0.2l0.1,0c-0.3-0.6-0.5-1.2-0.5-1.9c0-0.6,0.1-1.2,0.3-1.8c0.4-1.3,1-2.4,1.3-3.7
		c0.2-0.8,0.3-1.7,0.3-2.5c0-1.4-0.3-2.9-1-4.1c-0.2-0.4-0.4-0.7-0.7-0.9c-0.3-0.2-0.6-0.3-0.9-0.4c-0.5-0.3-0.9-0.8-1.3-1.3
		c-1.5-1.8-3.4-3.1-5.6-3.7c-0.6-0.2-1.2-0.3-1.8-0.1c-1.4,0.4-1.9,2.1-3,3c-1,0.8-2.3,0.9-3.6,1.1c-1.3,0.2-2.4,0.8-3.3,1.7
		c-0.6,0.7-0.9,1.5-0.9,2.4c-0.1,0.8,0.3,1.6,1,2.1c0.8,0.5,1.7,0.6,2.6,0.4c-1.4,4.7,1.3,9.6,6,11c0.2,0.1,0.4,0.1,0.7,0.2l0.2,0.4
		l0,0c0.7,1.4,1.3,2.8,1.7,4.3c-1.9,1.1-3.9,2.1-5.2,2.2c0,0.5-0.1,1-0.3,1.4c-0.3,1.2-0.8,2.3-1.6,3.2c-1.7,1.9-9.3,16.2-9.3,16.2
		s-0.2,0.6-0.6,1.6c-4.7,0.6-12.4,1.4-14.5,1l-8.4-8c0,0-2.7,2.1-2.5,4.6l-1.5-1.4c0,0-8,6.1,4.6,10.1l19.2,2.2
		c-1.8,5.5-3.5,12-3,15.5h0.2c0.4,0,0.7,0,1.1-0.1l0,0.6l-1.9,33.2c0,0-0.4,6.1,5.3,8.9c0,0,7,20.4,4.2,22.8c0,0,0.3,0.2,0.9,0.4
		l-5.7,5c0,0-4.2,1.1-6.5,0.8c-0.8-0.1-1.6,0.4-1.8,1.2c0,0,0,0.1,0,0.1v0.1c0,0,0,0.1,0,0.1s0,0,0,0.1c0,0,0,0.1,0,0.1v0.1
		c0,0,0,0.1,0,0.1v0.1c0,0,0,0.1,0,0.1v0c0,0,0,0.1,0.1,0.1v0c0,0,0.1,0.1,0.1,0.1l0,0c0,0,0.1,0.1,0.1,0.1l0,0
		c0,0.1,0.1,0.1,0.1,0.1h0l0.2,0.1l0,0l0.2,0.1l0,0l0.2,0.1h0l0.2,0.1h0l0.3,0.1l0.1,0l0.3,0.1h0.1l0.3,0.1h0l0.4,0.1h0.1l0.4,0.1
		h0.1l0.4,0c0.9,0.1,2,0.1,3.4,0.1l0,0c0,0,0,0,0,0.1s0,0.1,0,0.1v0.1c0,0,0,0.1,0,0.1v0.1c0,0,0,0.1,0,0.1v0c0,0,0,0.1,0.1,0.1v0
		c0,0,0.1,0.1,0.1,0.1l0,0c0,0,0.1,0.1,0.1,0.1l0,0c0,0.1,0.1,0.1,0.1,0.1h0l0.2,0.1l0,0l0.2,0.1l0,0l0.2,0.1h0l0.2,0.1h0l0.3,0.1
		l0.1,0l0.3,0.1h0.1l0.3,0.1h0l0.4,0.1h0.1l0.4,0.1h0.1l0.4,0c5.5,0.4,23-0.8,23-0.8v-0.1l0,0v-0.1l0,0c0.2-0.8,1-5.6-2-9.1
		c0.1-0.1,0.2-0.2,0.3-0.3c0,0-2.3-4-1.1-5.3c1.3-1.3-6.2-23-6.2-23s-4-6.3-1.7-13.5s-0.2-15-0.2-15s5.5-1.6,5.6-8.4
		c0-0.2,0-0.4,0-0.6c0.1,0,0.2,0,0.3,0c0.1,0,0.2,0,0.2,0c0,0-1.1-3.8,0.2-6.5c1.3-2.7,4-0.2,6.5-11.4c1.8-8.1,3.4-17.4,4.2-21.9
		C143.2,209,143,207,142.4,205.2z M94.3,228.9l-1.9-1.8c0.6,0.3,1.3,0.5,2.1,0.8l7.2,0.9C98.6,229,95.5,229.2,94.3,228.9L94.3,228.9
		z"/>
	<path class="st15" d="M112.7,227.9c0,0-14.9,2.1-18,1.4l-8.3-7.9c0,0-7.9,6,4.6,9.9l23.2,2.7L112.7,227.9z"/>
	<path class="st31" d="M112.7,227.9c0,0-14.9,2.1-18,1.4l-8.3-7.9c0,0-7.9,6,4.6,9.9l23.2,2.7L112.7,227.9z"/>
	<path class="st32" d="M83.5,233.1l-32.2-8.9l-7.2-80.5H123l-7.2,80.5L83.5,233.1z"/>
	<path class="st33" d="M109.6,219l6.1-68.8H83.6v76L109.6,219z"/>
	<path class="st0" d="M60.6,180.1l0.9,9.9h22.1v-9.9H60.6z M58.8,160.1l0.9,9.9h23.9v-9.9L58.8,160.1L58.8,160.1z M83.6,205.7
		L83.6,205.7l-11-3l-0.7-7.9h-9.9l1.4,15.5l20.2,5.6h0L83.6,205.7z"/>
	<path d="M62.7,121.8h12v5h-7v5h7v5h-12V121.8z M77,121.8h12v4.3h-7v0.9h7v10H77v-4.6h7v-0.9h-7L77,121.8L77,121.8z M91.4,121.8h12
		v4.3h-7v0.9h7v10h-12v-4.6h7v-0.9h-7L91.4,121.8L91.4,121.8z"/>
	<path class="st29" d="M106.5,180.1l1.8-20H83.5v9.9h13.9l-0.9,10.1h-13v9.9h12.2l-1.2,12.8l-11,3V216l20.2-5.6l0.1-1.7l2.3-26
		L106.5,180.1L106.5,180.1z"/>
	<path class="st34" d="M118.1,311.9l-7.2,6.4c0,0-4.1,1-6.4,0.8c-2.3-0.2-3.3,3.5,2.1,3.9s22.6-0.8,22.6-0.8s1.7-6.6-3.3-10.3H118.1
		z"/>
	<path class="st31" d="M118.1,311.9l-7.2,6.4c0,0-4.1,1-6.4,0.8c-2.3-0.2-3.3,3.5,2.1,3.9s22.6-0.8,22.6-0.8s1.7-6.6-3.3-10.3H118.1
		z"/>
	<path class="st35" d="M129.3,319.4c0,0.8-0.1,1.5-0.3,2.2c0,0-17.2,1.2-22.6,0.8c-2.6-0.2-3.7-1.2-3.9-2.1
		c-0.2,1.1,0.7,2.5,3.9,2.7c5.4,0.4,22.6-0.8,22.6-0.8C129.2,321.3,129.3,320.4,129.3,319.4z"/>
	<path class="st15" d="M126.5,194.6c0,0,4.6,6.4,2.9,10.8c-1.7,4.3,8.7-4.6,8.7-4.6s-3.3-5.8-1.7-12L126.5,194.6z"/>
	<path class="st34" d="M125.3,314.4l-7.2,6.4c0,0-4.1,1-6.4,0.8c-2.3-0.2-3.3,3.5,2.1,3.9c5.4,0.4,22.6-0.8,22.6-0.8
		s1.7-6.6-3.3-10.3L125.3,314.4z"/>
	<path class="st16" d="M127.4,312.9c-1.1,1.3-2.6,1.8-4.2,1.9c-3.6,0.2-7.6-1.9-7.6-1.9c2.7-2.3-4.1-22.4-4.1-22.4
		c-5.6-2.7-5.2-8.7-5.2-8.7l1.8-32.6l0.5-8.2l5.8-3.5l4.6,3.5l4.3,3.3c0.3,1.1,0.5,2.1,0.5,3.2c0.5,7.6-5.5,9.4-5.5,9.4
		s2.5,7.7,0.2,14.7c-2.3,7,1.7,13.3,1.7,13.3s7.5,21.5,6.2,22.8S127.4,312.9,127.4,312.9z"/>
	<path class="st31" d="M127.4,312.9c-1.1,1.3-2.6,1.8-4.2,1.9c-3.6,0.2-7.6-1.9-7.6-1.9c2.7-2.3-4.1-22.4-4.1-22.4
		c-5.6-2.7-5.2-8.7-5.2-8.7l1.8-32.6l0.5-8.2l5.8-3.5l4.6,3.5l4.3,3.3c0.3,1.1,0.5,2.1,0.5,3.2c0.5,7.6-5.5,9.4-5.5,9.4
		s2.5,7.7,0.2,14.7c-2.3,7,1.7,13.3,1.7,13.3s7.5,21.5,6.2,22.8S127.4,312.9,127.4,312.9z"/>
	<path class="st16" d="M134.6,315.4c-3.5,4.3-11.8,0-11.8,0c0.2-0.2,0.3-0.3,0.4-0.6c1.5-4.1-5.1-23.9-5.1-23.9
		c-5.6-2.7-6.2-9.1-6.2-9.1l-1.5-33.2l-0.2-4.3l8.7-3.3l2.7-1l8.9,6.8c0.4,1.4,0.6,2.9,0.6,4.3c-0.1,6.7-5.5,8.3-5.5,8.3
		s2.5,7.7,0.2,14.7s1.7,13.2,1.7,13.2s7.5,21.5,6.2,22.8C132.4,311.5,134.6,315.4,134.6,315.4z"/>
	<path class="st10" d="M131,251.3c-1.8-0.3-5.4-2.4-7.3-3.6c-0.7-0.4-1.2-0.7-1.2-0.7s-1.9-5.2-6.8-1.2c-1.6,1.3-3.4,2.3-5.4,3.1
		c-0.7,0.3-1.5,0.5-2.3,0.6l0.5-8.2l5.8-3.5l4.6,3.5l2.7-1l8.9,6.8C130.9,248.3,131.1,249.8,131,251.3z"/>
	<path class="st36" d="M142.2,211.5c-0.7,4.4-2.3,13.6-4.1,21.5c-2.5,11-5.2,8.5-6.4,11.2c-1.2,2.7-0.2,6.4-0.2,6.4
		c-2.1,0.2-8.9-4.3-8.9-4.3s-1.9-5.2-6.8-1.2s-8.9,3.7-8.9,3.7c-1-6.8,6.6-25,6.6-25s7.5-14.1,9.1-15.9c0.8-0.9,1.3-2,1.6-3.1
		c0.1-0.5,0.2-0.9,0.3-1.4c2.7-0.2,9.3-4.8,9.3-4.8l5.2-0.8v2.7c0.1,0,0.1,0.1,0.2,0.1c0.9,0.6,1.9,3.4,2.7,5.6
		C142.4,207.8,142.6,209.7,142.2,211.5z"/>
	<path class="st15" d="M118.1,231l-2.7-0.3l-20.5-2.4c-12.4-3.9-4.6-9.9-4.6-9.9l8.3,7.9c2.4,0.5,11.8-0.6,16-1.2
		c1.3-0.2,2.1-0.3,2.1-0.3L118.1,231z"/>
	<path class="st10" d="M138.1,203c0,0-5.4-4.3-13.5,9.7c-8.1,14.1-9.9,11.8-9.9,11.8s1.7,6.2,0.8,7.5c0,0,5.6-0.4,7.7,0
		c2.1,0.4,14.9-15.7,14.9-15.7S144.8,207.2,138.1,203z"/>
	<path class="st10" d="M137.9,202.2c0,0-5.4-4.3-13.5,9.7s-9.9,11.8-9.9,11.8s6.4,7,8.5,7.5s14.9-15.7,14.9-15.7
		S144.6,206.3,137.9,202.2z"/>
	<path class="st10" d="M115.4,230.7c0.1-1.5-0.5-4.2-0.8-5.6c1.3-0.2,2.1-0.3,2.1-0.3l1.4,6.2L115.4,230.7z"/>
	<path class="st36" d="M138.1,202.6c0,0-5.4-4.3-13.5,9.7c-8.1,14.1-9.9,11.8-9.9,11.8s1.7,6.2,0.8,7.5c0,0,5.6-0.4,7.7,0
		c2.1,0.4,14.9-15.7,14.9-15.7S144.8,206.7,138.1,202.6z"/>
	<path class="st10" d="M136.7,189.2l-10,5.8c0.4,0.6,0.8,1.2,1.2,1.9c0.6,0.1,1.2,0.2,1.7,0.2c2.7,0,3.9-2.8,5.5-4.7
		C135,190.9,136.2,190.8,136.7,189.2z"/>
	<circle class="st15" cx="129.4" cy="187.9" r="8.7"/>
	<path class="st10" d="M118.4,180.9c0.9-0.9,2-1.5,3.3-1.7c1.2-0.3,2.5-0.3,3.5-1.1c1.1-0.9,1.6-2.5,2.9-2.9
		c0.6-0.1,1.2-0.1,1.8,0.1c2.1,0.6,4.1,1.9,5.5,3.7c0.3,0.5,0.8,0.9,1.3,1.3c0.3,0.1,0.6,0.3,0.9,0.4c0.3,0.2,0.6,0.6,0.7,0.9
		c1,2,1.2,4.2,0.6,6.3c-0.3,1.2-0.9,2.4-1.3,3.6c-0.4,1.2-0.5,2.6,0.2,3.8c-0.6,0.3-1.4-0.1-1.8-0.7c-0.4-0.6-0.5-1.3-0.7-2
		c-0.4-1.3-1.2-2.6-2.2-3.5c-0.7-0.6-1.8-1-2.3-0.2c-0.2,0.3-0.2,0.7-0.3,1c-0.3,0.6-1.2,0.7-1.7,0.4c-0.5-0.4-0.9-0.9-1.1-1.6
		c-0.9-2.9-2.3-4.7-5.4-3.5c-1.2,0.5-2.5,0.8-3.6,0C117.1,184.1,117.4,182.1,118.4,180.9z"/>
	<path class="st37" d="M118.4,180.7c0.9-0.9,2-1.5,3.3-1.7c1.2-0.3,2.5-0.3,3.5-1.1c1.1-0.9,1.6-2.5,2.9-2.9
		c0.6-0.1,1.2-0.1,1.8,0.1c2.1,0.6,4.1,1.9,5.5,3.7c0.3,0.5,0.8,0.9,1.3,1.3c0.3,0.1,0.6,0.3,0.9,0.4c0.3,0.2,0.6,0.6,0.7,0.9
		c1,2,1.2,4.2,0.6,6.3c-0.3,1.2-0.9,2.4-1.3,3.6c-0.4,1.2-0.5,2.6,0.2,3.8c-0.6,0.3-1.4-0.1-1.8-0.7c-0.4-0.6-0.5-1.3-0.7-2
		c-0.4-1.3-1.2-2.6-2.2-3.5c-0.7-0.6-1.8-1-2.3-0.2c-0.2,0.3-0.2,0.7-0.3,1c-0.3,0.6-1.2,0.7-1.7,0.4c-0.5-0.4-0.9-0.9-1.1-1.6
		c-0.9-2.9-2.3-4.7-5.4-3.5c-1.2,0.5-2.5,0.8-3.6,0C117.1,183.9,117.4,181.9,118.4,180.7z"/>
	<path class="st31" d="M139.1,200.4h-4.2c0,0-8.3,4.1-8.5,3.9c-0.1-0.1-1.4,0.1-2.2,0.3c0.1-0.5,0.2-0.9,0.3-1.4
		c2.7-0.2,9.3-4.8,9.3-4.8l5.2-0.8v2.7C139,200.4,139.1,200.4,139.1,200.4z"/>
	<path class="st35" d="M136.5,321.9c0,0.8-0.1,1.5-0.3,2.2c0,0-17.2,1.2-22.6,0.8c-2.6-0.2-3.7-1.2-3.9-2.1
		c-0.2,1.1,0.7,2.5,3.9,2.7c5.4,0.4,22.6-0.8,22.6-0.8C136.5,323.8,136.6,322.8,136.5,321.9z"/>
	<g class="st38">
		<path d="M113.8,244.8c-2.8,2.2-5.3,3.1-6.9,3.5c0,0.2,0,0.3,0.1,0.5c0,0,3.9,0.2,8.9-3.7c0.8-0.7,1.7-1.1,2.7-1.4
			C117.5,243.1,115.9,243.2,113.8,244.8z"/>
		<path d="M141.9,206c-0.7-2.2-1.8-4.9-2.7-5.6c-0.1,0-0.1-0.1-0.2-0.1c0,0-1.7,0.1-1.7,0.1c0.9,0.6,1.7,3.2,2.4,5.4
			c0.6,1.8,0.8,3.7,0.5,5.5c-0.7,4.4-2.3,13.6-4.1,21.5c-2.5,11-5.2,8.5-6.4,11.2c-1,2.2-0.5,5.1-0.3,6.1c0.7,0.3,1.4,0.5,2.2,0.5
			c0,0-1-3.7,0.2-6.4c1.2-2.7,3.9-0.2,6.4-11.2c1.8-7.9,3.4-17.1,4.1-21.5C142.7,209.7,142.5,207.8,141.9,206z"/>
	</g>
	<path class="st3" d="M166,244.7c0.7-0.6,1.2-1.4,1.5-2.2c0.2-0.9-0.2-2-1-2.3c-1-0.4-2,0.3-2.7,1c-0.8,0.7-1.7,1.4-2.7,1.3
		c1.1-1,1.5-2.4,1.3-3.8c0-0.3-0.2-0.6-0.3-0.8c-0.5-0.6-1.5-0.3-2.1,0.1c-2,1.4-2.6,4.2-2.6,6.6c-0.2-0.9,0-1.8,0-2.7
		c0-0.9-0.3-1.9-1-2.4c-0.5-0.3-1-0.4-1.6-0.4c-0.9,0-1.9,0.1-2.5,0.7c-0.8,0.8-0.6,2.2,0.1,3.1c0.7,0.9,1.7,1.5,2.6,2.1
		c0.8,0.4,1.4,1.1,1.9,1.8c0.1,0.1,0.1,0.2,0.1,0.3h5.7C163.7,246.5,164.9,245.7,166,244.7z"/>
	<path class="st3" d="M176.4,317.6c0.9-0.8,1.8-1.8,2-3c0.3-1.2-0.3-2.7-1.4-3.1c-1.3-0.5-2.7,0.4-3.7,1.3c-1,0.9-2.3,1.9-3.6,1.7
		c1.4-1.3,2.1-3.3,1.7-5.2c-0.1-0.4-0.2-0.7-0.5-1c-0.7-0.8-2-0.4-2.9,0.2c-2.7,1.9-3.5,5.6-3.5,9c-0.3-1.2,0-2.5-0.1-3.7
		c0-1.2-0.3-2.6-1.4-3.3c-0.7-0.3-1.4-0.5-2.1-0.5c-1.2,0-2.6,0.1-3.4,1c-1,1.1-0.8,3,0.1,4.2c0.9,1.2,2.3,2,3.6,2.9
		c1,0.6,1.9,1.4,2.5,2.4c0.1,0.1,0.1,0.3,0.2,0.4h7.7C173.4,320,175,318.9,176.4,317.6z"/>
</g>
</svg>
