<?xml version="1.0" encoding="utf-8"?>
<!-- Generator: Adobe Illustrator 24.0.1, SVG Export Plug-In . SVG Version: 6.00 Build 0)  -->
<svg version="1.1" id="Layer_1" xmlns="http://www.w3.org/2000/svg" xmlns:xlink="http://www.w3.org/1999/xlink" x="0px" y="0px"
	 viewBox="0 0 100 100" style="enable-background:new 0 0 100 100;" xml:space="preserve">
<style type="text/css">
	.st0{fill:#F2F2F2;}
	.st1{fill:#D32F2F;}
	.st2{fill:#FFFFFF;}
	.st3{fill:#592B49;}
	.st4{fill:#291221;}
	.st5{fill:#DA2286;}
	.st6{fill:#5E3C16;}
	.st7{fill:#472E11;}
	.st8{fill:#DF871E;}
	.st9{fill:#2A4997;}
	.st10{fill:#263364;}
	.st11{fill:#76C8DA;}
	.st12{fill:#151F45;}
	.st13{fill:#C9E1F6;}
	.st14{fill:#41B783;}
	.st15{fill:#34495E;}
	.st16{fill:#E64C18;}
	.st17{fill:#F36518;}
	.st18{fill:#2196F3;}
	.st19{fill:#FAFAFA;}
	.st20{fill:#37474F;}
	.st21{fill:#FFC107;}
	.st22{fill:#02C58E;}
	.st23{fill:#304A5F;}
	.st24{fill:#FEFEFE;}
	.st25{fill:#414042;}
</style>
<g>
	<path class="st25" d="M62.5,27.1c-2.3,0-4.2-1.9-4.2-4.2v-6.3H41.7v6.3c0,2.3-1.9,4.2-4.2,4.2s-4.2-1.9-4.2-4.2v-6.3
		c0-4.6,3.7-8.3,8.3-8.3h16.7c4.6,0,8.3,3.7,8.3,8.3v6.3C66.7,25.2,64.8,27.1,62.5,27.1z"/>
	<path class="st25" d="M53,64.1c-0.8,0.3-1.8,0.5-3,0.5s-2.2-0.2-3.2-0.6L0,48.4v31.8c0,6.3,5.1,11.5,11.5,11.5h77.1
		c6.3,0,11.5-5.1,11.5-11.5V48.4L53,64.1z"/>
	<path class="st25" d="M100,32.3v9.5L51,58.2c-0.3,0.1-0.7,0.2-1,0.2s-0.7,0-1-0.2L0,41.8v-9.5C0,26,5.1,20.8,11.5,20.8h77.1
		C94.9,20.8,100,26,100,32.3z"/>
</g>
</svg>
