<?xml version="1.0" encoding="utf-8"?>
<!-- Generator: Adobe Illustrator 24.0.1, SVG Export Plug-In . SVG Version: 6.00 Build 0)  -->
<svg version="1.1" id="Layer_1" xmlns="http://www.w3.org/2000/svg" xmlns:xlink="http://www.w3.org/1999/xlink" x="0px" y="0px"
	 viewBox="0 0 100 100" style="enable-background:new 0 0 100 100;" xml:space="preserve">
<style type="text/css">
	.st0{fill:#F2F2F2;}
	.st1{fill:#D32F2F;}
	.st2{fill:#FFFFFF;}
	.st3{fill:#592B49;}
	.st4{fill:#291221;}
	.st5{fill:#DA2286;}
	.st6{fill:#5E3C16;}
	.st7{fill:#472E11;}
	.st8{fill:#DF871E;}
	.st9{fill:#2A4997;}
	.st10{fill:#263364;}
	.st11{fill:#76C8DA;}
	.st12{fill:#151F45;}
	.st13{fill:#C9E1F6;}
	.st14{fill:#41B783;}
	.st15{fill:#34495E;}
	.st16{fill:#E64C18;}
	.st17{fill:#F36518;}
	.st18{fill:#2196F3;}
	.st19{fill:#FAFAFA;}
	.st20{fill:#37474F;}
	.st21{fill:#FFC107;}
	.st22{fill:#02C58E;}
	.st23{fill:#304A5F;}
	.st24{fill:#FEFEFE;}
	.st25{fill:#414042;}
</style>
<path class="st2" d="M50,2.1C22.4,2.1,0,20.4,0,42.9C0,63.1,17.8,80,41.8,83.2c1.6,0.3,3.8,1.1,4.4,2.5c0.5,1.3,0.3,3.2,0.2,4.5
	l-0.7,4.3c-0.2,1.3-1,5,4.4,2.7c5.4-2.3,28.8-17.1,39.3-29.2c7.2-7.9,10.6-16,10.6-25C100,20.4,77.6,2.1,50,2.1L50,2.1z M30.4,56.3
	h-9.9c-1.4,0-2.6-1.2-2.6-2.6v-20c0-1.4,1.2-2.6,2.6-2.6c1.5,0,2.6,1.2,2.6,2.6V51h7.3c1.5,0,2.6,1.2,2.6,2.6
	C33,55.1,31.9,56.3,30.4,56.3z M40.7,53.7c0,1.4-1.2,2.6-2.6,2.6c-1.4,0-2.6-1.2-2.6-2.6v-20c0-1.4,1.2-2.6,2.6-2.6
	c1.4,0,2.6,1.2,2.6,2.6L40.7,53.7z M64.6,53.7c0,1.1-0.7,2.1-1.8,2.5c-0.3,0.1-0.6,0.1-0.8,0.1c-0.9,0-1.6-0.4-2.1-1L49.7,41.4v12.3
	c0,1.4-1.2,2.6-2.6,2.6c-1.4,0-2.6-1.2-2.6-2.6v-20c0-1.1,0.7-2.1,1.8-2.5c0.3-0.1,0.6-0.1,0.8-0.1c0.8,0,1.6,0.4,2.1,1.1l10.3,14
	V33.7c0-1.4,1.2-2.6,2.6-2.6c1.4,0,2.6,1.2,2.6,2.6V53.7z M80.7,41c1.5,0,2.6,1.2,2.6,2.6c0,1.4-1.2,2.6-2.6,2.6h-7.3V51h7.3
	c1.5,0,2.6,1.2,2.6,2.6c0,1.4-1.2,2.6-2.6,2.6h-9.9c-1.4,0-2.6-1.2-2.6-2.6v-20c0-1.4,1.2-2.6,2.6-2.6h9.9c1.4,0,2.6,1.2,2.6,2.6
	c0,1.5-1.2,2.6-2.6,2.6h-7.3V41H80.7z"/>
</svg>
