<?xml version="1.0" encoding="utf-8"?>
<!-- Generator: Adobe Illustrator 24.0.1, SVG Export Plug-In . SVG Version: 6.00 Build 0)  -->
<svg version="1.1" id="Layer_1" xmlns="http://www.w3.org/2000/svg" xmlns:xlink="http://www.w3.org/1999/xlink" x="0px" y="0px"
	 viewBox="0 0 512 512" style="enable-background:new 0 0 512 512;" xml:space="preserve">
<style type="text/css">
	.st0{fill:#83D8F4;}
	.st1{fill:#57565C;}
	.st2{fill:#FFD54F;}
	.st3{fill:#FFC107;}
	.st4{fill:#455A64;}
	.st5{fill:#FFA000;}
	.st6{fill:#91DD5A;}
	.st7{fill:#7ED63F;}
	.st8{fill:#FCFCFC;}
	.st9{fill:#FFFFFF;}
	.st10{fill:#6E87F5;}
</style>
<g>
	<rect x="120" y="77" class="st9" width="287" height="411.2"/>
	<g>
		<path class="st10" d="M399.8,32.1H112.2C68,32.1,32.1,68,32.1,112.2v287.6c0,44.2,35.9,80.1,80.1,80.1H256c0-0.1,0-95.5,0-178.8
			h-53.7v-64.6H256v-47.3c0-30.3,14.1-77.3,76.6-77.3h67.8v63.4c0,0-45.1,0-51.6,0c-7,0-16.4,3.3-16.4,17.6V236h68.4l-6.5,65h-61.9
			c0,82.6,0,178.7,0,178.8h67.4c44.2,0,80.1-35.9,80.1-80.1V112.2C479.9,68,444,32.1,399.8,32.1z"/>
		<path d="M256,383c-5,0-9.1-4.1-9.1-9.1v-0.1c0,0,0,0,0,0s0,0,0,0c0-5,4.1-9.1,9.1-9.1s9.1,4.1,9.1,9.1c0,0,0,0,0,0s0,0,0,0
			s0,0,0,0c0,0,0,0,0,0C265.1,378.9,261,383,256,383z"/>
		<path d="M399.8,489h-67.4c-5,0-9.1-4.1-9.1-9.1V301.1c0-5,4.1-9.1,9.1-9.1h53.6l4.7-46.8h-58.4c-5,0-9.1-4.1-9.1-9.1v-43.3
			c0-19.7,13.7-26.7,25.5-26.7h42.5v-45.2h-58.7c-61,0-67.5,47.7-67.5,68.2v47.3c0,5-4.1,9.1-9.1,9.1h-44.6V292H256
			c5,0,9.1,4.1,9.1,9.1v35c0,5-4.1,9.1-9.1,9.1c-5,0-9.1-4.1-9.1-9.1v-25.9h-44.6c-5,0-9.1-4.1-9.1-9.1v-64.6c0-5,4.1-9.1,9.1-9.1
			h44.6v-38.2c0-12.2,2.2-35.6,16.6-55.4c10.3-14.2,30.7-31,69.1-31h67.8c5,0,9.1,4.1,9.1,9.1v63.4c0,5-4.1,9.1-9.1,9.1h-51.6
			c-5.3,0-7.3,2.3-7.3,8.5v34.1h59.3c2.6,0,5,1.1,6.8,3c1.7,1.9,2.6,4.5,2.3,7l-6.5,65c-0.5,4.6-4.4,8.2-9.1,8.2h-52.8v160.6h58.3
			c39.1,0,71-31.8,71-71V112.2c0-39.1-31.8-71-71-71H112.2c-39.1,0-71,31.8-71,71v287.6c0,39.1,31.8,71,71,71h134.7v-61.4
			c0-5,4.1-9.1,9.1-9.1s9.1,4.1,9.1,9.1v70.5c0,5-4.1,9.1-9.1,9.1H112.2C63,489,23,449,23,399.8V112.2C23,63,63,23,112.2,23h287.6
			C449,23,489,63,489,112.2v287.6C489,449,449,489,399.8,489z"/>
		<path d="M75.8,210.5c-5,0-9.1-4.1-9.1-9.1v-76c0-5,4.1-9.1,9.1-9.1s9.1,4.1,9.1,9.1v76C84.9,206.4,80.8,210.5,75.8,210.5z"/>
		<path d="M75.8,250.1c-5,0-9.1-4.1-9.1-9.1v-0.1c0-5,4.1-9.1,9.1-9.1s9.1,4.1,9.1,9.1v0.1C84.9,246,80.8,250.1,75.8,250.1z"/>
	</g>
</g>
</svg>
