<?xml version="1.0" encoding="utf-8"?>
<!-- Generator: Adobe Illustrator 24.0.1, SVG Export Plug-In . SVG Version: 6.00 Build 0)  -->
<svg version="1.1" id="Layer_1" xmlns="http://www.w3.org/2000/svg" xmlns:xlink="http://www.w3.org/1999/xlink" x="0px" y="0px"
	 viewBox="0 0 100 100" style="enable-background:new 0 0 100 100;" xml:space="preserve">
<style type="text/css">
	.st0{fill:#F2F2F2;}
	.st1{fill:#D32F2F;}
	.st2{fill:#FFFFFF;}
	.st3{fill:#592B49;}
	.st4{fill:#291221;}
	.st5{fill:#DA2286;}
	.st6{fill:#5E3C16;}
	.st7{fill:#472E11;}
	.st8{fill:#DF871E;}
	.st9{fill:#2A4997;}
	.st10{fill:#263364;}
	.st11{fill:#76C8DA;}
	.st12{fill:#151F45;}
	.st13{fill:#C9E1F6;}
	.st14{fill:#41B783;}
	.st15{fill:#34495E;}
	.st16{fill:#E64C18;}
	.st17{fill:#F36518;}
	.st18{fill:#2196F3;}
	.st19{fill:#FAFAFA;}
	.st20{fill:#37474F;}
	.st21{fill:#FFC107;}
	.st22{fill:#02C58E;}
	.st23{fill:#304A5F;}
	.st24{fill:#FEFEFE;}
	.st25{fill:#414042;}
</style>
<g>
	<circle class="st6" cx="50" cy="50" r="50"/>
	<path class="st7" d="M99.8,46.1L79.6,25.9h-9.2v8.5l4.7,4.7h-4.7v7.7l-21-21H39.1L20.4,74l25.9,25.9c1.2,0.1,2.5,0.1,3.7,0.1
		c27.6,0,50-22.4,50-50C100,48.7,99.9,47.4,99.8,46.1z"/>
	<g>
		<path class="st8" d="M68.7,74H58.1L53.9,63H34.7l-4,10.9H20.4l18.7-48.1h10.3L68.7,74z M50.8,54.9l-6.6-17.9l-6.5,17.9H50.8z"/>
		<path class="st8" d="M70.4,34.4v-8.5h9.2v8.5H70.4z M70.4,74V39.1h9.2V74L70.4,74L70.4,74z"/>
	</g>
</g>
</svg>
