<?xml version="1.0" encoding="utf-8"?>
<!-- Generator: Adobe Illustrator 24.0.1, SVG Export Plug-In . SVG Version: 6.00 Build 0)  -->
<svg version="1.1" id="Layer_1" xmlns="http://www.w3.org/2000/svg" xmlns:xlink="http://www.w3.org/1999/xlink" x="0px" y="0px"
	 viewBox="0 0 400 400" style="enable-background:new 0 0 400 400;" xml:space="preserve">
<style type="text/css">
	.st0{fill:#EBEBEB;}
	.st1{fill:#D6CED0;}
	.st2{fill:#3F3D56;}
	.st3{fill:#D32F2F;}
	.st4{fill:none;stroke:#3F3D56;stroke-width:0.4028;stroke-miterlimit:10;}
	.st5{fill:#FFB6B6;}
	.st6{fill:#2F2E41;}
	.st7{opacity:0.1;fill:#D32F2F;enable-background:new    ;}
	.st8{opacity:0.5;}
	.st9{fill:none;stroke:#535461;stroke-width:0.7767;stroke-miterlimit:10;}
	.st10{opacity:0.1;enable-background:new    ;}
	.st11{fill:#FFD037;}
	.st12{fill:#A8A8A8;}
	.st13{opacity:0.2;enable-background:new    ;}
	.st14{fill:#E6E6F0;}
	.st15{fill:#FDC2CC;}
	.st16{fill:#565171;}
	.st17{fill:#B45181;}
	.st18{opacity:0.1;}
	.st19{fill:#F569BC;}
	.st20{fill:#F7DF1E;}
	.st21{fill:url(#SVGID_1_);}
	.st22{fill:#4F4D59;}
	.st23{fill:#C48C96;}
	.st24{fill:#714B4F;}
	.st25{fill:#BA7855;}
	.st26{fill:#503F43;}
	.st27{fill:#E44D26;}
	.st28{fill:#F16529;}
	.st29{fill:#FFFFFF;}
	.st30{fill:url(#SVGID_2_);}
	.st31{opacity:5.000000e-02;enable-background:new    ;}
	.st32{fill:#264DE4;}
	.st33{fill:#2965F1;}
	.st34{fill:#47465A;}
	.st35{opacity:0.3;fill:#FFFFFF;enable-background:new    ;}
	.st36{fill:#E1A0A7;}
	.st37{fill:#8F5A6A;}
	.st38{opacity:5.000000e-02;}
	.st39{fill:#F2F2F2;}
	.st40{fill:#9F616A;}
	.st41{opacity:0.7;}
	.st42{fill:url(#SVGID_3_);}
	.st43{fill:#BDBDBD;}
	.st44{fill:#535461;}
	.st45{fill:url(#SVGID_4_);}
	.st46{fill:#E0E0E0;}
	.st47{fill:none;stroke:#D32F2F;stroke-width:0.8235;stroke-miterlimit:10;}
	.st48{fill:none;stroke:#FFFFFF;stroke-width:0.4118;stroke-miterlimit:10;}
	.st49{fill:url(#SVGID_5_);}
	.st50{opacity:0.6;fill:none;stroke:#535461;stroke-width:1.2353;stroke-miterlimit:10;enable-background:new    ;}
	.st51{fill:#4DB6AC;}
	.st52{opacity:0.3;fill:none;stroke:#535461;stroke-width:0.4118;stroke-miterlimit:10;enable-background:new    ;}
	.st53{fill:url(#SVGID_6_);}
	.st54{fill:#3AD29F;}
	.st55{fill:#4D8AF0;}
	.st56{fill:#F55F44;}
</style>
<circle class="st0" cx="200" cy="200" r="200"/>
<g>
	<path class="st2" d="M315,217.8l-4.3-3.6l0.4-0.5l0.4,0.3c-0.1-0.2-0.1-0.5,0-0.7c0.1-0.2,0.2-0.4,0.3-0.6c0.2-0.3,0.5-0.4,0.8-0.5
		c0.3-0.1,0.7-0.1,1,0c0.3,0.1,0.7,0.3,0.9,0.5c0.3,0.2,0.5,0.5,0.7,0.9c0.2,0.3,0.2,0.6,0.2,1c0,0.3-0.2,0.6-0.4,0.9
		c-0.1,0.2-0.3,0.3-0.5,0.4c-0.2,0.1-0.4,0.1-0.6,0.1l1.5,1.3L315,217.8z M312.7,215.1c0.3,0.3,0.7,0.5,1.1,0.5
		c0.3,0,0.6-0.1,0.8-0.3c0.2-0.2,0.3-0.5,0.2-0.8c-0.1-0.4-0.4-0.8-0.7-1c-0.3-0.3-0.7-0.5-1.1-0.5c-0.3,0-0.6,0.1-0.8,0.3
		c-0.2,0.2-0.3,0.6-0.2,0.9C312.1,214.5,312.3,214.8,312.7,215.1z"/>
	<path class="st2" d="M316.3,213.9l-0.7-2.5l-2.4-0.2l0.6-0.7l1.1,0.1c0.2,0,0.4,0.1,0.5,0.1c-0.1-0.2-0.1-0.4-0.1-0.5l-0.3-1.1
		l0.5-0.6l0.6,2.3l2.6,0.2l-0.5,0.6l-1.5-0.2l-0.4,0l0.5,1.8L316.3,213.9z"/>
	
		<rect x="301.7" y="223.1" transform="matrix(0.6435 -0.7654 0.7654 0.6435 -64.1162 312.9503)" class="st2" width="4.4" height="4.4"/>
	
		<rect x="306.2" y="217.7" transform="matrix(0.6435 -0.7654 0.7654 0.6435 -58.376 314.4972)" class="st2" width="4.4" height="4.4"/>
	<path class="st2" d="M315,217.8l-4.3-3.6l0.4-0.5l0.4,0.3c-0.1-0.2-0.1-0.5,0-0.7c0.1-0.2,0.2-0.4,0.3-0.6c0.2-0.3,0.5-0.4,0.8-0.5
		c0.3-0.1,0.7-0.1,1,0c0.3,0.1,0.7,0.3,0.9,0.5c0.3,0.2,0.5,0.5,0.7,0.9c0.2,0.3,0.2,0.6,0.2,1c0,0.3-0.2,0.6-0.4,0.9
		c-0.1,0.2-0.3,0.3-0.5,0.4c-0.2,0.1-0.4,0.1-0.6,0.1l1.5,1.3L315,217.8z M312.7,215.1c0.3,0.3,0.7,0.5,1.1,0.5
		c0.3,0,0.6-0.1,0.8-0.3c0.2-0.2,0.3-0.5,0.2-0.8c-0.1-0.4-0.4-0.8-0.7-1c-0.3-0.3-0.7-0.5-1.1-0.5c-0.3,0-0.6,0.1-0.8,0.3
		c-0.2,0.2-0.3,0.6-0.2,0.9C312.1,214.5,312.3,214.8,312.7,215.1z"/>
	<path class="st2" d="M316.3,213.9l-0.7-2.5l-2.4-0.2l0.6-0.7l1.1,0.1c0.2,0,0.4,0.1,0.5,0.1c-0.1-0.2-0.1-0.4-0.1-0.5l-0.3-1.1
		l0.5-0.6l0.6,2.3l2.6,0.2l-0.5,0.6l-1.5-0.2l-0.4,0l0.5,1.8L316.3,213.9z"/>
	
		<rect x="301.7" y="223.1" transform="matrix(0.6435 -0.7654 0.7654 0.6435 -64.1162 312.9503)" class="st2" width="4.4" height="4.4"/>
	
		<rect x="306.2" y="217.7" transform="matrix(0.6435 -0.7654 0.7654 0.6435 -58.376 314.4972)" class="st2" width="4.4" height="4.4"/>
	<rect y="321.5" class="st2" width="400" height="0.9"/>
	<circle class="st39" cx="212.6" cy="113.9" r="5"/>
	<path class="st39" d="M89,129c-0.1-4-2.6-7.5-6.3-8.9c5-2,7.4-7.6,5.3-12.6c-2-5-7.6-7.4-12.6-5.3s-7.4,7.6-5.3,12.6
		c1,2.5,3,4.5,5.6,5.4c-5,2-7.4,7.6-5.4,12.6c1,2.5,3,4.5,5.6,5.4c-5,2-7.4,7.6-5.3,12.6c2,5,7.6,7.4,12.6,5.3c5-2,7.4-7.6,5.3-12.6
		c-1-2.5-3-4.5-5.6-5.4C86.6,136.6,89,133,89,129z M70.3,111.2c-0.1-4.9,3.8-8.9,8.7-8.9c4.9-0.1,8.9,3.8,8.9,8.7
		c0.1,4.1-2.7,7.7-6.7,8.7c-1.3-0.3-2.7-0.2-4,0.1C73.2,118.8,70.3,115.3,70.3,111.2L70.3,111.2z M88.4,147c0.1,4.9-3.8,8.9-8.7,8.9
		c-4.9,0.1-8.9-3.8-8.9-8.7c-0.1-4.1,2.7-7.7,6.7-8.7c1.3,0.3,2.7,0.2,4-0.1C85.4,139.4,88.3,143,88.4,147z M81.4,137.7
		c-1.3-0.3-2.7-0.2-4,0.1c-4.7-1-7.8-5.7-6.7-10.5c0.7-3.3,3.2-5.9,6.5-6.7c1.3,0.3,2.7,0.2,4-0.1c4.7,1,7.8,5.7,6.7,10.5
		C87.2,134.3,84.7,136.9,81.4,137.7L81.4,137.7z"/>
	<polygon class="st3" points="46.7,165.1 39.5,165.1 39.5,249.9 39.5,257.1 46.7,257.1 85.6,257.1 85.6,249.9 46.7,249.9 	"/>
	<path class="st3" d="M111,165.1h-7.3v92.1h46.2v-92.1H111z M142.6,249.9H111v-77.5h31.6V249.9z"/>
	<path class="st3" d="M277.5,165.2h-38.9v92.1h46.2v-92.1H277.5z M277.5,250h-31.6v-77.5h31.6V250z"/>
	<polygon class="st3" points="206.3,211.1 200.3,211.1 200.3,218.4 206.3,218.4 206.3,250 174.7,250 174.7,172.5 213.6,172.5 
		213.6,165.2 174.7,165.2 167.4,165.2 167.4,172.5 167.4,250 167.4,257.3 174.7,257.3 206.3,257.3 213.6,257.3 213.6,250 
		213.6,218.4 219.6,218.4 219.6,211.1 213.6,211.1 	"/>
	<rect x="66.4" y="156.9" class="st2" width="2.3" height="0.8"/>
	<path class="st2" d="M250.7,157.7h-4.8v-0.8h4.8V157.7z M241.1,157.7h-4.8v-0.8h4.8V157.7z M231.6,157.7h-4.8v-0.8h4.8V157.7z
		 M222,157.7h-4.8v-0.8h4.8L222,157.7z M212.4,157.7h-4.8v-0.8h4.8L212.4,157.7z M202.8,157.7H198v-0.8h4.8L202.8,157.7z
		 M193.2,157.7h-4.8v-0.8h4.8L193.2,157.7z M183.7,157.7h-4.8v-0.8h4.8L183.7,157.7z M174.1,157.7h-4.8v-0.8h4.8L174.1,157.7z
		 M164.5,157.7h-4.8v-0.8h4.8L164.5,157.7z M154.9,157.7h-4.8v-0.8h4.8L154.9,157.7z M145.4,157.7h-4.8v-0.8h4.8L145.4,157.7z
		 M135.8,157.7H131v-0.8h4.8L135.8,157.7z M126.2,157.7h-4.8v-0.8h4.8L126.2,157.7z M116.6,157.7h-4.8v-0.8h4.8L116.6,157.7z
		 M107,157.7h-4.8v-0.8h4.8L107,157.7z M97.5,157.7h-4.8v-0.8h4.8L97.5,157.7z M87.9,157.7h-4.8v-0.8h4.8L87.9,157.7z M78.3,157.7
		h-4.8v-0.8h4.8L78.3,157.7z"/>
	<rect x="255.5" y="156.9" class="st2" width="2.3" height="0.8"/>
	<rect x="292.3" y="177.2" class="st2" width="0.8" height="2.3"/>
	<path class="st2" d="M293,238h-0.8v-4.9h0.8V238z M293,228.2h-0.8v-4.9h0.8V228.2z M293,218.5h-0.8v-4.9h0.8V218.5z M293,208.7
		h-0.8v-4.9h0.8V208.7z M293,199h-0.8v-4.9h0.8V199z M293,189.3h-0.8v-4.9h0.8V189.3z"/>
	<rect x="292.3" y="242.9" class="st2" width="0.8" height="2.3"/>
	<rect x="39.2" y="130.1" class="st39" width="0.8" height="162.2"/>
	<rect x="284.5" y="130" class="st39" width="0.8" height="162.2"/>
	<rect x="0.3" y="256.7" class="st39" width="323.6" height="0.8"/>
	<rect x="0.2" y="164.7" class="st39" width="323.6" height="0.8"/>
	<path class="st40" d="M348.5,126.2c0,0.5-0.1,1.1-0.3,1.6c-0.3,0.5-0.7,0.9-1.2,1.1l-3.6,2.4c-1,0.7-2.2,2-1.6,3
		c0.3,0.3,0.6,0.6,1,0.8c3.6,1.7,7.8,2.1,11.8,2c2.6,0,5.3-0.3,7.4-1.6c1-0.7,1.9-1.5,3.1-2c0.8-0.3,1.8-0.5,2-1.4
		c0.3-1.1-1.2-1.7-2.3-2.2c-2.3-0.9-3.8-3.1-4.6-5.5c-0.7-2.3-0.7-4.9-0.6-7.3c0.1-0.4,0-0.7-0.2-1c-0.2-0.2-0.5-0.3-0.8-0.3
		c-2.4-0.2-4.9-0.3-7.4-0.1c-0.9,0-1.8,0.2-2.6,0.7c-1.5,1-0.6,2.8-0.5,4.2C348.5,122.5,348.6,124.3,348.5,126.2z"/>
	<path class="st6" d="M363.9,77.6c-1.4,1.5-3.2,2.5-5.3,2.8c-3.5,0.5-0.8,6-0.8,6s-1-2,1-3.8C360.9,80.9,363.9,79.9,363.9,77.6z"/>
	<circle class="st6" cx="357.1" cy="87.6" r="4.3"/>
	<path class="st3" d="M362.2,91.8c-3.4-1.8-9.1-3.1-12.2-3l0.8-3c2.7,1.8,8.5,3.3,12.2,3L362.2,91.8z"/>
	<circle class="st6" cx="352.5" cy="104.2" r="15.6"/>
	<rect x="340.6" y="299.3" class="st40" width="7.2" height="12.3"/>
	<rect x="361.3" y="299.3" class="st40" width="7.2" height="12.3"/>
	<polygon class="st40" points="338.8,172.3 335.4,183.9 370.5,184.6 367.7,172.3 358.5,166.2 	"/>
	<circle class="st40" cx="351.1" cy="110.9" r="11.2"/>
	<path class="st40" d="M330.5,157.4c-0.8,2-1.2,4.1-1.1,6.3c0.1,2.5,0.9,5.7,0.4,7.9c-1.9,8.4-4.7,20.8-9.7,27.6
		c-1.2,1.6-3.5,2.5-5.2,3.7c-1.8,1.2-3.4,2.5-4.4,4.7c-0.7,1.7-0.7,3.7-0.7,5.6c0,1,0.1,2.2,1,2.9c0.4-0.2,0.6-0.5,0.6-1
		c0-0.4,0-0.9,0-1.3c0.2-0.8,0.7-1.5,1.4-1.8c4.1-2.5,8.5-4.8,10.7-9.2s3.8-8.4,6.8-12.2c0.8-1,1.6-2,2.3-3.1c1.1-2,2-4.1,2.6-6.3
		c1.2-4.6,1.7-9.5,2.1-14.2c0.2-2.4,0.2-5-1.7-6.6C334,158.9,331.9,159.1,330.5,157.4z"/>
	<path class="st40" d="M381.4,151.9c0.6,2.1,0.8,4.3,0.6,6.5c-0.2,2.7-1.1,5.3-0.7,8c1.4,10.2-0.1,20.8,0.7,31.1
		c0.2,2.4,1,5.1,1.1,7.5c0.1,2.4-0.1,5-1.4,7c-1,1.6-2.4,2.9-3.9,4.1c-0.8,0.7-1.8,1.4-2.8,1c-0.2-0.4-0.1-0.8,0.2-1.1
		c0.3-0.3,0.7-0.5,0.9-0.8c0.5-0.6,0.5-1.5,0.4-2.3c-0.3-4.7-1-9.6,0.3-14.2c1.3-4.6,0.5-9.5-0.8-14.1c-0.4-1.2-0.8-2.4-1.1-3.6
		c-0.5-2.1-0.6-4.4-0.7-6.6l-0.4-13.6c-0.1-2.3,0.1-5,2-6.3C377.7,153.4,380,153.6,381.4,151.9z"/>
	<path class="st6" d="M370.5,179.6c-2.3,1.3-4.6,2.5-7.1,3.2c-2.6,0.7-5.4,0.8-8.1,0.9c-3.3,0.3-6.6-0.1-9.6-1.4l-9.9-3.4
		c-7,16.9-9.8,35.6-6,53.5c1.4,6.5-0.1,13.3-0.1,19.9c0,2.4,0,4.7,0.3,7.1c0.2,1.8,0.5,3.6,0.8,5.4c1.5,11-1.2,22.3,0.5,33.3
		c0.2,1.5,2.1,2.3,3.5,2.8c0.7,0.2,1.5,0.4,2.2,0.5c3.9,0.6,7.8,1.1,11.6,0.8c0.9-0.1,2.1-0.4,2.4-1.3c0.2-0.7-0.2-1.6,0.2-2.2
		c2.5-4.1,0.6-9.8,0.9-14.6c0.7-12.8-0.2-25.7,1-38.4c0.2-2.4-0.1-4.6,0.1-7l0.2-1.7l0.5-5c0.3,7,0.6,13.9,0.8,20.9
		c0.1,2,0.2,4.1,0.8,6.1c0.3,1,0.8,2,1,3.1c0.2,1.1,0.4,2.3,0.4,3.5l1.2,30.9c0,1.1-0.1,2.2-0.2,3.3c-0.1,1.3-0.1,2.8,0.9,3.5
		c0.5,0.4,1.1,0.6,1.8,0.6c1.9,0.2,3.8-0.2,5.7-0.5c1.9-0.3,5.8-0.7,7.7-1c0.3,0,0.6-0.1,0.8-0.2c0.9-0.4,1.1-1.6,1-2.5
		s-0.3-1.9-0.1-2.9c3.8-11.9-0.8-24.9,0-37.3c0.8-11.1,0.7-22.2,0.6-33.3c-0.1-6.6-0.5-13-0.4-19.5c0.2-8,0.8-16.4-2.6-23.6
		C372.5,181.5,371.7,180.3,370.5,179.6z"/>
	<path class="st6" d="M348.8,307c0,0-7.4-3.6-8.7,0c-1.3,3.6-3.8,12-1,14.1l0,0c1.8,1.3,4.3,1.6,6.4,0.7c1.8-0.8,3.6-1.7,3.3-2.5
		C348.3,317.7,348.8,307,348.8,307z"/>
	<path class="st6" d="M360.3,307c0,0,7.4-3.6,8.7,0c1.3,3.6,3.8,12,1,14.1l0,0c-1.8,1.3-4.3,1.6-6.4,0.7c-1.8-0.8-3.6-1.7-3.3-2.5
		C360.8,317.7,360.3,307,360.3,307z"/>
	<path class="st6" d="M369.5,131.9c-10.7-0.2-21.4,0.2-32.1,1.2c-0.8,0-1.6,0.2-2.3,0.5c-0.6,0.4-1.1,0.8-1.6,1.4
		c-4.8,5.7-7.5,12.9-7.9,20.3c0,1,0,2,0.6,2.7c3,3.2,6.7,5.6,9.1,9.3c0.5,1,1.2,1.9,2,2.8c-0.4,2.6-0.5,5.3-0.2,8
		c1.6-2,3.9-3.4,6.3-4.2c2.4-0.8,5-1.1,7.5-1.4c3.7-0.4,7.7-0.8,11,0.9c2.6,1.4,4.5,3.9,7.2,5c0.4-2.3,0.6-4.6,0.6-6.9
		c0.1-3.2,2.5-5.6,3.8-8.6c0.3-0.9,0.8-1.7,1.3-2.5c1.3-2,3.4-3.3,5.6-4.1c2.2-0.8,4.6-1.1,7-1.4c1.1-1.5,0.7-3.4,0-5.1
		c-0.7-1.7-2-3.1-3.1-4.6c-2.1-2.9-3.6-6.2-5.9-9C376.3,133.6,373,132,369.5,131.9z"/>
	<path class="st6" d="M355.7,93.3c0,0-5.3,6.8-15.9,8.3c-10.6,1.5-2.3,18.1-2.3,18.1s-3-6,3-11.3
		C346.6,103.1,355.7,100.1,355.7,93.3z"/>
	<path class="st6" d="M355.7,93.3c0,0,3,10.6,7.6,12.1c4.5,1.5,2.3,17.4-5.3,18.9c0,0,6.4-8.7,2.6-15.5S354.5,96.7,355.7,93.3z"/>
	<path class="st6" d="M355.7,93.3c0,0-5.3,6.8-15.9,8.3c-10.6,1.5-2.3,18.1-2.3,18.1s-3-6,3-11.3
		C346.6,103.1,355.7,100.1,355.7,93.3z"/>
	<path class="st6" d="M355.7,93.3c0,0,3,10.6,7.6,12.1c4.5,1.5,2.3,17.4-5.3,18.9c0,0,6.4-8.7,2.6-15.5S354.5,96.7,355.7,93.3z"/>
	<path class="st2" d="M169.3,150.8v-5.6h0.6v0.5c0.1-0.2,0.3-0.3,0.5-0.5c0.2-0.1,0.4-0.2,0.7-0.2c0.3,0,0.6,0.1,0.9,0.3
		c0.3,0.2,0.5,0.4,0.6,0.8c0.1,0.3,0.2,0.7,0.2,1.1c0,0.4-0.1,0.8-0.2,1.1c-0.1,0.3-0.4,0.6-0.6,0.8c-0.3,0.2-0.6,0.3-0.9,0.3
		c-0.2,0-0.4,0-0.6-0.1c-0.2-0.1-0.3-0.2-0.4-0.4v2H169.3z M170,147.3c0,0.4,0.1,0.8,0.3,1.2c0.2,0.2,0.5,0.4,0.8,0.4
		c0.3,0,0.6-0.1,0.8-0.4c0.2-0.3,0.4-0.8,0.3-1.2c0-0.4-0.1-0.8-0.3-1.2c-0.2-0.2-0.5-0.4-0.8-0.4c-0.3,0-0.6,0.2-0.8,0.4
		C170,146.5,169.9,146.9,170,147.3L170,147.3z"/>
	<path class="st2" d="M173.2,149.3l1.5-2.1l-1.4-1.9h0.9l0.6,0.9c0.1,0.2,0.2,0.3,0.3,0.5c0.1-0.2,0.2-0.3,0.3-0.4l0.7-1h0.8
		l-1.4,1.9l1.5,2.1h-0.8l-0.8-1.3l-0.2-0.3l-1.1,1.6L173.2,149.3z"/>
	<rect x="147.2" y="145" class="st2" width="4.4" height="4.4"/>
	<rect x="154.3" y="145" class="st2" width="4.4" height="4.4"/>
	<rect x="161.3" y="145" class="st2" width="4.4" height="4.4"/>
</g>
</svg>
