<?xml version="1.0" encoding="utf-8"?>
<!-- Generator: Adobe Illustrator 24.0.1, SVG Export Plug-In . SVG Version: 6.00 Build 0)  -->
<svg version="1.1" id="Layer_1" xmlns="http://www.w3.org/2000/svg" xmlns:xlink="http://www.w3.org/1999/xlink" x="0px" y="0px"
	 viewBox="0 0 100 100" style="enable-background:new 0 0 100 100;" xml:space="preserve">
<style type="text/css">
	.st0{fill:#F2F2F2;}
	.st1{fill:#D32F2F;}
	.st2{fill:#FFFFFF;}
	.st3{fill:#592B49;}
	.st4{fill:#291221;}
	.st5{fill:#DA2286;}
	.st6{fill:#5E3C16;}
	.st7{fill:#472E11;}
	.st8{fill:#DF871E;}
	.st9{fill:#2A4997;}
	.st10{fill:#263364;}
	.st11{fill:#76C8DA;}
	.st12{fill:#151F45;}
	.st13{fill:#C9E1F6;}
	.st14{fill:#41B783;}
	.st15{fill:#34495E;}
	.st16{fill:#E64C18;}
	.st17{fill:#F36518;}
	.st18{fill:#2196F3;}
	.st19{fill:#FAFAFA;}
	.st20{fill:#37474F;}
	.st21{fill:#FFC107;}
	.st22{fill:#02C58E;}
	.st23{fill:#304A5F;}
	.st24{fill:#FEFEFE;}
	.st25{fill:#414042;}
</style>
<g>
	<path class="st0" d="M100,50c0,16.1-7.6,30.4-19.4,39.5C72.2,96.1,61.5,100,50,100c-11.4,0-22-3.8-30.4-10.3C7.7,80.6,0,66.2,0,50
		C0,22.4,22.4,0,50,0S100,22.4,100,50z"/>
	<g>
		<path class="st18" d="M84.9,21.5c-0.4-0.4-1-0.7-1.5-0.7H16.7c-1.2,0-2.1,0.9-2.1,2.1c0,0.1,0,0.1,0,0.2l6.2,66.7
			c0.1,0.9,0.7,1.6,1.5,1.8l29.2,8.3c0.2,0.1,0.4,0.1,0.6,0.1c0.2,0,0.4,0,0.7-0.1l25-8.3c0.8-0.3,1.3-1,1.4-1.8l6.2-66.7
			C85.5,22.5,85.3,22,84.9,21.5z"/>
		<g>
			<path class="st19" d="M52.1,83.3c-0.2,0-0.4,0-0.6-0.1l-14.6-4.2c-0.7-0.2-1.3-0.8-1.5-1.5l-2.1-8.3c-0.3-1.1,0.3-2.3,1.5-2.6
				s2.3,0.3,2.6,1.5c0,0,0,0.1,0,0.1l1.8,7.2l12.9,3.7l12.7-3.6l3.8-33.8H31.3c-1.2,0-2.1-0.9-2.1-2.1s0.9-2.1,2.1-2.1h39.6
				c1.2,0,2.1,0.9,2.1,2.1c0,0.1,0,0.2,0,0.2l-4.2,37.5c-0.1,0.8-0.7,1.5-1.5,1.8l-14.6,4.2C52.5,83.3,52.3,83.3,52.1,83.3z"/>
			<path class="st19" d="M68.8,58.3H33.3c-1.2,0-2.1-0.9-2.1-2.1s0.9-2.1,2.1-2.1h35.4c1.2,0,2.1,0.9,2.1,2.1S69.9,58.3,68.8,58.3z"
				/>
		</g>
		<g>
			<path class="st20" d="M37.5,12.5h-8.3c-1.2,0-2.1-0.9-2.1-2.1V2.1C27.1,0.9,28,0,29.2,0h8.3c1.2,0,2.1,0.9,2.1,2.1
				s-0.9,2.1-2.1,2.1h-6.2v4.2h6.2c1.2,0,2.1,0.9,2.1,2.1S38.7,12.5,37.5,12.5z"/>
			<path class="st20" d="M54.2,12.5h-8.3c-1.2,0-2.1-0.9-2.1-2.1s0.9-2.1,2.1-2.1h3.3l-4.8-4.8c-0.8-0.8-0.8-2.1,0-2.9
				C44.8,0.2,45.3,0,45.8,0h8.3c1.2,0,2.1,0.9,2.1,2.1s-0.9,2.1-2.1,2.1h-3.3l4.8,4.8c0.8,0.8,0.8,2.1,0,2.9
				C55.3,12.3,54.7,12.5,54.2,12.5z"/>
			<path class="st20" d="M70.8,12.5h-8.3c-1.2,0-2.1-0.9-2.1-2.1s0.9-2.1,2.1-2.1h3.3L61,3.6c-0.8-0.8-0.8-2.1,0-2.9
				C61.4,0.2,61.9,0,62.5,0h8.3c1.2,0,2.1,0.9,2.1,2.1S72,4.2,70.8,4.2h-3.3l4.8,4.8c0.8,0.8,0.8,2.1,0,2.9
				C71.9,12.3,71.4,12.5,70.8,12.5z"/>
		</g>
	</g>
</g>
</svg>
