<?xml version="1.0" encoding="utf-8"?>
<!-- Generator: Adobe Illustrator 24.0.1, SVG Export Plug-In . SVG Version: 6.00 Build 0)  -->
<svg version="1.1" id="Layer_1" xmlns="http://www.w3.org/2000/svg" xmlns:xlink="http://www.w3.org/1999/xlink" x="0px" y="0px"
	 viewBox="0 0 100 100" style="enable-background:new 0 0 100 100;" xml:space="preserve">
<style type="text/css">
	.st0{fill:#F2F2F2;}
	.st1{fill:#D32F2F;}
	.st2{fill:#FFFFFF;}
	.st3{fill:#592B49;}
	.st4{fill:#291221;}
	.st5{fill:#DA2286;}
	.st6{fill:#5E3C16;}
	.st7{fill:#472E11;}
	.st8{fill:#DF871E;}
	.st9{fill:#2A4997;}
	.st10{fill:#263364;}
	.st11{fill:#76C8DA;}
	.st12{fill:#151F45;}
	.st13{fill:#C9E1F6;}
	.st14{fill:#41B783;}
	.st15{fill:#34495E;}
	.st16{fill:#E64C18;}
	.st17{fill:#F36518;}
	.st18{fill:#2196F3;}
	.st19{fill:#FAFAFA;}
	.st20{fill:#37474F;}
	.st21{fill:#FFC107;}
	.st22{fill:#02C58E;}
	.st23{fill:#304A5F;}
	.st24{fill:#FEFEFE;}
	.st25{fill:#414042;}
</style>
<g>
	<path class="st25" d="M98,25.1L51,8.5c-0.6-0.2-1.3-0.2-1.9,0L2,25.1c-1.2,0.4-2,1.5-2,2.8s0.8,2.3,1.9,2.8L49,47.3
		c0.3,0.1,0.6,0.2,1,0.2c0.3,0,0.7-0.1,1-0.2l47.1-16.7c1.2-0.4,1.9-1.5,1.9-2.8C100,26.6,99.2,25.5,98,25.1z"/>
	<path class="st25" d="M93,64.2V38.6l-5.9,2.1v23.5c-1.8,1-3,2.9-3,5.1c0,2.2,1.2,4.1,3,5.1v14.4c0,1.6,1.3,2.9,2.9,2.9
		c1.6,0,2.9-1.3,2.9-2.9V74.4c1.8-1,3-2.9,3-5.1C95.9,67.1,94.7,65.2,93,64.2z"/>
	<path class="st25" d="M50,53.4c-1,0-2-0.2-2.9-0.5l-26.5-9.4v12.9c0,3.2,3.3,5.8,9.8,7.9C36,66.1,43,67.1,50,67.1s14-1,19.6-2.8
		c6.5-2.1,9.8-4.8,9.8-7.9V43.4l-26.5,9.4C52,53.2,51,53.4,50,53.4z"/>
</g>
</svg>
