<?xml version="1.0" encoding="utf-8"?>
<!-- Generator: Adobe Illustrator 24.0.1, SVG Export Plug-In . SVG Version: 6.00 Build 0)  -->
<svg version="1.1" id="Layer_1" xmlns="http://www.w3.org/2000/svg" xmlns:xlink="http://www.w3.org/1999/xlink" x="0px" y="0px"
	 viewBox="0 0 100 100" style="enable-background:new 0 0 100 100;" xml:space="preserve">
<style type="text/css">
	.st0{fill:#F2F2F2;}
	.st1{fill:#D32F2F;}
	.st2{fill:#FFFFFF;}
	.st3{fill:#592B49;}
	.st4{fill:#291221;}
	.st5{fill:#DA2286;}
	.st6{fill:#5E3C16;}
	.st7{fill:#472E11;}
	.st8{fill:#DF871E;}
	.st9{fill:#2A4997;}
	.st10{fill:#263364;}
	.st11{fill:#76C8DA;}
	.st12{fill:#151F45;}
	.st13{fill:#C9E1F6;}
	.st14{fill:#41B783;}
	.st15{fill:#34495E;}
	.st16{fill:#E64C18;}
	.st17{fill:#F36518;}
	.st18{fill:#2196F3;}
	.st19{fill:#FAFAFA;}
	.st20{fill:#37474F;}
	.st21{fill:#FFC107;}
	.st22{fill:#02C58E;}
	.st23{fill:#304A5F;}
	.st24{fill:#FEFEFE;}
	.st25{fill:#414042;}
</style>
<path class="st0" d="M100,50c0,16.1-7.6,30.4-19.4,39.5C72.2,96.1,61.5,100,50,100c-11.4,0-22-3.8-30.4-10.3C7.7,80.6,0,66.2,0,50
	C0,22.4,22.4,0,50,0S100,22.4,100,50z"/>
<g>
	<path class="st22" d="M33.9,87.8c-0.4,0-0.9,0.1-1.3,0.1c-8.6,0-17.2,0-25.8,0c-0.6,0-1.1,0-1.7,0c-3.7-0.2-5.8-3-4.9-6.6
		c0.2-0.9,0.6-1.8,1.1-2.6C13,57.8,24.8,37,36.5,16.2c0.5-0.9,1-1.8,1.8-2.5c1.9-1.9,4.5-2,6.5-0.4c0.9,0.7,1.6,1.6,2.1,2.7
		c3,5.5,6.1,11,9.2,16.6c0.2,0.3,0.4,0.7,0.7,1.2c1.2-1.9,2.3-3.8,3.5-5.6c0.5-0.7,0.9-1.5,1.5-2.1c1.9-2,4.5-2.2,6.7-0.4
		c0.8,0.7,1.4,1.6,2,2.5C79.8,45,89.3,62,98.7,79c0.6,1,1.1,2.1,1.2,3.3c0.3,3-1.9,5.5-5.3,5.5c-5.1,0.1-10.2,0-15.3,0
		c2.9-0.9,4.5-2.7,4.5-5.8c2.8,0,5.6,0,8.4,0c1.5,0,1.5,0,0.8-1.3C84,64.4,74.9,48.2,65.8,32c-0.2-0.3-0.2-0.7-0.6-0.8
		c-1.6,2.8-3.3,5.6-4.9,8.3c-0.7-0.6-1-1.5-1.5-2.2c-0.7-1.1-1.1-2.4-2.1-3.4c-1.2,2-2.3,3.8-3.4,5.7c-0.2-0.3-0.4-0.5-0.5-0.8
		c-3.2-5.8-6.4-11.6-9.7-17.4c-0.4-0.8-0.9-1.5-1.4-2.5c-11.9,21.1-23.6,42-35.5,63c8,0,15.7,0,23.5,0c0.1,0.9-0.1,1.9,0.3,2.8
		C30.7,86.5,32.2,87.2,33.9,87.8z"/>
	<path class="st23" d="M83.9,82c0.1,3.1-1.6,4.9-4.5,5.8c-5.1,0-10.2,0-15.4,0c-9.5,0-19,0-28.5,0c-0.6,0-1.1,0-1.7-0.1
		c-1.7-0.5-3.2-1.3-3.9-3.1c-0.3-0.9-0.2-1.9-0.3-2.8c0.2-1.2,0.7-2.3,1.3-3.4c5.8-10.1,11.6-20.2,17.3-30.3
		c1.6-2.9,3.2-5.8,4.8-8.6c1.1-1.9,2.2-3.7,3.4-5.7c0.9,1,1.3,2.3,2.1,3.4c0.5,0.7,0.8,1.6,1.5,2.2c-0.2,0.5,0.3,0.9,0.5,1.3
		c2.6,4.6,5.3,9.2,7.9,13.9C73.7,63.7,79.3,72.5,83.9,82z M77.3,81.9c-6.9-12.1-13.7-24-20.6-36.1c-6.9,12.1-13.7,24-20.6,36.1
		C49.9,81.9,63.5,81.9,77.3,81.9z"/>
	<path class="st24" d="M53.3,39.5c-1.6,2.9-3.2,5.8-4.8,8.6c-5.8,10.1-11.6,20.2-17.3,30.3c-0.6,1.1-1.1,2.2-1.3,3.4
		c-7.8,0-15.5,0-23.5,0c11.8-21,23.6-41.9,35.5-63c0.5,0.9,1,1.7,1.4,2.5c3.2,5.8,6.4,11.6,9.7,17.4C53,39,53.1,39.2,53.3,39.5z"/>
	<path class="st24" d="M83.9,82c-4.6-9.4-10.2-18.2-15.3-27.4c-2.6-4.7-5.3-9.2-7.9-13.9c-0.2-0.4-0.6-0.7-0.5-1.3
		c1.6-2.8,3.3-5.5,4.9-8.3c0.4,0.2,0.5,0.6,0.6,0.8C74.9,48.2,84,64.4,93.1,80.6c0.7,1.3,0.7,1.3-0.8,1.3C89.5,81.9,86.7,82,83.9,82
		z"/>
	<path class="st24" d="M77.3,81.9c-13.8,0-27.4,0-41.2,0c6.9-12.1,13.7-24,20.6-36.1C63.6,57.8,70.4,69.8,77.3,81.9z"/>
</g>
</svg>
