<?xml version="1.0" encoding="utf-8"?>
<!-- Generator: Adobe Illustrator 24.0.1, SVG Export Plug-In . SVG Version: 6.00 Build 0)  -->
<svg version="1.1" id="Layer_1" xmlns="http://www.w3.org/2000/svg" xmlns:xlink="http://www.w3.org/1999/xlink" x="0px" y="0px"
	 viewBox="0 0 100 100" style="enable-background:new 0 0 100 100;" xml:space="preserve">
<style type="text/css">
	.st0{fill:#F2F2F2;}
	.st1{fill:#D32F2F;}
	.st2{fill:#FFFFFF;}
	.st3{fill:#592B49;}
	.st4{fill:#291221;}
	.st5{fill:#DA2286;}
	.st6{fill:#5E3C16;}
	.st7{fill:#472E11;}
	.st8{fill:#DF871E;}
	.st9{fill:#2A4997;}
	.st10{fill:#263364;}
	.st11{fill:#76C8DA;}
	.st12{fill:#151F45;}
	.st13{fill:#C9E1F6;}
	.st14{fill:#41B783;}
	.st15{fill:#34495E;}
	.st16{fill:#E64C18;}
	.st17{fill:#F36518;}
	.st18{fill:#2196F3;}
	.st19{fill:#FAFAFA;}
	.st20{fill:#37474F;}
	.st21{fill:#FFC107;}
	.st22{fill:#02C58E;}
	.st23{fill:#304A5F;}
	.st24{fill:#FEFEFE;}
	.st25{fill:#414042;}
</style>
<g>
	<path class="st0" d="M100,50c0,16.1-7.6,30.4-19.4,39.5C72.2,96.1,61.5,100,50,100c-11.4,0-22-3.8-30.4-10.3C7.7,80.6,0,66.2,0,50
		C0,22.4,22.4,0,50,0S100,22.4,100,50z"/>
	<g>
		<path class="st14" d="M79.9,6.8c6.5,0,13.1,0,19.6,0c0.1,0,0.3,0,0.4,0c0,0,0,0.1,0,0.1c-0.7,1-1.2,2.1-1.8,3.1
			c-10.7,18.5-21.4,37-32,55.5c-5.3,9.1-10.5,18.2-15.8,27.3c-0.1,0.2-0.2,0.3-0.3,0.6C33.3,64.4,16.7,35.6,0,6.8
			c6.8,0,13.4,0,20.1,0c0,0.1,0.1,0.3,0.1,0.4c2.6,4.4,5.1,8.8,7.7,13.2c1.6,2.8,3.2,5.6,4.8,8.4c1.7,2.9,3.4,5.8,5.1,8.8
			c1.8,3.2,3.7,6.4,5.5,9.5c1.8,3.2,3.7,6.3,5.5,9.5c0.4,0.7,0.8,1.3,1.2,2c0.3-0.4,0.5-0.9,0.8-1.3c2.6-4.5,5.1-8.9,7.7-13.3
			c2.3-4,4.6-8,7-12.1c2.3-4,4.7-8.1,7-12.1c2.3-3.9,4.5-7.8,6.8-11.7C79.4,7.7,79.8,7.3,79.9,6.8z"/>
		<path class="st15" d="M79.9,6.8c-0.1,0.5-0.5,0.9-0.7,1.4c-2.2,3.9-4.5,7.8-6.8,11.7c-2.3,4-4.7,8.1-7,12.1c-2.3,4-4.6,8-7,12.1
			c-2.6,4.5-5.1,8.9-7.7,13.3c-0.2,0.4-0.4,0.8-0.8,1.3c-0.4-0.7-0.8-1.4-1.2-2c-1.8-3.2-3.7-6.3-5.5-9.5c-1.8-3.2-3.7-6.4-5.5-9.5
			c-1.7-2.9-3.4-5.8-5.1-8.8c-1.6-2.8-3.2-5.6-4.8-8.4c-2.5-4.4-5.1-8.8-7.7-13.2c-0.1-0.1-0.1-0.2-0.1-0.4c3.1,0,6.1,0,9.2,0
			c2.9,0,5.9,0,8.8,0c0.3,0,0.4,0.1,0.6,0.3c3.7,6.4,7.4,12.8,11.1,19.2c0.1,0.1,0.1,0.2,0.2,0.4c0.2,0,0.2-0.2,0.3-0.3
			c3.7-6.4,7.4-12.7,11-19.1c0.2-0.4,0.4-0.5,0.8-0.5c5.8,0,11.5,0,17.3,0C79.6,6.7,79.7,6.7,79.9,6.8z"/>
	</g>
</g>
</svg>
