<?xml version="1.0" encoding="utf-8"?>
<!-- Generator: Adobe Illustrator 24.0.1, SVG Export Plug-In . SVG Version: 6.00 Build 0)  -->
<svg version="1.1" id="Layer_1" xmlns="http://www.w3.org/2000/svg" xmlns:xlink="http://www.w3.org/1999/xlink" x="0px" y="0px"
	 viewBox="0 0 100 100" style="enable-background:new 0 0 100 100;" xml:space="preserve">
<style type="text/css">
	.st0{fill:#F2F2F2;}
	.st1{fill:#D32F2F;}
	.st2{fill:#FFFFFF;}
	.st3{fill:#592B49;}
	.st4{fill:#291221;}
	.st5{fill:#DA2286;}
	.st6{fill:#5E3C16;}
	.st7{fill:#472E11;}
	.st8{fill:#DF871E;}
	.st9{fill:#2A4997;}
	.st10{fill:#263364;}
	.st11{fill:#76C8DA;}
	.st12{fill:#151F45;}
	.st13{fill:#C9E1F6;}
	.st14{fill:#41B783;}
	.st15{fill:#34495E;}
	.st16{fill:#E64C18;}
	.st17{fill:#F36518;}
	.st18{fill:#2196F3;}
	.st19{fill:#FAFAFA;}
	.st20{fill:#37474F;}
	.st21{fill:#FFC107;}
	.st22{fill:#02C58E;}
	.st23{fill:#304A5F;}
	.st24{fill:#FEFEFE;}
	.st25{fill:#414042;}
</style>
<g>
	<circle class="st2" cx="22.5" cy="11.7" r="11.7"/>
	<path class="st2" d="M54.7,9.8v37.3h-9.8v-7c0-7-3.9-13.1-9.7-16.3c-3.2,3.4-7.8,5.5-12.8,5.5s-9.6-2.1-12.8-5.5
		C3.9,26.9,0,33,0,40v15.6c0,3.8,3.1,6.8,6.8,6.8h1v30.7c0,3.8,3.1,6.8,6.8,6.8h4.9V65.4c0-1.6,1.3-2.9,2.9-2.9
		c1.6,0,2.9,1.3,2.9,2.9V100h4.9c3.8,0,6.8-3.1,6.8-6.8V62.5h1c3.8,0,6.8-3.1,6.8-6.8v-2.7h9.8v37.3c0,1.6,1.3,2.9,2.9,2.9h10.7
		v-5.9h-7.8v-21h7.8v-5.9h-7.8v-21h7.8v-5.9h-7.8v-21h7.8V6.8H57.6C56,6.8,54.7,8.1,54.7,9.8z"/>
	<path class="st2" d="M97.1,80.5H77.1c-1.6,0-2.9,1.3-2.9,2.9v13.7c0,1.6,1.3,2.9,2.9,2.9h19.9c1.6,0,2.9-1.3,2.9-2.9V83.4
		C100,81.8,98.7,80.5,97.1,80.5z"/>
	<path class="st2" d="M97.1,0H77.1c-1.6,0-2.9,1.3-2.9,2.9v13.7c0,1.6,1.3,2.9,2.9,2.9h19.9c1.6,0,2.9-1.3,2.9-2.9V2.9
		C100,1.3,98.7,0,97.1,0z"/>
	<path class="st2" d="M97.1,26.8H77.1c-1.6,0-2.9,1.3-2.9,2.9v13.7c0,1.6,1.3,2.9,2.9,2.9h19.9c1.6,0,2.9-1.3,2.9-2.9V29.8
		C100,28.1,98.7,26.8,97.1,26.8z"/>
	<path class="st2" d="M97.1,53.6H77.1c-1.6,0-2.9,1.3-2.9,2.9v13.7c0,1.6,1.3,2.9,2.9,2.9h19.9c1.6,0,2.9-1.3,2.9-2.9V56.6
		C100,55,98.7,53.6,97.1,53.6z"/>
</g>
</svg>
