<?xml version="1.0" encoding="utf-8"?>
<!-- Generator: Adobe Illustrator 24.0.1, SVG Export Plug-In . SVG Version: 6.00 Build 0)  -->
<svg version="1.1" id="Layer_1" xmlns="http://www.w3.org/2000/svg" xmlns:xlink="http://www.w3.org/1999/xlink" x="0px" y="0px"
	 viewBox="0 0 100 100" style="enable-background:new 0 0 100 100;" xml:space="preserve">
<style type="text/css">
	.st0{fill:#F2F2F2;}
	.st1{fill:#D32F2F;}
	.st2{fill:#FFFFFF;}
	.st3{fill:#592B49;}
	.st4{fill:#291221;}
	.st5{fill:#DA2286;}
	.st6{fill:#5E3C16;}
	.st7{fill:#472E11;}
	.st8{fill:#DF871E;}
	.st9{fill:#2A4997;}
	.st10{fill:#263364;}
	.st11{fill:#76C8DA;}
	.st12{fill:#151F45;}
	.st13{fill:#C9E1F6;}
	.st14{fill:#41B783;}
	.st15{fill:#34495E;}
	.st16{fill:#E64C18;}
	.st17{fill:#F36518;}
	.st18{fill:#2196F3;}
	.st19{fill:#FAFAFA;}
	.st20{fill:#37474F;}
	.st21{fill:#FFC107;}
	.st22{fill:#02C58E;}
	.st23{fill:#304A5F;}
	.st24{fill:#FEFEFE;}
	.st25{fill:#414042;}
</style>
<g>
	<path class="st2" d="M50.7,56.2l42.2-40.4c-2.2-1.1-4.9-1.8-8.6-1.8c-16.4,0-69.2,0-69.2,0s-3,0-6.3,1.4L50.7,56.2z"/>
	<path class="st2" d="M53.9,66c-0.9,0.9-2.1,1.3-3.2,1.3c-1.2,0-2.3-0.4-3.2-1.3L1.9,21.6C0.7,23.7,0,26.4,0,29.8
		C0,45.5,0.7,86,0.7,86H100V27.7c0,0,0.1-2.3-0.9-5.1L53.9,66z"/>
</g>
</svg>
