<?xml version="1.0" encoding="utf-8"?>
<!-- Generator: Adobe Illustrator 24.0.1, SVG Export Plug-In . SVG Version: 6.00 Build 0)  -->
<svg version="1.1" id="Layer_1" xmlns="http://www.w3.org/2000/svg" xmlns:xlink="http://www.w3.org/1999/xlink" x="0px" y="0px"
	 viewBox="0 0 100 100" style="enable-background:new 0 0 100 100;" xml:space="preserve">
<style type="text/css">
	.st0{fill:#F2F2F2;}
	.st1{fill:#D32F2F;}
	.st2{fill:#FFFFFF;}
	.st3{fill:#592B49;}
	.st4{fill:#291221;}
	.st5{fill:#DA2286;}
	.st6{fill:#5E3C16;}
	.st7{fill:#472E11;}
	.st8{fill:#DF871E;}
	.st9{fill:#2A4997;}
	.st10{fill:#263364;}
	.st11{fill:#76C8DA;}
	.st12{fill:#151F45;}
	.st13{fill:#C9E1F6;}
	.st14{fill:#41B783;}
	.st15{fill:#34495E;}
	.st16{fill:#E64C18;}
	.st17{fill:#F36518;}
	.st18{fill:#2196F3;}
	.st19{fill:#FAFAFA;}
	.st20{fill:#37474F;}
	.st21{fill:#FFC107;}
	.st22{fill:#02C58E;}
	.st23{fill:#304A5F;}
	.st24{fill:#FEFEFE;}
	.st25{fill:#414042;}
</style>
<g>
	<circle class="st3" cx="50" cy="50" r="50"/>
	<path class="st4" d="M99.9,46.7L82.7,29.6H75V44c-2.4-2.7-5.2-4.1-8.5-4.1c-0.9,0-1.7,0.1-2.5,0.2L53.4,29.6H44L38,39.5l-9.9-9.9
		h-9.5L31,48.8l-13.7,21l30.2,30.2c0.8,0,1.7,0.1,2.6,0.1c27.6,0,50-22.4,50-50C100,48.9,100,47.8,99.9,46.7z"/>
	<g>
		<path class="st5" d="M17.3,69.8l13.7-21L18.6,29.6h9.5l8.1,12.9L44,29.6h9.4L40.9,49.1l13.7,20.7h-9.8L36,55.9L27,69.8L17.3,69.8
			L17.3,69.8z"/>
		<path class="st5" d="M82.7,69.8h-7.2v-4.3c-1.2,1.7-2.6,2.9-4.2,3.7c-1.6,0.8-3.3,1.2-4.9,1.2c-3.3,0-6.2-1.3-8.6-4
			c-2.4-2.7-3.6-6.5-3.6-11.3c0-4.9,1.2-8.7,3.5-11.3c2.3-2.6,5.3-3.9,8.8-3.9c3.3,0,6.1,1.4,8.5,4.1V29.6h7.7L82.7,69.8L82.7,69.8z
			 M62.1,54.6c0,3.1,0.4,5.4,1.3,6.7c1.2,2,3,3,5.2,3c1.8,0,3.3-0.8,4.5-2.3c1.2-1.5,1.9-3.8,1.9-6.8c0-3.3-0.6-5.8-1.8-7.2
			c-1.2-1.5-2.8-2.2-4.6-2.2c-1.8,0-3.4,0.7-4.6,2.2C62.8,49.5,62.1,51.7,62.1,54.6z"/>
	</g>
</g>
</svg>
