<?xml version="1.0" encoding="utf-8"?>
<!-- Generator: Adobe Illustrator 24.0.1, SVG Export Plug-In . SVG Version: 6.00 Build 0)  -->
<svg version="1.1" id="Layer_1" xmlns="http://www.w3.org/2000/svg" xmlns:xlink="http://www.w3.org/1999/xlink" x="0px" y="0px"
	 viewBox="0 0 100 100" style="enable-background:new 0 0 100 100;" xml:space="preserve">
<style type="text/css">
	.st0{fill:#D32F2F;}
	.st1{fill:#FFFFFF;}
</style>
<circle class="st0" cx="50" cy="50" r="50"/>
<g>
	<path class="st1" d="M82.9,27.6c-4.6-8.3-12.3-14.2-21.5-16.4c-8.6-2.1-18.2-0.9-26.6,3.4c-6.2,3.2-9,10.1-6.5,16
		c1.8,4.3,1.9,8.7,0.3,12.7c-1.6,4.1-4.8,7.5-9.2,10c-6,3.3-8.5,10-5.9,16c4.3,9.8,12.7,16.9,23,19.5c2.8,0.7,5.7,1,8.6,1
		c0,0,0,0,0,0c17.9,0,34.4-12.6,40.3-30.7C88.9,48.3,88,36.8,82.9,27.6z M81.7,57.9c-5.3,16.5-20.4,28-36.6,28
		c-2.6,0-5.2-0.3-7.7-0.9c-9.1-2.3-16.5-8.5-20.4-17.3c-1.8-4.1,0-8.7,4.2-11c5.2-2.9,9-7,11-12c2-5,1.8-10.5-0.4-15.7
		c-1.7-4.1,0.2-8.8,4.7-11c5.2-2.6,10.8-4,16.2-4c2.6,0,5.2,0.3,7.7,0.9c8.2,2,14.9,7.2,19,14.6C84.1,37.8,84.9,48.2,81.7,57.9z"/>
	<ellipse transform="matrix(0.7394 -0.6733 0.6733 0.7394 -39.3415 42.7914)" class="st1" cx="35.6" cy="72.2" rx="7.2" ry="7.2"/>
	<ellipse transform="matrix(0.3852 -0.9228 0.9228 0.3852 -30.6479 95.3124)" class="st1" cx="56.2" cy="70.7" rx="7.2" ry="7.2"/>
	<path class="st1" d="M71.4,48.3c-4,0-7.2,3.2-7.2,7.2c0,4,3.2,7.2,7.2,7.2c4,0,7.2-3.2,7.2-7.2C78.6,51.5,75.3,48.3,71.4,48.3z"/>
	<ellipse transform="matrix(0.9724 -0.2335 0.2335 0.9724 -6.1947 17.4518)" class="st1" cx="70.6" cy="34.9" rx="7.2" ry="7.2"/>
	<circle class="st1" cx="53.9" cy="24.4" r="7.2"/>
</g>
</svg>
