<?xml version="1.0" encoding="utf-8"?>
<!-- Generator: Adobe Illustrator 24.0.1, SVG Export Plug-In . SVG Version: 6.00 Build 0)  -->
<svg version="1.1" id="Layer_1" xmlns="http://www.w3.org/2000/svg" xmlns:xlink="http://www.w3.org/1999/xlink" x="0px" y="0px"
	 viewBox="0 0 100 100" style="enable-background:new 0 0 100 100;" xml:space="preserve">
<style type="text/css">
	.st0{fill:#F2F2F2;}
	.st1{fill:#D32F2F;}
	.st2{fill:#FFFFFF;}
	.st3{fill:#592B49;}
	.st4{fill:#291221;}
	.st5{fill:#DA2286;}
	.st6{fill:#5E3C16;}
	.st7{fill:#472E11;}
	.st8{fill:#DF871E;}
	.st9{fill:#2A4997;}
	.st10{fill:#263364;}
	.st11{fill:#76C8DA;}
	.st12{fill:#151F45;}
	.st13{fill:#C9E1F6;}
	.st14{fill:#41B783;}
	.st15{fill:#34495E;}
	.st16{fill:#E64C18;}
	.st17{fill:#F36518;}
	.st18{fill:#2196F3;}
	.st19{fill:#FAFAFA;}
	.st20{fill:#37474F;}
	.st21{fill:#FFC107;}
	.st22{fill:#02C58E;}
	.st23{fill:#304A5F;}
	.st24{fill:#FEFEFE;}
	.st25{fill:#414042;}
</style>
<g>
	<circle class="st9" cx="50" cy="50" r="50"/>
	<path class="st10" d="M66.8,39.2c-4,0-7.1,0.7-9.2,2.2L48,31.8l0,0c-1.5-1.6-3.3-2.7-5.3-3.2c-3-0.8-10-0.6-24.3-0.6v43.1
		l28.8,28.8c1,0.1,1.9,0.1,2.9,0.1c23.1,0,42.6-15.7,48.3-37.1L77.9,42.6l0,0C75.3,39.9,71.5,39.2,66.8,39.2z"/>
	<g>
		<path class="st11" d="M18.3,71.1V28c14.3,0,21.4-0.1,24.3,0.6c2.5,0.6,4.5,2.1,6.2,4.2c3.2,4.2,3.1,11.3,1.1,15.1
			c-1.8,3.4-4.9,5.6-8.2,6.3c-3.8,0.8-9.5,0.6-14.7,0.6v16.3L18.3,71.1L18.3,71.1z M27,35.3v12.2c8.8,0,12.3,0.3,14.4-2.8
			c1.4-2,1.4-5.3-0.4-7.2C38.8,35.1,36.4,35.3,27,35.3z"/>
		<path class="st11" d="M52.5,62.2l8.3-1.3c0.8,3.5,3.1,4.9,6.7,4.9c2.7,0,5.9-0.7,5.9-3.4c0-1.8-1.5-2.2-3.4-2.6
			c-6.7-1.5-10.9-2.8-12.7-4c-2.5-1.7-3.7-4-3.7-7c0-2.7,1.1-5,3.2-6.8c2.1-1.8,5.5-2.8,9.9-2.8c6.8,0,11.9,1.6,13.8,8.3l-7.8,1.4
			c-0.3-1.2-1-2.1-1.9-2.8c-2.1-1.5-7-1.1-8.7-0.1c-1.2,0.8-1.3,2.3-0.1,3.2c2.4,1.8,12.6,2.4,16.9,6c1.7,1.5,2.6,3.5,2.6,6.1
			c0,2.9-1.2,5.3-3.6,7.4c-2.4,2.1-5.9,3.1-10.6,3.1c-4.3,0-7.6-0.9-10.1-2.6C54.9,67.5,53.3,65.2,52.5,62.2z"/>
	</g>
</g>
</svg>
