<?xml version="1.0" encoding="utf-8"?>
<!-- Generator: Adobe Illustrator 24.0.1, SVG Export Plug-In . SVG Version: 6.00 Build 0)  -->
<svg version="1.1" id="Layer_1" xmlns="http://www.w3.org/2000/svg" xmlns:xlink="http://www.w3.org/1999/xlink" x="0px" y="0px"
	 viewBox="0 0 100 100" style="enable-background:new 0 0 100 100;" xml:space="preserve">
<style type="text/css">
	.st0{fill:#F2F2F2;}
	.st1{fill:#D32F2F;}
	.st2{fill:#FFFFFF;}
	.st3{fill:#592B49;}
	.st4{fill:#291221;}
	.st5{fill:#DA2286;}
	.st6{fill:#5E3C16;}
	.st7{fill:#472E11;}
	.st8{fill:#DF871E;}
	.st9{fill:#2A4997;}
	.st10{fill:#263364;}
	.st11{fill:#76C8DA;}
	.st12{fill:#151F45;}
	.st13{fill:#C9E1F6;}
	.st14{fill:#41B783;}
	.st15{fill:#34495E;}
	.st16{fill:#E64C18;}
	.st17{fill:#F36518;}
	.st18{fill:#2196F3;}
	.st19{fill:#FAFAFA;}
	.st20{fill:#37474F;}
	.st21{fill:#FFC107;}
	.st22{fill:#02C58E;}
	.st23{fill:#304A5F;}
	.st24{fill:#FEFEFE;}
	.st25{fill:#414042;}
</style>
<g>
	<path class="st0" d="M100,50c0,16.1-7.6,30.4-19.4,39.5C72.2,96.1,61.5,100,50,100c-11.4,0-22-3.8-30.4-10.3C7.7,80.6,0,66.2,0,50
		C0,22.4,22.4,0,50,0S100,22.4,100,50z"/>
	<path class="st16" d="M86.3,23.3l-5.7,66.2C72.2,96.1,61.5,100,50,100c-11.4,0-22-3.8-30.4-10.3l-5.7-66.4H86.3z"/>
	<polygon class="st17" points="50.1,29.5 50.1,98.5 73.9,91.7 79.2,29.5 	"/>
	<polygon class="st2" points="27.5,38.2 29.9,65.8 60.9,65.8 59.9,77.3 50.1,79.9 39.9,77.1 39.7,69.9 30.2,69.9 31.4,84 50.1,89.3 
		68.8,84 71.1,56.5 38.5,56.5 37.7,47.5 37.7,47.5 71.9,47.4 72.7,38.2 	"/>
	<polygon points="29.5,3.3 29.5,8 25,8 25,3.3 20.8,3.3 20.8,16.9 25,16.9 25,12.5 29.5,12.5 29.5,16.9 33.7,16.9 33.7,3.3 	"/>
	<polygon points="48.7,3.3 35.8,3.3 35.8,8 40,8 40,17 44.5,17 44.5,8 48.7,8 	"/>
	<polygon points="72.9,12.7 72.9,3.4 68.4,3.4 68.4,12.7 68.4,17 72.9,17 79.5,17 79.5,12.7 	"/>
	<polygon points="61.5,3.4 58.3,8.2 55.2,3.4 50.6,3.4 50.6,17 55.2,17 55.2,10.2 58.3,15.1 61.5,10.2 61.5,17 66,17 66,3.4 	"/>
</g>
</svg>
