<?xml version="1.0" encoding="utf-8"?>
<!-- Generator: Adobe Illustrator 24.0.1, SVG Export Plug-In . SVG Version: 6.00 Build 0)  -->
<svg version="1.1" id="Layer_1" xmlns="http://www.w3.org/2000/svg" xmlns:xlink="http://www.w3.org/1999/xlink" x="0px" y="0px"
	 viewBox="0 0 100 100" style="enable-background:new 0 0 100 100;" xml:space="preserve">
<style type="text/css">
	.st0{fill:#F2F2F2;}
	.st1{fill:#D32F2F;}
	.st2{fill:#FFFFFF;}
	.st3{fill:#592B49;}
	.st4{fill:#291221;}
	.st5{fill:#DA2286;}
	.st6{fill:#5E3C16;}
	.st7{fill:#472E11;}
	.st8{fill:#DF871E;}
	.st9{fill:#2A4997;}
	.st10{fill:#263364;}
	.st11{fill:#76C8DA;}
	.st12{fill:#151F45;}
	.st13{fill:#C9E1F6;}
	.st14{fill:#41B783;}
	.st15{fill:#34495E;}
	.st16{fill:#E64C18;}
	.st17{fill:#F36518;}
	.st18{fill:#2196F3;}
	.st19{fill:#FAFAFA;}
	.st20{fill:#37474F;}
	.st21{fill:#FFC107;}
	.st22{fill:#02C58E;}
	.st23{fill:#304A5F;}
	.st24{fill:#FEFEFE;}
	.st25{fill:#414042;}
</style>
<g>
	<path class="st0" d="M100,50c0,16.1-7.6,30.4-19.4,39.5C72.2,96.1,61.5,100,50,100c-11.4,0-22-3.8-30.4-10.3C7.7,80.6,0,66.2,0,50
		C0,22.4,22.4,0,50,0S100,22.4,100,50z"/>
	<path class="st21" d="M95.3,0.7c-0.4-0.4-1-0.7-1.5-0.7H6.3C5.7,0,5.1,0.3,4.7,0.7c-0.4,0.4-0.6,1-0.5,1.6l8.3,83.3
		c0.1,0.8,0.6,1.5,1.4,1.8l37.5,12.5c0.2,0.1,0.4,0.1,0.7,0.1c0.3,0,0.5,0,0.7-0.1l33.3-12.5c0.7-0.3,1.3-1,1.3-1.7l8.3-83.3
		C95.9,1.7,95.7,1.1,95.3,0.7z"/>
	<path d="M87.5,85.6c-0.1,0.8-0.6,1.5-1.3,1.7L52.8,99.9c-0.2,0.1-0.5,0.1-0.7,0.1c-0.2,0-0.4,0-0.7-0.1L13.9,87.4
		c-0.8-0.3-1.3-1-1.4-1.8L4.2,2.3C4.1,1.7,4.3,1.1,4.7,0.7C5.1,0.3,5.7,0,6.3,0h87.5c0.6,0,1.1,0.3,1.5,0.7c0.4,0.4,0.6,1,0.5,1.6
		 M16.5,83.9L52,95.7l31.4-11.8l8-79.8H8.6L16.5,83.9z"/>
	<path d="M56.3,77.1c-0.9,0-1.7-0.6-2-1.4c-0.4-1.1,0.2-2.3,1.3-2.6l11.3-3.8L70.4,50H56.3c-1.2,0-2.1-0.9-2.1-2.1v-25
		c0-1.1,0.9-2.1,2.1-2.1h20.8c0.6,0,1.3,0.3,1.6,0.8c0.4,0.5,0.5,1.2,0.4,1.8L77,31.8c-0.3,1.1-1.4,1.8-2.5,1.5
		c-1.1-0.3-1.8-1.4-1.5-2.5l1.4-5.7H58.3v20.8h14.6c0.6,0,1.2,0.3,1.6,0.7c0.4,0.5,0.6,1.1,0.5,1.7l-4.2,22.9
		c-0.1,0.7-0.7,1.4-1.4,1.6L56.9,77C56.7,77.1,56.5,77.1,56.3,77.1z"/>
	<path d="M47.9,77.1c-0.2,0-0.4,0-0.6-0.1l-14.6-4.2c-0.8-0.2-1.3-0.8-1.5-1.6l-2.1-10.4c-0.2-1.1,0.5-2.2,1.6-2.4
		c1.1-0.2,2.2,0.5,2.5,1.6l1.8,9.2l10.7,3.1V25H22.9c-1.1,0-2.1-0.9-2.1-2.1c0-1.1,0.9-2.1,2.1-2.1h25c1.1,0,2.1,0.9,2.1,2.1V75
		c0,0.7-0.3,1.3-0.8,1.7C48.8,76.9,48.4,77.1,47.9,77.1z"/>
</g>
</svg>
