<?xml version="1.0" encoding="utf-8"?>
<!-- Generator: Adobe Illustrator 24.0.1, SVG Export Plug-In . SVG Version: 6.00 Build 0)  -->
<svg version="1.1" id="Layer_1" xmlns="http://www.w3.org/2000/svg" xmlns:xlink="http://www.w3.org/1999/xlink" x="0px" y="0px"
	 viewBox="0 0 512 512" style="enable-background:new 0 0 512 512;" xml:space="preserve">
<style type="text/css">
	.st0{fill:#83D8F4;}
	.st1{fill:#57565C;}
	.st2{fill:#FFD54F;}
	.st3{fill:#FFC107;}
	.st4{fill:#455A64;}
	.st5{fill:#FFA000;}
	.st6{fill:#91DD5A;}
	.st7{fill:#7ED63F;}
	.st8{fill:#FCFCFC;}
	.st9{fill:#FFFFFF;}
	.st10{fill:#6E87F5;}
</style>
<g>
	<path class="st2" d="M501.3,34L314.1,169.4l-30.7,22.3c-16.3,12-38.5,12-54.8,0l-30.7-22.3L10.5,34.3
		c10.4-14.6,27.3-23.2,45.2-23.2h400.7C474.1,11.1,490.9,19.6,501.3,34z"/>
	<g>
		<path class="st3" d="M10.5,34.3l187.4,135.1L16.3,351C5.8,340.6,0,326.4,0,311.6V66.8C0,55.1,3.6,43.7,10.5,34.3z"/>
		<path class="st3" d="M512,66.8v244.9c0,14.8-5.8,28.9-16.3,39.4L314.1,169.4L501.3,34C508.3,43.5,512,55,512,66.8z"/>
	</g>
	<path class="st4" d="M333.9,411.8c-14.8,0-22.3-11.1-22.3-33.4c0.4-31.1-24.6-56.6-55.7-57s-56.6,24.6-57,55.7
		c-0.4,31.1,24.6,56.6,55.7,57c16.7,0.2,32.6-7,43.4-19.7c7.4,12.7,21.2,20.2,35.8,19.7c44.5,0,44.5-41.9,44.5-55.7
		c0-67.6-54.8-122.4-122.4-122.4s-122.4,54.8-122.4,122.4S188.4,500.8,256,500.8c31.8,0,62.3-12.4,85.1-34.4
		c4.4-4.3,4.5-11.4,0.2-15.8c-4.3-4.4-11.4-4.5-15.8-0.2l0,0c-39.8,38.4-103.2,37.3-141.6-2.6s-37.3-103.2,2.6-141.6
		s103.2-37.3,141.6,2.6c18,18.7,28.1,43.7,28.1,69.7C356.2,403.4,350.6,411.8,333.9,411.8z M256,411.8c-18.4,0-33.4-15-33.4-33.4
		s15-33.4,33.4-33.4c18.4,0,33.4,14.9,33.4,33.4C289.4,396.9,274.4,411.8,256,411.8z"/>
	<path class="st5" d="M314.1,169.4l-30.7,22.3c-16.3,12-38.5,12-54.8,0l-30.7-22.3L16.3,351c10.5,10.4,24.6,16.3,39.4,16.3h56.2
		c6-79.6,75.4-139.2,155-133.2c71.2,5.4,127.8,62,133.2,133.2h56.2c14.8,0,28.9-5.8,39.4-16.3L314.1,169.4z"/>
	<path d="M456.3,367.3h-44.5c-6.1,0-11.1-5-11.1-11.1s5-11.1,11.1-11.1h44.5c18.4,0,33.4-15,33.4-33.4V66.8
		c0-18.4-15-33.4-33.4-33.4H55.7c-18.4,0-33.4,15-33.4,33.4v244.9c0,18.4,15,33.4,33.4,33.4h44.5c6.1,0,11.1,5,11.1,11.1
		c0,6.2-5,11.1-11.1,11.1H55.7C25,367.3,0,342.3,0,311.6V66.8c0-30.7,25-55.7,55.7-55.7h400.7c30.7,0,55.7,25,55.7,55.7v244.9
		C512,342.3,487,367.3,456.3,367.3z"/>
	<path d="M256,211.8c-11.9,0-23.8-3.7-34-11.2L49.2,75.8c-5-3.6-6.1-10.6-2.5-15.5c3.6-5,10.5-6.1,15.5-2.5l173,124.9
		c12.5,9.1,29.3,9.1,41.7,0l173-124.9c5-3.6,11.9-2.5,15.5,2.5s2.5,12-2.5,15.5l-173,124.9C279.8,208.1,267.9,211.8,256,211.8z"/>
	<path d="M55.7,322.8c-2.8,0-5.7-1.1-7.9-3.3c-4.3-4.3-4.3-11.4,0-15.7l111.3-111.3c4.3-4.3,11.4-4.3,15.7,0
		c4.3,4.3,4.3,11.4,0,15.7L63.5,319.5C61.4,321.7,58.5,322.8,55.7,322.8z"/>
	<path d="M456.3,322.8c-2.8,0-5.7-1.1-7.9-3.3L337.2,208.2c-4.3-4.3-4.3-11.4,0-15.7c4.3-4.3,11.4-4.3,15.7,0l111.3,111.3
		c4.3,4.3,4.3,11.4,0,15.7C462,321.7,459.2,322.8,456.3,322.8z"/>
	<path d="M256.1,500.9c-0.7,0-1.4,0-2.1,0c-32.7-0.5-63.2-13.8-86-37.3c-46.9-48.5-45.7-126.2,2.8-173.1c23.5-22.8,55-35,87.2-34.4
		c32.7,0.5,63.2,13.8,86,37.3c22.2,23,34.4,53.2,34.4,85.1c0,6.1-5,11.1-11.1,11.1s-11.1-5-11.1-11.1c0-26.1-10-50.9-28.2-69.7
		c-18.6-19.2-43.6-30.1-70.3-30.5c-26.2,0-52.1,9.6-71.3,28.2c-39.7,38.4-40.7,101.9-2.3,141.6c18.6,19.2,43.6,30.1,70.3,30.5
		c26.8,0.9,52-9.6,71.3-28.2c4.4-4.3,11.5-4.2,15.7,0.3s4.2,11.5-0.3,15.7C318.1,488.7,288,500.9,256.1,500.9z"/>
	<path d="M256,434.1c-30.7,0-55.7-25-55.7-55.7s25-55.7,55.7-55.7s55.7,25,55.7,55.7S286.7,434.1,256,434.1z M256,345
		c-18.4,0-33.4,15-33.4,33.4c0,18.4,15,33.4,33.4,33.4s33.4-15,33.4-33.4C289.4,360,274.4,345,256,345z"/>
	<path d="M333.9,434.1c-27.9,0-44.5-20.8-44.5-55.7c0-6.1,5-11.1,11.1-11.1s11.1,5,11.1,11.1c0,22.1,7.5,33.4,22.3,33.4
		c16.7,0,22.3-8.4,22.3-33.4c0-6.1,5-11.1,11.1-11.1s11.1,5,11.1,11.1C378.4,392.2,378.4,434.1,333.9,434.1z"/>
</g>
</svg>
