<?xml version="1.0" encoding="utf-8"?>
<!-- Generator: Adobe Illustrator 24.0.1, SVG Export Plug-In . SVG Version: 6.00 Build 0)  -->
<svg version="1.1" id="Layer_1" xmlns="http://www.w3.org/2000/svg" xmlns:xlink="http://www.w3.org/1999/xlink" x="0px" y="0px"
	 viewBox="0 0 100 100" style="enable-background:new 0 0 100 100;" xml:space="preserve">
<style type="text/css">
	.st0{fill:#D32F2F;}
	.st1{fill:#FFFFFF;}
</style>
<circle class="st0" cx="50" cy="50" r="50"/>
<g>
	<path class="st1" d="M49.9,38.5c-8.7,0-15.7,7-15.7,15.7c0,8.7,7,15.7,15.7,15.7c8.7,0,15.7-7,15.7-15.7
		C65.6,45.5,58.6,38.5,49.9,38.5z"/>
	<path class="st1" d="M77.5,27.5H62.7c0-0.3-0.1-0.8-0.3-1.2c-0.4-0.9-0.7-1.8-1.1-2.7c-1-2.4-3.8-4.3-6.2-4.3H44.7
		c-2.4,0-5.1,1.9-6.2,4.3c-0.4,0.9-0.7,1.8-1.1,2.7c-0.2,0.4-0.3,1-0.3,1.2h-6.5c0-1.4-1.2-2.7-2.8-2.7h-4.5c-1.5,0-2.8,1.3-2.8,2.8
		c0,0,0,0.1,0,0.1c-4.7,0.8-8.2,5.1-8.2,10.3v32.4c0,5.7,4.4,10.4,9.8,10.4h55.2c5.5,0,10-4.6,10-10.4V38
		C87.5,32.2,83,27.5,77.5,27.5z M28.3,41.7H17.8v-6.4h10.5V41.7z M49.9,74.4c-11.1,0-20.2-9-20.2-20.2c0-11.1,9-20.2,20.2-20.2
		s20.2,9,20.2,20.2C70.1,65.3,61.1,74.4,49.9,74.4z"/>
</g>
</svg>
