<?xml version="1.0" encoding="utf-8"?>
<!-- Generator: Adobe Illustrator 24.0.1, SVG Export Plug-In . SVG Version: 6.00 Build 0)  -->
<svg version="1.1" id="Layer_1" xmlns="http://www.w3.org/2000/svg" xmlns:xlink="http://www.w3.org/1999/xlink" x="0px" y="0px"
	 viewBox="0 0 512 512" style="enable-background:new 0 0 512 512;" xml:space="preserve">
<style type="text/css">
	.st0{fill:#83D8F4;}
	.st1{fill:#57565C;}
	.st2{fill:#FFD54F;}
	.st3{fill:#FFC107;}
	.st4{fill:#455A64;}
	.st5{fill:#FFA000;}
	.st6{fill:#91DD5A;}
	.st7{fill:#7ED63F;}
	.st8{fill:#FCFCFC;}
	.st9{fill:#FFFFFF;}
	.st10{fill:#6E87F5;}
</style>
<g>
	<circle class="st6" cx="256" cy="256" r="232.2"/>
	<path class="st7" d="M256,23.8c-10.3,0-20.4,0.7-30.3,2C339.6,40.6,427.6,138,427.6,256s-88,215.4-201.9,230.2c9.9,1.3,20,2,30.3,2
		c128.2,0,232.2-103.9,232.2-232.2S384.2,23.8,256,23.8z"/>
	<path class="st8" d="M255.5,371.5c-94.7-0.2-171.6-62.4-171.6-138.7C83.9,156.2,161.1,94,256,94s172.1,62.2,172.1,138.7v9.5
		c0,40.7-19.3,90-50.4,128.6c-32.5,40.5-72.9,64.3-113.6,67l-8.6,0.6L255.5,371.5L255.5,371.5z"/>
	<g>
		<path class="st6" d="M185.3,283.8h-30.3c-4.2,0-7.6-3.4-7.6-7.6v-60.6c0-4.2,3.4-7.6,7.6-7.6c4.2,0,7.6,3.4,7.6,7.6v53h22.7
			c4.2,0,7.6,3.4,7.6,7.6C192.9,280.4,189.5,283.8,185.3,283.8z"/>
		<path class="st6" d="M215.6,283.8c-4.2,0-7.6-3.4-7.6-7.6v-60.6c0-4.2,3.4-7.6,7.6-7.6c4.2,0,7.6,3.4,7.6,7.6v60.6
			C223.2,280.4,219.8,283.8,215.6,283.8z"/>
		<path class="st6" d="M296.4,283.8c-2.5,0-4.9-1.2-6.3-3.4l-26.5-39.8v35.6c0,4.2-3.4,7.6-7.6,7.6s-7.6-3.4-7.6-7.6v-60.6
			c0-3.3,2.2-6.3,5.4-7.2c3.2-1,6.6,0.3,8.5,3l26.5,39.8v-35.6c0-4.2,3.4-7.6,7.6-7.6s7.6,3.4,7.6,7.6v60.6c0,3.3-2.2,6.3-5.4,7.2
			C297.8,283.7,297.1,283.8,296.4,283.8z"/>
		<path class="st6" d="M367,253.5c4.2,0,7.6-3.4,7.6-7.6c0-4.2-3.4-7.6-7.6-7.6h-22.7v-15.1H367c4.2,0,7.6-3.4,7.6-7.6
			c0-4.2-3.4-7.6-7.6-7.6h-30.3c-4.2,0-7.6,3.4-7.6,7.6v60.6c0,4.2,3.4,7.6,7.6,7.6H367c4.2,0,7.6-3.4,7.6-7.6
			c0-4.2-3.4-7.6-7.6-7.6h-22.7v-15.1L367,253.5L367,253.5z"/>
	</g>
	<path d="M425.5,86.5C380.2,41.2,320,16.3,256,16.3S131.8,41.2,86.5,86.5C41.2,131.8,16.3,192,16.3,256s24.9,124.2,70.2,169.5
		c45.3,45.3,105.5,70.2,169.5,70.2s124.2-24.9,169.5-70.2c45.3-45.3,70.2-105.5,70.2-169.5S470.8,131.8,425.5,86.5z M256,480.6
		C132.2,480.6,31.4,379.8,31.4,256S132.2,31.4,256,31.4S480.6,132.2,480.6,256S379.8,480.6,256,480.6z"/>
	<path d="M185.3,268.6h-22.7v-53c0-4.2-3.4-7.6-7.6-7.6c-4.2,0-7.6,3.4-7.6,7.6v60.6c0,4.2,3.4,7.6,7.6,7.6h30.3
		c4.2,0,7.6-3.4,7.6-7.6C192.9,272,189.5,268.6,185.3,268.6z"/>
	<path d="M215.6,208.1c-4.2,0-7.6,3.4-7.6,7.6v60.6c0,4.2,3.4,7.6,7.6,7.6c4.2,0,7.6-3.4,7.6-7.6v-60.6
		C223.2,211.4,219.8,208.1,215.6,208.1z"/>
	<path d="M296.4,208.1c-4.2,0-7.6,3.4-7.6,7.6v35.6l-26.5-39.8c-1.9-2.8-5.3-4-8.5-3c-3.2,1-5.4,3.9-5.4,7.2v60.6
		c0,4.2,3.4,7.6,7.6,7.6c4.2,0,7.6-3.4,7.6-7.6v-35.6l26.5,39.8c1.4,2.1,3.8,3.4,6.3,3.4c0.7,0,1.5-0.1,2.2-0.3
		c3.2-1,5.4-3.9,5.4-7.2v-60.6C303.9,211.4,300.6,208.1,296.4,208.1z"/>
	<path d="M367,223.2c4.2,0,7.6-3.4,7.6-7.6c0-4.2-3.4-7.6-7.6-7.6h-30.3c-4.2,0-7.6,3.4-7.6,7.6v60.6c0,4.2,3.4,7.6,7.6,7.6H367
		c4.2,0,7.6-3.4,7.6-7.6c0-4.2-3.4-7.6-7.6-7.6h-22.7v-15.1H367c4.2,0,7.6-3.4,7.6-7.6c0-4.2-3.4-7.6-7.6-7.6h-22.7v-15.1L367,223.2
		L367,223.2z"/>
	<path d="M382.1,129.1c-33.8-27.2-78.5-42.2-126.1-42.2s-92.3,15-126.1,42.2c-34.2,27.6-53.1,64.4-53.1,103.6
		c0,33.5,13.7,65.2,39,90.9c2.9,3,7.7,3,10.7,0.1c0,0,0.1-0.1,0.1-0.1c2.9-2.9,2.9-7.6,0.1-10.5C105,290.9,92,263,92,232.7
		c0-72.1,73.6-130.7,164-130.7s164,58.6,164,130.7v9.5c0,38.9-18.6,86.3-48.6,123.6c-31.3,38.9-69.3,61.4-107.9,64V371
		c0-4.2-3.4-7.6-7.5-7.6c-38.4,0-73.8-10.6-101.8-28.2c-3-1.9-6.9-1.5-9.4,1l-0.1,0.1c-3.4,3.4-2.8,9.1,1.3,11.6
		c29.3,18.6,64.8,29.2,102.4,30.5v59.3c0,4.2,3.4,7.6,7.5,7.6c24,0,47.7-6.8,70.6-20.1c20.4-11.9,40-29.1,56.6-49.9
		c32-39.9,51.9-90.9,51.9-133.1v-9.5C435.2,193.5,416.3,156.7,382.1,129.1z"/>
</g>
</svg>
