<?xml version="1.0" encoding="utf-8"?>
<!-- Generator: Adobe Illustrator 24.0.1, SVG Export Plug-In . SVG Version: 6.00 Build 0)  -->
<svg version="1.1" id="Layer_1" xmlns="http://www.w3.org/2000/svg" xmlns:xlink="http://www.w3.org/1999/xlink" x="0px" y="0px"
	 viewBox="0 0 100 100" style="enable-background:new 0 0 100 100;" xml:space="preserve">
<style type="text/css">
	.st0{fill:#F2F2F2;}
	.st1{fill:#D32F2F;}
	.st2{fill:#FFFFFF;}
	.st3{fill:#592B49;}
	.st4{fill:#291221;}
	.st5{fill:#DA2286;}
	.st6{fill:#5E3C16;}
	.st7{fill:#472E11;}
	.st8{fill:#DF871E;}
	.st9{fill:#2A4997;}
	.st10{fill:#263364;}
	.st11{fill:#76C8DA;}
	.st12{fill:#151F45;}
	.st13{fill:#C9E1F6;}
	.st14{fill:#41B783;}
	.st15{fill:#34495E;}
	.st16{fill:#E64C18;}
	.st17{fill:#F36518;}
	.st18{fill:#2196F3;}
	.st19{fill:#FAFAFA;}
	.st20{fill:#37474F;}
	.st21{fill:#FFC107;}
	.st22{fill:#02C58E;}
	.st23{fill:#304A5F;}
	.st24{fill:#FEFEFE;}
	.st25{fill:#414042;}
</style>
<g>
	<circle class="st10" cx="50" cy="50" r="50"/>
	<path class="st12" d="M70,39.2c-0.6,0.4-1.2,1-1.9,1.8L66,38.9h-8.7v14.6L29.6,25.8h-9.9v48.5l25.5,25.5c1.6,0.2,3.2,0.2,4.8,0.2
		c24.6,0,45-17.7,49.2-41.1l-19-19C77.1,38,73,37.3,70,39.2z"/>
	<g>
		<path class="st13" d="M19.7,74.3V25.8h9.9v40.2h24.5v8.2L19.7,74.3L19.7,74.3z"/>
		<path class="st13" d="M66.6,74.3h-9.4V38.9H66v5c1.5-2.4,2.8-3.9,4-4.7c3-1.9,7.1-1.2,10.2,0.6L77.3,48c-2.5-1.6-5.5-2.2-7.7-0.5
			c-0.9,0.7-1.6,2-2.2,3.9C66.5,55,66.6,63.6,66.6,74.3z"/>
	</g>
</g>
</svg>
