<?xml version="1.0" encoding="utf-8"?>
<!-- Generator: Adobe Illustrator 24.0.1, SVG Export Plug-In . SVG Version: 6.00 Build 0)  -->
<svg version="1.1" id="Layer_1" xmlns="http://www.w3.org/2000/svg" xmlns:xlink="http://www.w3.org/1999/xlink" x="0px" y="0px"
	 viewBox="0 0 400 400" style="enable-background:new 0 0 400 400;" xml:space="preserve">
<style type="text/css">
	.st0{fill:#EBEBEB;}
	.st1{fill:#D6CED0;}
	.st2{fill:#3F3D56;}
	.st3{fill:#D32F2F;}
	.st4{fill:none;stroke:#3F3D56;stroke-width:0.4028;stroke-miterlimit:10;}
	.st5{fill:#FFB6B6;}
	.st6{fill:#2F2E41;}
	.st7{opacity:0.1;fill:#D32F2F;enable-background:new    ;}
	.st8{opacity:0.5;}
	.st9{fill:none;stroke:#535461;stroke-width:0.7767;stroke-miterlimit:10;}
	.st10{opacity:0.1;enable-background:new    ;}
	.st11{fill:#FFD037;}
	.st12{fill:#A8A8A8;}
	.st13{opacity:0.2;enable-background:new    ;}
	.st14{fill:#E6E6F0;}
	.st15{fill:#FDC2CC;}
	.st16{fill:#565171;}
	.st17{fill:#B45181;}
	.st18{opacity:0.1;}
	.st19{fill:#F569BC;}
	.st20{fill:#F7DF1E;}
	.st21{fill:url(#SVGID_1_);}
	.st22{fill:#4F4D59;}
	.st23{fill:#C48C96;}
	.st24{fill:#714B4F;}
	.st25{fill:#BA7855;}
	.st26{fill:#503F43;}
	.st27{fill:#E44D26;}
	.st28{fill:#F16529;}
	.st29{fill:#FFFFFF;}
	.st30{fill:url(#SVGID_2_);}
	.st31{opacity:5.000000e-02;enable-background:new    ;}
	.st32{fill:#264DE4;}
	.st33{fill:#2965F1;}
	.st34{fill:#47465A;}
	.st35{opacity:0.3;fill:#FFFFFF;enable-background:new    ;}
	.st36{fill:#E1A0A7;}
	.st37{fill:#8F5A6A;}
	.st38{opacity:5.000000e-02;}
	.st39{fill:#F2F2F2;}
	.st40{fill:#9F616A;}
	.st41{opacity:0.7;}
	.st42{fill:url(#SVGID_3_);}
	.st43{fill:#BDBDBD;}
	.st44{fill:#535461;}
	.st45{fill:url(#SVGID_4_);}
	.st46{fill:#E0E0E0;}
	.st47{fill:none;stroke:#D32F2F;stroke-width:0.8235;stroke-miterlimit:10;}
	.st48{fill:none;stroke:#FFFFFF;stroke-width:0.4118;stroke-miterlimit:10;}
	.st49{fill:url(#SVGID_5_);}
	.st50{opacity:0.6;fill:none;stroke:#535461;stroke-width:1.2353;stroke-miterlimit:10;enable-background:new    ;}
	.st51{fill:#4DB6AC;}
	.st52{opacity:0.3;fill:none;stroke:#535461;stroke-width:0.4118;stroke-miterlimit:10;enable-background:new    ;}
	.st53{fill:url(#SVGID_6_);}
	.st54{fill:#3AD29F;}
	.st55{fill:#4D8AF0;}
	.st56{fill:#F55F44;}
</style>
<circle class="st0" cx="200" cy="200" r="200"/>
<g>
	<path class="st1" d="M400,331.1c0,1.7-1.5,3.3-4.3,4.8c-14.5,7.8-63.7,13.6-122.1,13.6c-2.3,0-4.6,0-6.9,0
		C200,348.9,147,340.9,147,331.1c0-10.1,56.6-18.3,126.5-18.3c19.1,0,37.3,0.6,53.5,1.7c4.1,0.3,8,0.6,11.9,0.9
		c1.6,0.1,3.2,0.3,4.7,0.4c7.3,0.7,14.1,1.5,20.2,2.4c3,0.4,5.8,0.9,8.4,1.4c6.9,1.3,12.7,2.6,17.2,4.1
		C396.2,326,400,328.5,400,331.1z"/>
	<path class="st1" d="M253,238.3c0,6.7-56.6,12.1-126.5,12.1c-11.5,0-22.7-0.1-33.4-0.4c-41-1.1-73.7-4.1-86.8-7.9
		c-4.1-1.2-6.3-2.5-6.3-3.8c0-1.5,2.9-3,8.2-4.3c3.1-0.8,7-1.5,11.6-2.2c0,0,0.1,0,0.1,0c10.6-1.6,24.8-2.9,41.7-3.9
		c19-1.1,41.2-1.7,65-1.7C196.3,226.2,253,231.6,253,238.3z"/>
	<path class="st2" d="M247.2,178.9l-9.2-2.6c0,0-3.6-0.7-1.4-7.8c2.2-7.1,6.6-5.1,6.6-5.1l8.2,2.4l3.2,1l-4.6,6.4l-0.4,4.3
		L247.2,178.9z"/>
	<polygon class="st2" points="265.1,160.3 268,171.8 253.1,186.2 251.8,186.6 248.4,185.6 245.5,174 248.5,170.9 245.5,170.1 
		251.9,163.9 255.2,164.6 257.9,162 256.1,161.2 255.9,160.6 258.1,158.8 	"/>
	<polygon class="st3" points="251.2,176.6 253.1,184.3 261.9,175.9 259.7,168.1 	"/>
	<polygon class="st4" points="265.1,160.3 265.5,161.9 250.7,176.3 249.4,176.6 246.1,175.7 246,175.7 245.5,174 248.5,170.9 
		245.5,170.1 251.9,163.9 255.2,164.6 257.9,162 256.1,161.2 255.9,160.6 258.1,158.8 	"/>
	
		<ellipse transform="matrix(0.9701 -0.2429 0.2429 0.9701 -31.1571 67.5181)" class="st3" cx="258.3" cy="160.1" rx="1.2" ry="0.8"/>
	
		<ellipse transform="matrix(0.9701 -0.2429 0.2429 0.9701 -34.4466 65.6109)" class="st3" cx="248.9" cy="172.5" rx="1.2" ry="0.8"/>
	<path class="st5" d="M241.1,193.4l2-6.8c0,0-5.2-12.5,0.8-13.7c6-1.2,6.4,11.7,6.4,11.7l-2.4,7.7L241.1,193.4z"/>
	<circle class="st5" cx="278.5" cy="164" r="16"/>
	<path class="st5" d="M273.3,175.3c0,0-0.9,11.8-3.3,12.7c-2.4,0.9,25.4,7.5,25.4,7.5l-7.1-8c0,0-1.4-12.2,1.9-15.1L273.3,175.3z"/>
	<path class="st3" d="M250.8,189.7l-6.4-0.8c0,0-7.7,4-7.7,9.3c0,5.2-4.4,13.7-4.4,13.7s-3.2,11.3,4,12.1
		c7.3,0.8,13.7-12.1,13.7-12.1L250.8,189.7z"/>
	<path class="st6" d="M247.1,253.8c0,0-14.1-13.3-18.1-12.5c-4,0.8-12.1,2-12.1,8.1s13.3,20.1,13.3,20.1s10.1,22.2,19.7,23
		c6.4,0.6,12.7,1.5,18.9,2.8c0,0-4.4,16.1-2,20.5c2.4,4.4,11.7,9.7,12.5,9.3c0.8-0.4,12.1-10.9,16.9-25.8s8.1-26.2,3.6-27
		C295.5,271.5,247.1,253.8,247.1,253.8z"/>
	<path class="st6" d="M218.1,248.1c0,0-2.8-0.4-2.4,6.4c0.4,6.8,1.6,31.4,3.6,36.3s2.4,10.5,1.6,12.5s-2.4,5.2,0.4,5.6
		c2.8,0.4,14.5-1.2,15.7-1.6c1.2-0.4,2.4-7.3,1.6-7.3c-0.8,0-2.8-0.4-2-3.2c0.8-2.8,1.2-2.8,0-3.6c-1.2-0.8-4.4-2-3.6-2.8
		c0.8-0.8,1.6-19.7,1.6-19.7L218.1,248.1z"/>
	<path class="st6" d="M222.2,307.8c0,0-6.8-2-7.7,2.4c0,0-1.2,6.8,4,9.3c3.4,1.6,6.6,3.5,9.7,5.6c0,0,8.5,3.2,8.9-0.8
		s-1.6-18.5-1.6-18.5L222.2,307.8z"/>
	<path class="st6" d="M267.7,312.6l12.9-10.5c0,0-2.4,12.9,0.8,15.3l1.5,4.3l-4.1,3.4C278.7,325.1,266.1,323.1,267.7,312.6z"/>
	<path class="st6" d="M285.8,294.9c0,0-8.5,2.4-7.3,10.9c1.2,8.5,2.8,17.6,2.8,17.6s0.5,22.6,6.5,24.2c6,1.6,7.7-1.6,7.7-1.6
		s6.9-17.7,4.8-23c-2.5-6.4-6-13.6-4.8-15.7C296.6,305.2,294.7,293.7,285.8,294.9z"/>
	<path class="st3" d="M290.6,183.7c0,0-3.2,0.4-8.5,1.2c-5.2,0.8-8.9-3.2-11.7-2.4c-2.8,0.8-26.2,6.4-26.2,6.4l3.6,27.8
		c0,0-4.4,32.2-3.6,37.9c0.8,5.6-9.7,4.8-3.6,11.7s16.5,12.9,37.9,10.9c21.3-2,24.2-1.6,24.2-4.8c0-3.2-4.8-30.6-3.2-33
		c1.6-2.4,4.8-5.2,3.2-8.1c-1.6-2.8-3.2-4.4-0.8-6.8c2.4-2.4,3.6-4.8,3.6-6c0-1.2,5.6-20.9,5.6-20.9s-2.4-9.7-5.2-10.1
		c-2.8-0.4-5.2-2.4-7.3-2.4s-3.2,0.4-4.4,0L290.6,183.7z"/>
	<path class="st6" d="M255.5,161.2c1.9-0.2,3.8-1.4,4.8-2c1.2,1.1,8.4,7.6,20.7,9.5c0,0,0-0.2,0.1-0.7l4.2,0.7l7.8-0.8
		c0,0.1-0.1,0.2-0.1,0.2s1.1-0.3,1.5-2.8c0.1-0.5,0.2-1,0.3-1.4c0.6-2.9,2.2-13.2-6.5-20.2c-6.3-5-13.6-3.5-18.2-1.5
		c-3.8,1.6-6.8,4.6-8.3,8.4c-0.4,0.9-0.6,1.9-0.7,2.9L261,154c-1.4,0.2-4.2-1-5.7-0.4c-2.1,0.8-3.1,3.9-3.3,4.8
		C251.8,159.4,252.8,161.5,255.5,161.2z M282.2,164.1c1.1-2.9,3.2-6,7.1-5.9c4,0.2,4.7,3.3,4.6,6.1l-10,0.4L282.2,164.1z"/>
	
		<ellipse transform="matrix(0.1682 -0.9857 0.9857 0.1682 95.3127 394.4487)" class="st6" cx="281.4" cy="140.7" rx="0.7" ry="1.8"/>
	<circle class="st3" cx="149.4" cy="61" r="10.5"/>
	<path class="st6" d="M132.1,127.6c0-0.1-3.5-14.3-4.1-29.2c-0.4-8.8,0.4-16.1,2.1-21.8c2.2-7.2,6.1-11.7,11.6-13.5l0.3,0.8
		c-11.8,3.9-13.7,20.9-13.1,34.5c0.6,14.8,4.1,28.9,4.1,29.1L132.1,127.6z"/>
	<path class="st2" d="M176.6,206.8c-5.6,7.3,0.8,21.5,0.8,21.5s15.4,2.4,21-4.9s-0.8-21.5-0.8-21.5S182.2,199.5,176.6,206.8z"/>
	<path class="st2" d="M70.7,218.8c4.6,5.4,16.4,2.9,16.4,2.9s4.3-11.2-0.3-16.6c-4.6-5.4-16.4-2.9-16.4-2.9S66.1,213.4,70.7,218.8z"
		/>
	<path class="st6" d="M196.8,238.2c-45-24.5-80.5-23.2-102.4-17.8c-23.6,5.8-36.8,17.6-36.9,17.7l-0.5-0.6
		c0.1-0.1,13.4-12,37.3-17.9c14-3.5,28.8-4.2,44.1-2.2c19.1,2.5,38.9,9.2,58.9,20.1L196.8,238.2z"/>
	<rect x="126.7" y="166.2" class="st6" width="0.8" height="50.6"/>
	<circle class="st2" cx="127.3" cy="180.7" r="29"/>
	<circle class="st2" cx="127.3" cy="131.9" r="21.8"/>
	<circle class="st2" cx="127.3" cy="95.7" r="16.9"/>
</g>
</svg>
