<?xml version="1.0" encoding="utf-8"?>
<!-- Generator: Adobe Illustrator 24.0.1, SVG Export Plug-In . SVG Version: 6.00 Build 0)  -->
<svg version="1.1" id="Layer_1" xmlns="http://www.w3.org/2000/svg" xmlns:xlink="http://www.w3.org/1999/xlink" x="0px" y="0px"
	 viewBox="0 0 400 400" style="enable-background:new 0 0 400 400;" xml:space="preserve">
<style type="text/css">
	.st0{fill:#EBEBEB;}
	.st1{fill:#D6CED0;}
	.st2{fill:#3F3D56;}
	.st3{fill:#D32F2F;}
	.st4{fill:none;stroke:#3F3D56;stroke-width:0.4028;stroke-miterlimit:10;}
	.st5{fill:#FFB6B6;}
	.st6{fill:#2F2E41;}
	.st7{opacity:0.1;fill:#D32F2F;enable-background:new    ;}
	.st8{opacity:0.5;}
	.st9{fill:none;stroke:#535461;stroke-width:0.7767;stroke-miterlimit:10;}
	.st10{opacity:0.1;enable-background:new    ;}
	.st11{fill:#FFD037;}
	.st12{fill:#A8A8A8;}
	.st13{opacity:0.2;enable-background:new    ;}
	.st14{fill:#E6E6F0;}
	.st15{fill:#FDC2CC;}
	.st16{fill:#565171;}
	.st17{fill:#B45181;}
	.st18{opacity:0.1;}
	.st19{fill:#F569BC;}
	.st20{fill:#F7DF1E;}
	.st21{fill:url(#SVGID_1_);}
	.st22{fill:#4F4D59;}
	.st23{fill:#C48C96;}
	.st24{fill:#714B4F;}
	.st25{fill:#BA7855;}
	.st26{fill:#503F43;}
	.st27{fill:#E44D26;}
	.st28{fill:#F16529;}
	.st29{fill:#FFFFFF;}
	.st30{fill:url(#SVGID_2_);}
	.st31{opacity:5.000000e-02;enable-background:new    ;}
	.st32{fill:#264DE4;}
	.st33{fill:#2965F1;}
	.st34{fill:#47465A;}
	.st35{opacity:0.3;fill:#FFFFFF;enable-background:new    ;}
	.st36{fill:#E1A0A7;}
	.st37{fill:#8F5A6A;}
	.st38{opacity:5.000000e-02;}
	.st39{fill:#F2F2F2;}
	.st40{fill:#9F616A;}
	.st41{opacity:0.7;}
	.st42{fill:url(#SVGID_3_);}
	.st43{fill:#BDBDBD;}
	.st44{fill:#535461;}
	.st45{fill:url(#SVGID_4_);}
	.st46{fill:#E0E0E0;}
	.st47{fill:none;stroke:#D32F2F;stroke-width:0.8235;stroke-miterlimit:10;}
	.st48{fill:none;stroke:#FFFFFF;stroke-width:0.4118;stroke-miterlimit:10;}
	.st49{fill:url(#SVGID_5_);}
	.st50{opacity:0.6;fill:none;stroke:#535461;stroke-width:1.2353;stroke-miterlimit:10;enable-background:new    ;}
	.st51{fill:#4DB6AC;}
	.st52{opacity:0.3;fill:none;stroke:#535461;stroke-width:0.4118;stroke-miterlimit:10;enable-background:new    ;}
	.st53{fill:url(#SVGID_6_);}
	.st54{fill:#3AD29F;}
	.st55{fill:#4D8AF0;}
	.st56{fill:#F55F44;}
</style>
<circle class="st0" cx="200" cy="200" r="200"/>
<g>
	<g class="st41">
		
			<linearGradient id="SVGID_1_" gradientUnits="userSpaceOnUse" x1="314.0741" y1="-506.7884" x2="314.0741" y2="-313.6483" gradientTransform="matrix(1 0 0 -1 -114.28 -217)">
			<stop  offset="0" style="stop-color:#808080;stop-opacity:0.25"/>
			<stop  offset="0.54" style="stop-color:#808080;stop-opacity:0.12"/>
			<stop  offset="1" style="stop-color:#808080;stop-opacity:0.1"/>
		</linearGradient>
		<path class="st21" d="M304,96.6H95.5c-3.7,0-6.7,3-6.7,6.8v143.5c0,3.7,3,6.7,6.7,6.8h71.7v24.8H164c-1.9,0-3.4,1.5-3.4,3.4
			c0,0,0,0,0,0v5h6.7v2.9h65.1v-2.9h6.7v-5c0-1.9-1.5-3.4-3.4-3.4c0,0,0,0,0,0h-3.1v-0.2h-0.2v-24.6H304c3.7,0,6.7-3,6.7-6.8V103.4
			C310.8,99.7,307.8,96.7,304,96.6z"/>
	</g>
	<rect x="167.9" y="249.4" class="st43" width="64.2" height="37.9"/>
	<g class="st18">
		<path d="M169.1,253.1H231c0.7-3.2,1.3-5.4,1.3-5.4h-64.6C167.7,247.8,168.3,249.9,169.1,253.1z"/>
	</g>
	<path class="st44" d="M97.1,97.9h205.8c3.7,0,6.6,3,6.6,6.6v126.8l0,0H90.5l0,0V104.5C90.5,100.9,93.4,97.9,97.1,97.9
		C97.1,97.9,97.1,97.9,97.1,97.9z"/>
	<path class="st43" d="M302.9,251.9H97.1c-3.7,0-6.6-3-6.6-6.6v-14h219.1v14C309.5,248.9,306.6,251.9,302.9,251.9z"/>
	<circle class="st44" cx="200" cy="241.6" r="3.7"/>
	<path class="st43" d="M164.7,276.2h70.7c1.9,0,3.4,1.5,3.4,3.4v4.9l0,0h-77.4l0,0v-4.9C161.3,277.7,162.8,276.2,164.7,276.2
		C164.7,276.2,164.7,276.2,164.7,276.2z"/>
	<g class="st8">
		
			<linearGradient id="SVGID_2_" gradientUnits="userSpaceOnUse" x1="200" y1="-221.2447" x2="200" y2="-143.9326" gradientTransform="matrix(1 0 0 -1 0 -18)">
			<stop  offset="0" style="stop-color:#808080;stop-opacity:0.25"/>
			<stop  offset="0.54" style="stop-color:#808080;stop-opacity:0.12"/>
			<stop  offset="1" style="stop-color:#808080;stop-opacity:0.1"/>
		</linearGradient>
		<path class="st30" d="M133.9,125.9h132.2c1,0,1.9,0.8,1.9,1.9v73.6c0,1-0.8,1.9-1.9,1.9H133.9c-1,0-1.9-0.8-1.9-1.9v-73.6
			C132.1,126.8,132.9,125.9,133.9,125.9z"/>
	</g>
	<path class="st29" d="M135.7,126.5h128.7c1,0,1.9,0.8,1.9,1.9v72c0,1-0.8,1.9-1.9,1.9H135.7c-1,0-1.9-0.8-1.9-1.9v-72
		C133.8,127.3,134.6,126.5,135.7,126.5z"/>
	<g class="st8">
		<path class="st3" d="M172.5,137.4h10.9c1,0,1.9,0.8,1.9,1.9v9.4c0,1-0.8,1.9-1.9,1.9h-10.9c-1,0-1.9-0.8-1.9-1.9v-9.4
			C170.7,138.2,171.5,137.4,172.5,137.4z"/>
	</g>
	<path class="st46" d="M190.4,137.4h37.9c0.4,0,0.7,0.3,0.7,0.7l0,0c0,0.4-0.3,0.7-0.7,0.7h-37.9c-0.4,0-0.7-0.3-0.7-0.7l0,0
		C189.7,137.7,190,137.4,190.4,137.4z"/>
	<path class="st46" d="M190.4,141.8h31.3c0.4,0,0.7,0.3,0.7,0.7l0,0c0,0.4-0.3,0.7-0.7,0.7h-31.3c-0.4,0-0.7-0.3-0.7-0.7l0,0
		C189.7,142.1,190,141.8,190.4,141.8z"/>
	<g class="st8">
		<path class="st3" d="M172.5,157.8h10.9c1,0,1.9,0.8,1.9,1.9v9.4c0,1-0.8,1.9-1.9,1.9h-10.9c-1,0-1.9-0.8-1.9-1.9v-9.4
			C170.7,158.6,171.5,157.8,172.5,157.8z"/>
	</g>
	<path class="st46" d="M190.4,157.8h37.9c0.4,0,0.7,0.3,0.7,0.7l0,0c0,0.4-0.3,0.7-0.7,0.7h-37.9c-0.4,0-0.7-0.3-0.7-0.7l0,0
		C189.7,158.1,190,157.8,190.4,157.8z"/>
	<path class="st46" d="M190.4,162.2h37.9c0.4,0,0.7,0.3,0.7,0.7v0c0,0.4-0.3,0.7-0.7,0.7h-37.9c-0.4,0-0.7-0.3-0.7-0.7v0
		C189.7,162.5,190,162.2,190.4,162.2z"/>
	<g class="st8">
		<path class="st3" d="M172.5,178.2h10.9c1,0,1.9,0.8,1.9,1.9v9.4c0,1-0.8,1.9-1.9,1.9h-10.9c-1,0-1.9-0.8-1.9-1.9v-9.4
			C170.7,179.1,171.5,178.2,172.5,178.2z"/>
	</g>
	<path class="st46" d="M190.4,178.2h37.9c0.4,0,0.7,0.3,0.7,0.7l0,0c0,0.4-0.3,0.7-0.7,0.7h-37.9c-0.4,0-0.7-0.3-0.7-0.7l0,0
		C189.7,178.6,190,178.2,190.4,178.2z"/>
	<path class="st46" d="M190.3,182.6h38.4c0.4,0,0.7,0.3,0.7,0.7v0.1c0,0.4-0.3,0.7-0.7,0.7h-38.4c-0.4,0-0.7-0.3-0.7-0.7v-0.1
		C189.7,182.9,189.9,182.6,190.3,182.6z"/>
	<line class="st47" x1="200" y1="113.9" x2="200" y2="104.9"/>
	<line class="st47" x1="200" y1="129.2" x2="200" y2="117.3"/>
	<circle class="st3" cx="200" cy="129.2" r="1.6"/>
	<circle class="st48" cx="200" cy="115.6" r="1.6"/>
	<line class="st47" x1="200" y1="113.9" x2="200" y2="104.9"/>
	<line class="st47" x1="200" y1="129.2" x2="200" y2="117.3"/>
	<circle class="st3" cx="200" cy="129.2" r="1.6"/>
	<circle class="st48" cx="200" cy="115.6" r="1.6"/>
	<line class="st47" x1="200" y1="211.5" x2="200" y2="224.3"/>
	<line class="st47" x1="200" y1="200" x2="200" y2="211.9"/>
	<circle class="st3" cx="200" cy="200" r="1.6"/>
	<line class="st47" x1="125.9" y1="166" x2="112.9" y2="166"/>
	<line class="st47" x1="137.2" y1="166" x2="125.3" y2="166"/>
	<circle class="st3" cx="137.2" cy="166" r="1.6"/>
	<g class="st18">
		<rect x="168.1" y="276" width="64.2" height="1.2"/>
	</g>
	<g class="st41">
		
			<linearGradient id="SVGID_3_" gradientUnits="userSpaceOnUse" x1="121.5772" y1="-443.7465" x2="191.9832" y2="-443.7465" gradientTransform="matrix(1 0 0 -1 -114.28 -217)">
			<stop  offset="0" style="stop-color:#808080;stop-opacity:0.25"/>
			<stop  offset="0.54" style="stop-color:#808080;stop-opacity:0.12"/>
			<stop  offset="1" style="stop-color:#808080;stop-opacity:0.1"/>
		</linearGradient>
		<path class="st42" d="M73.8,247.8H44l0.4-3.4c8.4-7.6,13.9-27.7,13.9-27.7c-0.1,0-0.2,0-0.4,0.1c-4.9,1-8.5,3-10.9,5.5l1-8.9
			c15.6-3.4,21.7-23.9,21.7-23.9c-9.9,2.2-16.1,5.6-20,8.8l1.5-13.1c10.5,3.6,21.4-15.6,21.4-15.6l-0.4-0.1l0.2-0.1l-0.3,0.1
			c-11.6-2.5-17.8,4.1-19.9,6.9l0.2-1.3c-0.3,0.8-0.6,1.6-0.9,2.4l0,0v0c-0.8,2.2-1.6,4.4-2.3,6.6l0,0l0,0c-0.6,1.9-1.2,3.7-1.7,5.5
			v0c0,0-0.5-11.7-12.8-14.8c0,0,1.3,25.6,11.1,21.4l0,0c-0.9,3.7-1.6,7.3-2.3,10.7l0,0c-0.4,2.3-0.8,4.4-1.1,6.6l-0.1,0.1l0.1,0
			l0,0.2l0,0l0,0c-0.3,1.9-0.5,3.8-0.7,5.7c0.2-3.5-0.5-13.8-12.5-23.4c0,0-16.1,28.2,11.3,33.8c0.1,0.1,0.1,0.1,0.2,0.2l0-0.1
			l0.2,0.1l0.1-1.4c-0.3,6-0.3,12.1,0.1,18.2l0,0c0,0.4,0.1,0.8,0.1,1.2H11.2c-11.5,23.8,6.4,36.8,6.4,36.8H67
			C86.1,260.4,73.8,247.8,73.8,247.8z M41.7,220.7L41.7,220.7L41.7,220.7z"/>
	</g>
	<path class="st50" d="M42.3,256.8c0,0-7.8-34.2,9.5-78.2"/>
	<path class="st3" d="M11.8,246.5h60.5c0,0,11.9,15.2-6.6,37.9H18C18,284.4,0.7,268.8,11.8,246.5z"/>
	<path class="st51" d="M50.9,180.9c0,0,6-10.7,20.4-7.4c0,0-11.9,20.3-22.6,13.6L50.9,180.9z"/>
	<path class="st51" d="M47.1,192.2c0,0-0.5-10.9-12.4-13.8c0,0,1.2,23.9,10.7,20L47.1,192.2z"/>
	<path class="st51" d="M43.2,208.4c0,0,2.2-11.5,25.3-16.4c0,0-7.4,23.7-26.3,22.8L43.2,208.4z"/>
	<path class="st51" d="M41.3,221.3c0,0,2.4-12-12-23.1c0,0-15.6,26.6,11.3,31.6L41.3,221.3z"/>
	<path class="st51" d="M40.9,237.7c0,0-1.7-17,16.4-20.2c0,0-6.6,23.7-16.5,27.9L40.9,237.7z"/>
	<path class="st52" d="M48.9,187.2c0,0,15.6-11.9,22.2-14"/>
	<path class="st52" d="M42.1,214.6c0,0,18.9-20.2,26.4-22.6"/>
	<path class="st52" d="M34.7,178.4c0,0,11.5,15.6,10.7,19.8"/>
	<path class="st52" d="M29.3,198.1c0,0,6.2,28,11.1,31.7"/>
	<path class="st52" d="M40.9,245.5c0,0,9.9-27.2,16.5-28"/>
	<g class="st18">
		<path d="M72.4,246.5H11.8c-0.1,0.3-0.3,0.6-0.4,0.8h58.9c0,0,11.6,14.9-5.9,37.1h1.4C84.3,261.8,72.4,246.5,72.4,246.5z"/>
	</g>
	<rect y="284.2" class="st46" width="400" height="13.6"/>
	<rect x="16.9" y="297.8" class="st46" width="366.1" height="5.5"/>
	<rect x="16.9" y="297.8" class="st10" width="366.1" height="1.8"/>
	<line class="st47" x1="284.2" y1="166" x2="286.7" y2="166"/>
	<line class="st47" x1="262.4" y1="166" x2="280.9" y2="166"/>
	<circle class="st3" cx="262.4" cy="166" r="1.6"/>
	<circle class="st48" cx="282.6" cy="166" r="1.6"/>
	<g class="st41">
		
			<linearGradient id="SVGID_4_" gradientUnits="userSpaceOnUse" x1="451.396" y1="-465.7009" x2="491.732" y2="-465.7009" gradientTransform="matrix(1 0 0 -1 -114.28 -217)">
			<stop  offset="0" style="stop-color:#808080;stop-opacity:0.25"/>
			<stop  offset="0.54" style="stop-color:#808080;stop-opacity:0.12"/>
			<stop  offset="1" style="stop-color:#808080;stop-opacity:0.1"/>
		</linearGradient>
		<path class="st45" d="M375.8,279.8L375.8,279.8c0.1-0.2,0.2-0.3,0.3-0.5l0-0.1c0.1-0.1,0.2-0.3,0.2-0.4l0-0.1
			c0.1-0.2,0.2-0.3,0.2-0.5l0,0c0.1-0.3,0.3-0.7,0.4-1l0-0.1c0-0.1,0.1-0.3,0.1-0.4l0-0.2c0-0.1,0.1-0.2,0.1-0.4c0-0.1,0-0.1,0-0.2
			c0-0.1,0-0.2,0.1-0.3c0-0.1,0-0.1,0-0.2c0-0.1,0-0.3,0-0.4c0-0.1,0-0.1,0-0.2c0-0.2,0-0.4,0-0.6v-34h-5.7v-16.7h-7v16.7h-4.8
			v-23.9h-7v23.9h-2.6V213h-7v27.4h-6.2v34c0,5.6,4.6,10,10.3,10h19.8c3.3,0,6.4-1.5,8.3-4.1l0,0C375.6,280.1,375.7,280,375.8,279.8
			z"/>
	</g>
	<rect x="344.1" y="228.8" class="st44" width="6.6" height="41.2"/>
	<rect x="344.1" y="215.2" class="st54" width="6.6" height="13.6"/>
	<rect x="353.2" y="232.1" class="st44" width="6.6" height="41.2"/>
	<rect x="353.2" y="218.5" class="st55" width="6.6" height="13.6"/>
	<rect x="364.3" y="239.1" class="st44" width="6.6" height="41.2"/>
	<rect x="364.3" y="225.5" class="st56" width="6.6" height="13.6"/>
	<path class="st3" d="M338.4,241.6h37.9l0,0v32.7c0,5.3-4.3,9.7-9.7,9.7H348c-5.3,0-9.7-4.3-9.7-9.7V241.6L338.4,241.6z"/>
	<g class="st18">
		<path d="M338.4,241.6v1.6h36.2V276c0,2.2-0.7,4.3-2.1,6c2.3-1.8,3.7-4.6,3.7-7.6v-32.7H338.4z"/>
	</g>
</g>
</svg>
