<?xml version="1.0" encoding="utf-8"?>
<!-- Generator: Adobe Illustrator 24.0.1, SVG Export Plug-In . SVG Version: 6.00 Build 0)  -->
<svg version="1.1" id="Layer_1" xmlns="http://www.w3.org/2000/svg" xmlns:xlink="http://www.w3.org/1999/xlink" x="0px" y="0px"
	 viewBox="0 0 100 100" style="enable-background:new 0 0 100 100;" xml:space="preserve">
<style type="text/css">
	.st0{fill:#D32F2F;}
	.st1{fill:#FFFFFF;}
</style>
<circle class="st0" cx="50" cy="50" r="50"/>
<path class="st1" d="M81.6,18.1H18.4c-1.4,0-2.5,1.1-2.5,2.5V65c0,1.4,1.1,2.5,2.5,2.5h25.9v8.2h-10c-1.7,0-3,1.3-3,2.8v3.4h37.5
	v-3.4c0-1.6-1.4-2.8-3-2.8h-10v-8.2h25.9c1.4,0,2.5-1.1,2.5-2.5V20.6C84.1,19.2,83,18.1,81.6,18.1z M78.2,60.4H21.8V25.2h56.3V60.4z
	"/>
</svg>
